<mxfile host="65bd71144e">
    <diagram id="G9oirACeOzETxvFrCWV3" name="Page-1">
        <mxGraphModel dx="1074" dy="741" grid="1" gridSize="10" guides="1" tooltips="1" connect="1" arrows="1" fold="1" page="1" pageScale="1" pageWidth="827" pageHeight="1169" math="0" shadow="0">
            <root>
                <mxCell id="0"/>
                <mxCell id="1" parent="0"/>
                <mxCell id="14" style="edgeStyle=none;html=1;exitX=0.5;exitY=1;exitDx=0;exitDy=0;" edge="1" parent="1" source="10">
                    <mxGeometry relative="1" as="geometry">
                        <mxPoint x="300" y="630" as="targetPoint"/>
                    </mxGeometry>
                </mxCell>
                <mxCell id="31" style="edgeStyle=none;html=1;exitX=1;exitY=0.5;exitDx=0;exitDy=0;endArrow=none;endFill=0;startArrow=classic;startFill=1;" edge="1" parent="1" source="10">
                    <mxGeometry relative="1" as="geometry">
                        <mxPoint x="380" y="260" as="targetPoint"/>
                        <Array as="points">
                            <mxPoint x="380" y="490"/>
                        </Array>
                    </mxGeometry>
                </mxCell>
                <mxCell id="35" style="edgeStyle=none;html=1;exitX=0.75;exitY=0;exitDx=0;exitDy=0;startArrow=classic;startFill=1;endArrow=none;endFill=0;" edge="1" parent="1" source="10">
                    <mxGeometry relative="1" as="geometry">
                        <mxPoint x="320" y="370" as="targetPoint"/>
                    </mxGeometry>
                </mxCell>
                <mxCell id="39" style="edgeStyle=none;html=1;exitX=0;exitY=0.5;exitDx=0;exitDy=0;entryX=1;entryY=0.5;entryDx=0;entryDy=0;startArrow=none;startFill=0;endArrow=classic;endFill=1;" edge="1" parent="1" source="10" target="11">
                    <mxGeometry relative="1" as="geometry"/>
                </mxCell>
                <mxCell id="10" value="Full Adder" style="whiteSpace=wrap;html=1;aspect=fixed;" vertex="1" parent="1">
                    <mxGeometry x="260" y="450" width="80" height="80" as="geometry"/>
                </mxCell>
                <mxCell id="12" style="edgeStyle=none;html=1;exitX=0.5;exitY=1;exitDx=0;exitDy=0;" edge="1" parent="1" source="11">
                    <mxGeometry relative="1" as="geometry">
                        <mxPoint x="140" y="630" as="targetPoint"/>
                    </mxGeometry>
                </mxCell>
                <mxCell id="34" style="edgeStyle=none;html=1;exitX=0.75;exitY=0;exitDx=0;exitDy=0;startArrow=classic;startFill=1;endArrow=none;endFill=0;" edge="1" parent="1" source="11">
                    <mxGeometry relative="1" as="geometry">
                        <mxPoint x="160" y="380" as="targetPoint"/>
                    </mxGeometry>
                </mxCell>
                <mxCell id="38" style="edgeStyle=none;html=1;exitX=0;exitY=0.5;exitDx=0;exitDy=0;startArrow=none;startFill=0;endArrow=classic;endFill=1;" edge="1" parent="1" source="11">
                    <mxGeometry relative="1" as="geometry">
                        <mxPoint x="50" y="490" as="targetPoint"/>
                    </mxGeometry>
                </mxCell>
                <mxCell id="11" value="Full Adder" style="whiteSpace=wrap;html=1;aspect=fixed;" vertex="1" parent="1">
                    <mxGeometry x="100" y="450" width="80" height="80" as="geometry"/>
                </mxCell>
                <mxCell id="21" style="edgeStyle=none;html=1;exitX=1;exitY=0.5;exitDx=0;exitDy=0;exitPerimeter=0;entryX=0.5;entryY=0;entryDx=0;entryDy=0;" edge="1" parent="1" source="17" target="11">
                    <mxGeometry relative="1" as="geometry"/>
                </mxCell>
                <mxCell id="26" style="edgeStyle=none;html=1;exitX=0;exitY=0.75;exitDx=0;exitDy=0;exitPerimeter=0;endArrow=none;endFill=0;" edge="1" parent="1" source="17">
                    <mxGeometry relative="1" as="geometry">
                        <mxPoint x="125" y="220" as="targetPoint"/>
                    </mxGeometry>
                </mxCell>
                <mxCell id="29" style="edgeStyle=none;html=1;exitX=0;exitY=0.25;exitDx=0;exitDy=0;exitPerimeter=0;endArrow=none;endFill=0;" edge="1" parent="1" source="17">
                    <mxGeometry relative="1" as="geometry">
                        <mxPoint x="315" y="260" as="targetPoint"/>
                    </mxGeometry>
                </mxCell>
                <mxCell id="17" value="" style="verticalLabelPosition=bottom;shadow=0;dashed=0;align=center;html=1;verticalAlign=top;shape=mxgraph.electrical.logic_gates.logic_gate;operation=xor;direction=south;" vertex="1" parent="1">
                    <mxGeometry x="110" y="260" width="60" height="100" as="geometry"/>
                </mxCell>
                <mxCell id="22" style="edgeStyle=none;html=1;exitX=1;exitY=0.5;exitDx=0;exitDy=0;exitPerimeter=0;entryX=0.5;entryY=0;entryDx=0;entryDy=0;" edge="1" parent="1" source="18" target="10">
                    <mxGeometry relative="1" as="geometry"/>
                </mxCell>
                <mxCell id="27" style="edgeStyle=none;html=1;exitX=0;exitY=0.75;exitDx=0;exitDy=0;exitPerimeter=0;endArrow=none;endFill=0;" edge="1" parent="1" source="18">
                    <mxGeometry relative="1" as="geometry">
                        <mxPoint x="285" y="220" as="targetPoint"/>
                    </mxGeometry>
                </mxCell>
                <mxCell id="30" style="edgeStyle=none;html=1;exitX=0;exitY=0.25;exitDx=0;exitDy=0;exitPerimeter=0;endArrow=none;endFill=0;" edge="1" parent="1" source="18">
                    <mxGeometry relative="1" as="geometry">
                        <mxPoint x="400" y="260" as="targetPoint"/>
                        <Array as="points">
                            <mxPoint x="400" y="260"/>
                        </Array>
                    </mxGeometry>
                </mxCell>
                <mxCell id="18" value="" style="verticalLabelPosition=bottom;shadow=0;dashed=0;align=center;html=1;verticalAlign=top;shape=mxgraph.electrical.logic_gates.logic_gate;operation=xor;direction=south;" vertex="1" parent="1">
                    <mxGeometry x="270" y="260" width="60" height="100" as="geometry"/>
                </mxCell>
                <mxCell id="44" value="A&lt;sub&gt;1&lt;/sub&gt;" style="text;html=1;align=center;verticalAlign=middle;resizable=0;points=[];autosize=1;strokeColor=none;fillColor=none;" vertex="1" parent="1">
                    <mxGeometry x="150" y="350" width="30" height="20" as="geometry"/>
                </mxCell>
                <mxCell id="45" value="A&lt;sub&gt;0&lt;/sub&gt;" style="text;html=1;align=center;verticalAlign=middle;resizable=0;points=[];autosize=1;strokeColor=none;fillColor=none;" vertex="1" parent="1">
                    <mxGeometry x="325" y="350" width="30" height="20" as="geometry"/>
                </mxCell>
                <mxCell id="48" value="B&lt;sub&gt;1&lt;/sub&gt;" style="text;html=1;align=center;verticalAlign=middle;resizable=0;points=[];autosize=1;strokeColor=none;fillColor=none;" vertex="1" parent="1">
                    <mxGeometry x="110" y="190" width="30" height="20" as="geometry"/>
                </mxCell>
                <mxCell id="49" value="B&lt;sub&gt;0&lt;/sub&gt;" style="text;html=1;align=center;verticalAlign=middle;resizable=0;points=[];autosize=1;strokeColor=none;fillColor=none;" vertex="1" parent="1">
                    <mxGeometry x="270" y="190" width="30" height="20" as="geometry"/>
                </mxCell>
                <mxCell id="50" value="&lt;span style=&quot;font-size: 14px&quot;&gt;Nina Mathew&lt;/span&gt;&lt;br&gt;&lt;span style=&quot;font-size: 14px&quot;&gt;TEJ3M Unit #4-20&lt;/span&gt;&lt;br&gt;&lt;div&gt;&lt;span style=&quot;font-size: 14px&quot;&gt;2-Bit Full Adder / Subtractor circuit with an IC chip&lt;/span&gt;&lt;/div&gt;&lt;div style=&quot;font-size: 14px&quot;&gt;&lt;br style=&quot;color: rgb(0 , 0 , 0) ; font-family: &amp;#34;helvetica&amp;#34; ; font-size: 14px ; font-style: normal ; font-weight: 400 ; letter-spacing: normal ; text-align: center ; text-indent: 0px ; text-transform: none ; word-spacing: 0px ; background-color: rgb(248 , 249 , 250)&quot;&gt;&lt;/div&gt;" style="text;whiteSpace=wrap;html=1;" vertex="1" parent="1">
                    <mxGeometry x="60" y="100" width="340" height="70" as="geometry"/>
                </mxCell>
                <mxCell id="51" value="M" style="text;html=1;align=center;verticalAlign=middle;resizable=0;points=[];autosize=1;strokeColor=none;fillColor=none;" vertex="1" parent="1">
                    <mxGeometry x="399" y="240" width="30" height="20" as="geometry"/>
                </mxCell>
                <mxCell id="54" value="S&lt;sub&gt;1&lt;/sub&gt;" style="text;html=1;align=center;verticalAlign=middle;resizable=0;points=[];autosize=1;strokeColor=none;fillColor=none;" vertex="1" parent="1">
                    <mxGeometry x="125" y="650" width="30" height="20" as="geometry"/>
                </mxCell>
                <mxCell id="55" value="S&lt;sub&gt;0&lt;/sub&gt;" style="text;html=1;align=center;verticalAlign=middle;resizable=0;points=[];autosize=1;strokeColor=none;fillColor=none;" vertex="1" parent="1">
                    <mxGeometry x="285" y="650" width="30" height="20" as="geometry"/>
                </mxCell>
                <mxCell id="59" value="C&lt;sub&gt;in&lt;/sub&gt;" style="text;html=1;align=center;verticalAlign=middle;resizable=0;points=[];autosize=1;strokeColor=none;fillColor=none;" vertex="1" parent="1">
                    <mxGeometry x="180" y="460" width="30" height="20" as="geometry"/>
                </mxCell>
                <mxCell id="61" value="C&lt;sub&gt;in&lt;/sub&gt;" style="text;html=1;align=center;verticalAlign=middle;resizable=0;points=[];autosize=1;strokeColor=none;fillColor=none;" vertex="1" parent="1">
                    <mxGeometry x="340" y="460" width="30" height="20" as="geometry"/>
                </mxCell>
                <mxCell id="62" value="C&lt;sub&gt;out&lt;/sub&gt;" style="text;html=1;align=center;verticalAlign=middle;resizable=0;points=[];autosize=1;strokeColor=none;fillColor=none;" vertex="1" parent="1">
                    <mxGeometry x="60" y="460" width="40" height="20" as="geometry"/>
                </mxCell>
                <mxCell id="64" value="C&lt;sub&gt;out&lt;/sub&gt;" style="text;html=1;align=center;verticalAlign=middle;resizable=0;points=[];autosize=1;strokeColor=none;fillColor=none;" vertex="1" parent="1">
                    <mxGeometry x="220" y="460" width="40" height="20" as="geometry"/>
                </mxCell>
                <mxCell id="67" value="" style="shape=image;verticalLabelPosition=bottom;labelBackgroundColor=#ffffff;verticalAlign=top;aspect=fixed;imageAspect=0;image=data:image/png,iVBORw0KGgoAAAANSUhEUgAAAVsAAAIICAYAAADAPU0pAAAAAXNSR0IArs4c6QAAIABJREFUeF7svQV0Vcf6v//k5JzkRE7c3YWEBALBIbi7u9NSoE577627lwKlghQo7l4sQUNwiBKFQISEEPfk6H/tA2mhhXKC9Pu/v5tZ6yxYsPfsmXdmnv3ud2Y+o6fRaDQ0pSYLNFmgyQJNFnimFtBrgu0ztW9T5k0WaLJAkwW0FmiCbVNHaLJAkwWaLPAPWKAJtv+AkZse0WSBJgs0WaAJtk19oMkCTRZossA/YIEm2P4DRm56RJMFmizQZIEm2Db1gSYLNFmgyQL/gAW0sFUqlSgUin/gcU2PaLJAkwWaLPC/YwGRSISBgQF6enroqdVqTU1NDcJPIpH871ihqaZNFrjHAmq1GsHpEIvFCANElyRcr1KptPfo6+vrcssDrxGWugv5CD9hDOr6fCEzuVyuHchPY+w21KexZRAcNcF+jb1PF4MJZWrIW6jnf1MSyi6U2dzcXNtHtLCtrq7WdjSZTPbfVJemsjZZ4KlZQOj/wjgwNjbWGVz19fUIP6lUqvVeHjcJsK2rq9N+XQrPFwamrqmyslILZ+G+J4VRQ32MjIx0tkFD2QX7CWV4kpfOg+os2EV4oZiamjbqJaSr/Z7ldbW1tdo2NTMz09rld89WeKsK/9iUmizwv2gBYVA0wFZXcDbAydDQEOH3uKkBWAJUGgN74T4BtsJAflqwFeDWAHxd4H0vbAVIN+ZFoYu9hPIIdhZg+7RBrsvzH/cawS4CbIU2FZzYB8BWhkpeS3lpGVX1yjvP0dNDXyLFRCZDZiRGXl1JeXklcnVDMfTQkxhiKjPFUF1LeWUdIiMzrK1k6KvVKGoqKKmoAYkR5uZS5BXlVNTI+X2PsJ4IAyMTZCaGKKoqqKy9+396IiSGRpjKZJgY6qOoqaSktBKlRvP7vXpiA0xkZkipp+KeMumJxEiMjDGTmWJkIOZhHx9qlRKlQgliCSJFLRXVtegZmWNmbID+3Zs0KiU1FWXUasSYWlhgKOKh+YEGZX0NlRW1aKQmmJsa/Z7PXxtNg6KumorSMmoU6j/sAegbGmNmboFMqruH05hOoVGrkNdWU1VdQ51ciWBHIxNTZCZGiEXP4lNNjbymiooqORITE6TIqaxVIjExw8xI8jf2bEyt7r1WjUKuQI0+EokeytoqyqsUGJjKMDM2fODzmmCLFmpNsH3cPnf/fY+ErUwmJv/KIRa89TWb02pwdTDHQAQafRP8ug5l2sTulB9awbcLtlJg4YitqRSRvhipYzP6D+6LU/YePlkehUXnaXz+7ZsEKfK4uGkx7yzZhyZ0KP9+vSvxP3zJslO3cXS0w0QC+hJTPNr3ZlAHF86v/J6t8SXY2VtgqK9GY2RPcO8xzBnaksJjvzL/vV+ptHLAztJYO2CkTgF0GzYUv4IoFn+3hTyZHbYyI4SKSizd6T1pFhP6dcDZ6AExOE09BamXiD6biW2rzngVRPHVuqMYDniT1weG4Gh8Bzp1xXmc2bWeS7UO9JoxkWZSPSQP45GQZ3IMu3afR9W8B2P7hWElfkgsT1NP9uUjrF+ylBOZt8jLv02FxgRHBzvcwrozeuoshobaof+U4adR1lF89RJ7tmzi4Lk0imuUiCSmOIV0YvSE0XQNdsNEolvMUuduqSnn0q7VLFl7kYDRE+lvX8xv5wvw6DqckeHuiJ/m4zRqqMkmOuoCN6XedOvgQl7UGr5Yn0Krcc/x0pBwpA94YBNsm2Crc3/W4UKdYJuXsJcv313BSVlH3pzSGWdVKQkH1rMxBTrNmU949k5+WhdH6JSZDAnzQCrSQ2Qow9IEUnct5K1lBzDw6cGkj79jnGU6u77/mkXbL2HSbiRvv9mN+B8Xsq+6ObMnDyPIRozghRqbmyGtSGblwmWcNmjHi+M64yy+zb71GzhS4Mjr70zDKmUvb3x9hLZTXmByhJ8WtvpSUyysxKQfWMmCFecJHD+NoeEe1F+7wP4tG7niOoI35k7GpzSWhDIp/hHdaWamj5h6Sm9cZMvPP7Mm6hrufcYyzKWCQ1Ex1LceSVd7PWr1ZYS270CwnYgrB3aQUGdLxMThWOdeIeH8BVIKqpE6+NCqXXuau1piqHWF67mddoEDBy6jDuzMwHZOlCTHcSYulVKNCU4BLegQFoSrhRGCF1xbXsTN69fJzjjPns07Oa8MZNqwtogriql2ak2/zgHUp8RwPrsOr1adCZOVcykhE6WzP0G2atIvXST+6i0MbN1p1iqcFt72UJLF5bPnScguQs/ciZA27QjzdcFUC1ANtUUZRK1czOLf0nDqOpAR7fyoSD/PyfOZ2HSbyKwBoZCXyLm4NG7W6OPkH0q71s2xVxaQcP4c1+sNMVDXUlwlwtXTDVt5Dok3FZj5taKTrwUlaZe4mFuNRKyhsqgUY7cQ2rf14tbRdSz85RzBE2cywquGo5cLcQoNx1eRTWqJBgORmtKyKsxdPXAzriEt4zZKez+6tAvFQ6bhVlo8Zy4mklcvxb15WzoE2lB2NYEzVyswN4LqwlvUW/sR5m9Pbfwuvlt1mGyzEKa9MBrPglP8uCWVNpPm8dqw1kj0/0r3Jtg2wVYHhup8ic6w/fqDXznrOIhvX+2Lu7KQmPXf8+PFWtrPfo1WWTtYuiWNrq/OZ0JHf4y0n/vGGChKObH2Kz7bch5DOwcce7/K683y2Lp8PdGZtzD078lLL0aQuHQxhzSdeeulyYQ5CDOvEkwN9am+cYIF36zksmU/Pny+D26SPDb99BOHcux49d+TkCZuZ/7CGPq+/Dbz+gdrwxtiAylG4jJObviR735Nov2LrzMlwo+apGNs+PkHztkP4dVpwzA6s4qdeWb0fvFNejtKkOrJKc04zZoF3/BzzG1aDJrASJcKdu7YTbpJAAGmtWRdu45Nn3m8OLQN2es+ZV+FG899NIvb639i+5lbOLrZoCivRL/5AOZM6UewtTFoasg8tYVvFuxB3mkcs8LUHNiwm1Q9W+wN67lZrKb39HlM6BmCSUOzadSUXT3OioU/E6lozUezI8iPWseGTCuGjulO2faFLD1fTpeprzLHI49lOy9h2qYr3kUXOHAuCxN3J1T5eVSbBzNhUh+MrhxmzdFrmLg6YFhRhMIlnCnTxxHuZoVEo6QoNZKfFywjhta8/sYsevjZoawuIf9mAXV6YuqyzvLryq1cVVvgaAF5t5UED5jG5IA69i77js05xjTzs6EwOZlKYzdahzqQdyWDAllLXpnejdqYdXy85wYh7dvjq5fL+RxoP24y4bWXWbPpEsFjJ9FNHM/CPddo1qsvAdd3sfJUGTb+3ujlXOF6nSnNWgWizk7jWpkZo/71Gv2sC9m5fB3nK6Q4m2soU1rTfVgfjJL3892q0ziFtcRVv4DLN/Vo13sAXQ2SWLLhBIXO7Xh+znh8i06zalsqLSfMZe6glkgaYkT3DJ0m2DbBVmeS6nChzrD97LXPWJ8ux8fFArGijkq1KaFDpvLajAjydy7h0883UmjjiqO5MWKJFMewXowfNQDRqeUsjszC3smQXJUf/cP0ST6ThLq+gjLLFkyd3YXLCz7ih5NFuLk5IDMQITb3pPPQMYxuKWf1R1+xMbYUJydrLRBrRVa0HDyD+ePCKTi0lDn/+oVaB1ccrUzQExngGNqVsTMHIY5ezWefrafAyhV7mQR5TT1K6wDGznuZ6X1aYFxVTJlChJmdAzKJHiI0aEqzOL52IR8fLmXI8y8zkNN8+PMOatrO5OVOJiTt+oUdZc2ZNn4gysOL2Vfuyux3xpG05Cs2J2joOWwo7QLcsXNywcfLCXMD/fth22E0k3yK2Lh6F7dcIxjULRwvJzvcPL1wd7Dg92jsn2H7r2GoLu5g+d7r+IY3RxV/kpgiBXYt2zPAsZRjsTX4t3Aj8/gJSr368c7cwdw6tJql22Nw6DEc36IYtl4qo0WfQXQP9cbOwQlvLzesjA0QqZUUXNrBwsVrSXMaygcvjSbE+Y8VKOqiq+xf+S1fRdcyaNY8RvrUsG3xT8QoA5ky2JuMnSs5SAemjYig7MAP7My3Yugrr2JxaiVbj+XSY8YIzNMO8P1ZPSbNncsQ+2t89/VGCr260Ne5lN/2JdP8T7ANvLGLNSmW9B8zDJfru1h8vIBWY1+hpzKGTduPYTtkBh1FKazamYRP/3GM8K9i94YD1Hu1J0CTwbL9OQyb9zxDfCpYvnAzFd49eamzlHXrD5EXMop3pndF79wmlmxKJmTsXJ7rF9wE24fAoilmqwNFdbxEZ9h++fbPHBa1ZHpvZ0rOHeVovjVj//0ms9pbEP3rQr5cdgbPIaPpHeSCVJgJtXXHy9mCjN3f8+P5akKCjUk/fB6Nsw9W5o64kE2ywo3xz3ch7odv2H7bjQnD+uJraYDIQIaTpwdO6mSWfPEjxxQBTB7YFhejepJjjnIqS0PXaVPxu3WMDxccIHDoeIa18USECFMbJ7wCrMjYvZyvfzqFy4ChtLcs4cTBc+T7Dubjt6bRxc3iwRMw5Tmc2rCIDw6WMnzOqwxUR/PhikMYDHmHf3UUE7tpMatSbBk1dgCaoz+xr9KTGd/8B6uYbWxdv4MzmYWoTZwIHzKF58f3JtDa6D7YKiMm8fpgN5J3bWLDgbPkVushcQlj5pznGBXRDKOGuO+fYfvWVKyzjvDzL7vIF5lhbmaIrUxK0a0S1FI5KqMguoaacGhnFAadZrJgTn/yo4QwynaUXZ9nYqCamB2bOZqcS5WeOUE9RjNv+nBChBenRkXhlYP8+N0KLko785/Xp9De2xq1vIaKknKqb10jav0PrMx1ZOb8fzHSrYptX3/CllxLhg8NofDgRmKshvDiuB6U7vySLQU2jP3PO5gcXsTqPXG0mTgSy4xIVl2x4PnXX6G//TUWvP8jqeYh9PCq5ciBNEIeANuteb5MmD4G14yNfHvkNq0nv0WvuiMs/3UXko6jCFfF8uOaQxQb2eBiIaZGISW4c3dC9G6w7kw90998mRHexXz/yTJy7Dsyp5uMTRsOcjN0LO9P74p+3B7W7r+O/4AJjOns/cBJwCbPtsmz1ZGjOl2mM2y//mg9Fz3H8PP87kji9/LZwi3Iwyfz0dzOpG3/kYXrrtBx7kuMbueLVNgZoW+AgbqaizuW8ku8mL493Mlb/y3byoPoP3IofqWnOFZgr4Vtwk+LOKBqyxsvTCTUXh89PRFisT6qvIss/X4VF8168Pb0PnhZ6pEWtZEVO2Mw6zuTbnoJLFgRQ4+5b/B870BthUUiAwwNqonds5rFG9Lp+e93mdHKhGOrFvLNbwUMnf8uc/oEoCy+SVGdPlYublgaiNDOOVXcge17u/PoN+NFBksu8dXaI0iHvssbHcTECbBNtmZkA2wrPJj++Xw8bmVRXquB8mtEbdvEgSJnXnj7PSaE2d4HW0WXibw6vDnKwhJU+hpyL0SyeuU+LEe+zvx5owiQNix3+FMY4a2Z+Ncm8MvCRay/dBufASMZE2jKpa0b2HfTiI6jJzCxgwHbF67jlmsv/v3CIPIjf+WX3RdxHzWH0S3sQaVCr+4253dvZm+qiH5v/JtJHfyxFGuoupXEvp8XsfJMBe3GTWFMB18qM2LYv/ck1Tb+uClS2Zmkove0FxjlU8W2JSu4IG7J1AEepO1cTbT1UF7SwvYLthTY/gHb3bGETxyJRfohFp2sZ/Rzsxhsn8X3S3ZQFdiLvg6F/LY3+S9hBMGz3Zrvx8RpY3C9tpEFUYW0mvwfLWyX/boLcdcJRBhmsH7nZWwjhjOqnSvqOhXmVsbkntrO1wfLmfHmywz3EmC79A5su8vYuHYPmb7DeHvmQFzrb5KUWY6tTyBBbpaIHrA4vgm2TbDViaI6XtQo2F7yGsfydwfjXpfFnkWfsyxWTcTc5/BL386ihTuodQvA3dYMfSFma+pMWERHrIvPsjtRyoQJ7RBH/cyidA/GTxuDdeyvbMu108L28nefsvxCFQH+nlhKRcJyBKx8WtCtuT3xW1eyLV1NkL8LMgM1pYUlKGyCGDdzDPZXf+Ot99eClz8+TuZ3YGvqRMuI9rhXXWbdthv0eusDZvf2pejMbpZ8tohk7xHMm9wbvRNCzNacPq++RX8hZissEKgrJG7vL7y3aA96zfsw0lfN0dPxGA9978GwLXdj6juTKdiwnIOJxdjYW1JfXITCrRPPPT+Bju7m98B2N/KOY5jUXEHUjoNkiSwx19SSU1BPuwmzmT6sE3YNixT+4tnOoqUsn53ff8mXG5JpMe895nUwI+qHj/j8opT5773H3O62nF63gg3HU1BaWqIur0DftS2TRnZAGbufbeeyMbaxRFNaRLVlMGOfn0aPAEetN62RV5Mfd4yVK1ZzJK0IA1MjFDW1iO2DGTl1EuHSbHas3kh8hT5WpiLK600IHz6d0R4V7Fm2iONWj4LtARbsysAzOAgHRS6Zcgf6TZtKcOlpVm34a8z2UbAV9ZnHtBYSTmxYw7FcOdZWJkikznTp3QFJeiQLD5bdD1uHTswf7s72ZUvZnWvB+JlTaKFKZcvRXFoOncC0XkIYoWmC7EHMaAoj6EhSHS57JGzNZEZUF2cReyGNQjNfuoZ7Y6Enp+RaLDEptzEUAKt3i4SLSdyW/7HOViy1xCOoGY6GVeSW6BMQ5Iq0MIMrxSZ4+Xkhyo0no8oYv2AnCmLPcvlqIb8v0xXpY2LvQYivC/XZV0jMKkKhQbtKwcjSHveA5oT52lCbncyJk3GUKtW/3ysyssA1MBBP4xquZ1bh2qoNQe7WUJ7P1fjzJFWYE9jMB+ntFNIrpXi27YivTIRYcCo1CiryM7l87hJ5Ggvc7WXUVlZg4BlOSwcRhRkJpJZK8fb1QJObSJbCjGYdwtDPukJSfBJZZQqk1i40C2lBkKctUmEAa/O8RmxcJmrnAFq4G3ErJZG4tGwqMcLaPYDwkADcrH+fHtOuEJCX3SQ5PolstR3tWgdhbSQn90occcnF2LRsQ4ijhOyEi1y4JSKsbRtCXE2pLszlSnwCKVmFSKxd8GvekmauFsgLM4m7nMi12+Xomdji27wlLYXVCIZ/LEFTK2opzE4jMSmN6wXlGFg64BnQnFAfV2R6NeRlJHL5yjVu1+nj4BNEy5AAbJSFpMZdJlfqfaetMi9xtcYY31atkOQkkJJZiJ2jCWn7f2XJJQ3d+vQi2EyF1CWQVi180C+8RkJKAZa+/rjoFRF/oxxLV3esKjO5Wm2Bf6AvpuXpxOXWYuvfGjdVDldSM8GtJS09LKjKSeFyQioFNSLsvYJp1cyJuvwMLmXWERgWirdZnbZfVhk70TrInpzEy8RfL8UhMAQ3SSUpWRU4BoYS5mWH6AHL6Zo82ybPVgeG6nzJo2HbtINMZ2M2XfhXC2gKktm97Fu+uWLNc2+8yeRWNv81ZmqCbRNsn2ZnbYLt07RmU15/sYCm+BrHtv7K6mvmjJw6ncFBlv81VmqCbRNsn2ZnbYLtE1pTo/49+PF7Tno6KkT9+dGCklFjklai7b9M9agx9fu/vlbYw/642giCEE2TNoKSJm2EP3rxQ2ErdDJhT7RgrKb0YAvIi4spuxxLTW4uGkEKz9wcy5YtMPbyorHALSsrIyYmhvz8fJ3M7eTkRLt27bCystLp+qaLGm8BYQxkZ2dr5fx0FVMRvGFBtEZoH0Eo5XGTMDAF2AvKWQK4GyO4IkijCqpfAuyf9GUs1Ecoh5CXrjZoKLsgZCXc15iy62KvBrsIbHrS+unyvKd5jTDhKCRBYvF3IZqqqiqtnq3Q0I1NQudsEB5v7NtdaCjhXqGhhGf/nTGFaxs0R4XO1Vj9TuEZwrMaxHwbW8+ypCQSv/yK/KjjqAUVIj8vWrz1H5z69kXUCHk9oR5paWm88cYbREdHP7IYgk06d+7Ml19+SWDgnSVvzzI1tIlg66cxgBtTVqF9BOAIABPa6Z8aXEKdS0pKtO1RXFyss5SfcJ+zszOtWrXCxubx49MNfVuwVWPr3fCF9DS+fBrK0ZCXLvZ/krLr0jca6tcYjV9d8n3W1zS8hAQbWlpa3q9n+7gSi8J9AqiF1Fg9XKFAwr3CIBPo/yjYCgNRkC0TQPsoOP/ZmMIzGgTSBQm5xqbiuDguffgRBZHHtLA19vehzYcf4DZoIHqNgK3QeVJSUnjxxRc5fvz4I4sh2KRr164sWrSIoKCgZw4goU0EL08op9Ceugy4R1ZCxwuEryvhZ2Jicqdz/kNhE6HORUVFHD16VAtbXb06wUYCbNu0aYO9vb2OtWy67H/BAg1hBIE7D5FYbLyerdDhGmDb2E+pBtgKEBW0dB81uISCC4OxAbaNabQGcWjBa3qccElxfDyX3v+AgqhjqOvqMQ64C9vBg9FrxAkXQp0F2M6bN49jx449sgqCTbp168bixYu1sP0nkvCl0/DyfVSbPM3yNMBW6Ee6Au9pPV+AbVRUFKWlpTp/Cgs2cnFxoW3bttjZ2T2tojTl8/+ABXSeIBP0ThW1lZSW16CRmmJlJsNAuzj1r+lBsNWo5NRWllFWrcJAZo65zPiBsoSPD1sxYn0NlSVlVNYptFqwQtxUrNW/NcdUKrmzS+yedB9sDQ2ory6npLwauUqYqNJDpC9BamKCTNDlFYv+ssVXJ9hq7ujEVlRWUStXaTdsGJnIMDM1wuDuQvonhq1GjVJRR3VlJdV1ClQaEYbGd8otleg/hjbsHe1XIR8Dgzt2uw+2qO/WqZpaQftWa6f76/S0xsZ9sNXXR+hHVRWVVAuK9+o77Sszk2EstO/TeujdfJ4YtjZW1FaWU1pZjUIFevr6SAylmJoK5f1DH1m3YquoLi+nWq7B1Nz8bzWZ/zY/jZq6yjIq5WAks8D47u5JtaKOqvJSra606ndhaRESI1MsLM0walQ/0mi3e5dV1KCR3NFwFj9A6OfB5VRRU15OZZ0GUwszjA0bqW2sVFCvUqMvNmjEM3VrgSe9SmfY1hdd5dy2H/lsVQyq1kN597XZdPK2fGAH/ytsNVRknmfvz5+y5HglvoOn8e/ZY2lm89djQx4ftirKrkWz6J0v2XO1BhtHW6R6StRiK0L6Tmbm2O4E2JrcB557YWuoKOfC5u94Z8UBbunb4GQmQa1UI3UNZdj05xjRxhvzezYBCIZ/JGw1SqpuJnNw4xp2nU2nQgVKhQYLr9aMnDaFXs3dkElEWq3dx/ZsmzWjtvAa5w7vZMPuY2SW1KLR6GHkFECHwWOY0KctbuZS3YGrUUFNLtFR58iVeNG1WxiORqI/YCszofrmFQ5uXsees2mUK0Gh0GDm1ZrRUybTK9RdW6enle6FLYoKrp85wNpN+0goqEStVKEwsCa0/zhmjuiBj1Xj5xf+rpxPClsbAznHVn3BpxujKZNYY2mij1hqTrMuQxg5rB/hntYY6KRNrAFNKTHbtnM0XU2PcUMJ97LnsU4HrLzN8dVfsSxJnz6z5jM81BaZRENZ+hl+/fpDVp2/hdTSBjNBYF9kjHubPkycOZL2rjYP12z+sxHVciqzL7JlRwz1Hl0Y1bMltmY6HhGkvsW+hd/w0yk5U95+mUGtvNF5il6joDg2iv3pdTRrF0ELN8unrv38JP1aR9iqKUyKZuOCLzhUaIjUyo6Iya8wOaIZFg84OOAvsNXUkxGzi++/+IFMsT2Wdp6MfPEV+jV34s9N8CSwLUk/xtfvfE+CVUdmT++LY00uh9avJarMndkf/4eJoS73nZJwH2zlZZxd9yUf7M7Aa+hcJoYaU5YYyS/bTiHu+iJfzR6Ap839zf5I2CoqyTy+nne+3oIqdDAvDGmNIjuOMylFOEWMYmiHAGyM9Z8AtotoFuBL6qGVLPxhPddsOzGsb3t8pOWcPhpNhp4X0+ZMIdyqnuQzp4m9lofS2JGg1u1p621GfvIlorPUtOrYFm+jIk6fSKBaJMWu+jKLV0eSaxbClHlzGdk+QHvihjaMYCTi2vH1fLhwJ6qgfjw3NBz5jcucSS3GuUt/WlnVEXcpF9+OnWjpZkjSqRiyVVa0CLLmZmISN+okGMorKKk3wtvHDeOKGyTny7Fv3p6IFr5YGd0vrH4vbGuLk9mx+Fs2xUP3KeNoZysn6ewFcg0CGNCjFZqsJG5LnWkT0RrR1YucS7yBaVA4bqIiLl68isRYApXFVJo44+1mSdnVNPLV1oR06EBLbwf+rCf/xLCV1BG59CMWxFQQNnQqXeyryTp/kO0xBfgNmsW/pnZBk53EmXOx5MtN8GzRlg4t/LCW1JGTdJEz5+LJU5jg2TKcjmEuXD30G9HXNHTt0wqDokySi1UYqGsoLqzExicYZ0kJqVfz0XdrSUTbEBzE5aSeP8OF5OuU61vTomME4W5GXFj5Cd/H6zNw3tuMaWmHmYGG0tRTLP/0Yw6rgxg2ehCtHGTabfdSC1ucnC1Q51zh9Nl4suok2FhKkWtMada6LbKCRC6mlxHQvSuBRpVcPBFDsZUfoY4qYqIuILf1wdu4kgyFLZ3at8bfQkniqWOk1VsQ2tyLsvRYLidlIjd3oUXbDrT1E3NowWcsOi5n1sfz6e9rzLVzpzmfmgs23rTu1AkfwwoSzpyjSGKMurqYvNv1eIa1x9+klMhlC1iXWIt/t/G8OGMQLTxsH++l9CRUfci9usFWXUVS5Ca++XoXXoMGYJJ9mWvOg3h9ah88jeu5eT2V9NwyTJwDaO7jgpGYe2K2JlCdz4nNK/h0ezZ9+4dQnBCHpM9cZvdriY2ylBvpqVwvVmEf1Aw/R2tUtTXaGejGxWxVCLD95r2lZLgN4O3Xh+FcmcmWn5awv9SLF99+ge62GjLSrlOCDJ+gABxkUuQ11dqZbsO7sP14fy4tpr7PC21lFF3cxcLVhxH3fIn3R4UhLc8mLbccQyc/gnxcqU95RMxWWcWNM9v44IOfyLQIY9ioIXQO8cbRygJjmXD8i4H2zfv4nu1CAn3t+O37r/h5fxad3niXWT2aYyNWU5rMkekvAAAgAElEQVR/k8JKJSaGchL2rGJ5ZBpGji7IqvIpEHsxakJf9GL3sDhGw+x/vURvq1S++WgNRXahjG1WyZI1Ryl0ac/seXMZGu6DgeoubE3E3DizlY8/WU6mLIQhQp2a362TiYIrB9fy9pcn6Pvmf5jZyYJNX3zFSbk3M8YEELNyJdtuGBIeYEb+lTSqzL1o6W9BYfo1Sm078dr8KYSYVHE1IwexrQ/+ft7IxEptTF6I2daXXuXAD9/wQ9QNPHoPZ1iP9gS72GuP7lEWp7P+6wXEW7Rh3ntzMDj0EwvXHcdhzDy66Kfw85e/UOsRQrBZNZdT8jH0DiHAtJqrGfmY93qONyZ2w7r0OteL6jH38CfA3ZaastInitna3IXtkgQD+r/4ARNbWqDKu8QPH33FOXEQk4YEkPTbfs5XmOJlrqRUZUOv0ZOIMExhzaoNnK0wxk5aT6nGjl5ThqN/cjt742Hq7L7Unt7Kd1EF+Ae7Is5NIqPGmsAQT8T5GaTUeTJhzhQ6qOJYtukoFVIzxAWZVPsOZO7k/qiO/sQPCeK/wvazT4k2bsfUWeNp52KORCTMZZigX5jA+u8/Z1uKCjd/b5RXz5JQ78GkN/6FW/x6ft5znaGfvs9w61v8/NGXpPgOYUaEOXt+2UVdQBfC9VJYf07O2JfnMNy/jl8++I5kq2B6eak5cSKZWis7NHlZqPx6MHduXwo2/sDPJ+XMenMSzjdPsGJvAkbOLlBUgNyvL5PaWXBy5XfsKbEiPMCeuuRYCp07MnxwKHk7fmFHmoQ2Q6bw4tS+NBM88mcAzsfJ8tGwlclQl17n8MpFvL+3hDEzB2KYeJDDJR688PosWpHDns1rOJpRRK2eLd1mvc7Etm5IlLXa8piaGFF9I5Y1S5awIs+dOUNcuBF1mAyH/rw1ezDOlalsXf4Te65J6DHnZab1DMWw7vFh+/X8j9h5TY6Tmz2GKjmVGhlhw2Yyd2AA9QlH2HzgErlVtZiG9mf2xIH4mUvuge3nzP/xN24bOuJmIUFeW4PIOYwJ815mkEsdl/atZtWJHFy6TeGlKYOwvJHwiAkyNfUlOVw8sIP1e6JIyi1FI7XAPTSCURPH0T1YENd5kjDCdwT4mLH5669ZF13HmI/fYmQb73tEyOXcSoxkyWdLSbLvwovP9ccm/TDfrTuBSau+BNXGsTZOfB9sS7x68e/exixdsZubzUbw9vPDCLYypKa6YYLMlPqSXC4e3MHGvVEk5pSgkVreqdP4nkgzDvPZt9H3wTZaC9tATq9dy0FlOK+OCCN7949aicpR08djcWETW89XEDFpGFa3YolJuEpZrRE+vScyZUBbHCV3T1JV13E77TzbNm7iwPlUSus0mNh5027wGAYFm3Li5yUkPBC2qSz9YhMOo6Yxtr0B677byG23nswf7Mrp7ZuJ0mvD3FFtqTq2ld0pVQQNn8kLw9piUFP5dGHbygZxWRYbPn+LHbclBLkbc+XiLVwGjmOgayWHtx9BL7QLrdUp7DhRQMi05xkVZEFBZj5SV0tStq9he6wA237Un9nKojhTJk4cSkDWLhYdvUXw+Nl0lV9g7aYLuE2ew/T2DpTmlKA2VJCxeyU7M20ZOmMsdkkbWJEo+StsP/k3K84VYmLrgKVUgsbMkTYDJzDCJo+Vi5dT1XUG80Z2IH/bdyy5rGLg3NdwjxNgm/lw2LYYxXiPQn5dfQCbwZMZ4VXKL7+cxLbnOCa1taGouBaxVEzSzqVszbFi4ivT0D/8C7+crmfc9B5UHt1MVJ03oycOQ3ZxGxsvKunQvxW3ozZywbo7c0d3w+HyOr46VUXbiWNwvrSZDWnmTH9lHoNbe2Bs8GzO7HsmsJWZSim9eoof3n+X707k42BljKauBpVFMFM//ISXInxRVuSRFXeENdsuYD3kFZ7rFYBUfQe2JoYasgVP6N3F7M2RY2MM8ho5Bv79eOvT+YwKsuX26V0s33gcUf+ZzBsYjrT+CWD71iIuGrVg/OhuOGvKSY6J5GCGhj7Pvcq8rh6U5KRxbPc2jlZ7MWXGKFrb3jly+o5n+wXvbkvCsftERgRZUF+QSuShExS59ubVV8YQqn+DrSs2kWzUkdlzxmCb/QjYau4ealhdg0Klpq7oBucO7WDd/ovot5/Cx3NHEuIke0LP1obdC79i+eF8er/9LlO6NMNSpKamrIzKmkoKMo7z07c7qGozjnfn9sYs/TCfLdpEqUt7WutfY9MVA55/4yX6WKby1SdrKfXpxzv9TFm2Yie5wWN4/7nB+Jvp3xOzNUVRW01ldS1ytZK6wmzOHtzG2v0XkLYfRB+Hcjb+epneb/6bmZ3M2fT5V0QrfZk5JpCzG7Zw0qwf741pxY3NX7Oz2oeJc6ZjemI5q6Ju0OHVNxkRZIt+zjnWrIsiz6kXMyb0xM1IeefYao2SmqpK7SSRpr6KnCvRbF+/maMFNgwe0wPlmd+4atGGuYJne/AnFq0/juPYF4kQp7F80W8EzXyByZ0lLP1kLYWeA/hwhDNHfl3B9tJgXnttBs1rY/ll435Kmw3i5TGdMKqterqwDbNEczuRpR9+zkm5GYG2cqL3nuaWkSUOMjF19TJaDojApzadE8lShv3rNSa29RQ+E1GJStm78FvWnVdpYSs/s4OlOZ68MH00IdfW8XnkLVpOf5WuNTEsXbof2bDJ9HMo4+CmvcTlFVOae4Nap+68PH86TilbWPVA2H7AvipnevbrTXM7M/QNjLH18MLw6mG++WI91pPmM398B/K2LuDLoyV0mz4Pl/j1LN19jcGCZ2t5i58//pI036HM6HrXs20xgTd7mrBn6RLOiMNoZ3aLswVS+k0ZR/PS82zYfoT4nGLKC7Kodu/Ba+/Nw/jISlaermP4hPYU7FvJ1tjbmNjZY6SUg2UwfQZ2oDx6H9nNR/D6uC44XfyFN3fmEDx6Ah6JW7SwfX7+ywwIdX6gmtvjgPJp3PNIz1YmUZAetZKvVp+DiCmMCzFBXnCFPZsOUh82kU/m9qYu+Thbtx/ghnkY02dOINRRhqJWWGerQSov5vSab1h8qprQidPoaFZLacopNh9IwWv0q7w7KozyC3tYtjYSZY/JzBnaEXNV3WOHEb5+90dSHLrz6tyh+IhrST+xhW82XcZvxCt8MtyLs3u3sT+umMDBUxjWOQBTTf19YYQP912n2dg3mNHOHk1JJvtWLuVAsSuz3n2ZQTZFbFu2hli9cGbNHYdzfjKxH3z40KVfmroKrsXsY8OxNCxCu9It2J6qG6fZ+Otush378s5r42ntavkEsBVitj4k7V7Gdyt2Ut58BFMGd8BLWsGpvbs4kyehU4Q/mfv3kmTehuemC55tJN9vO4dNxEBCKi/xS2QBg56bTneTNBb8dBBR65F83l/GT0s3k+E5mHdmj6KFvTG1NdXamK3MUI9rMXvZcvIaZsGd6BrsQOX1GDas3kW+c0d6e8rZtSIKv2kvMDbciF2LlpNsFs68iUF3YGvRn/dHteLGlq/ZcS9sI6/T8bX59LYs5cSGdcSqvek5ZiLdAuzQV9w5tro+L4HIvXuJrXGlQ+dwXI2rOL9jDVtiSggb3hfD+H1cknsy7qXp6EWuZPX+RJrPel0L22WL99N81gtM7ijm50/XUaSFrRNHVq9ge0kwr81/jtD6yyxft5tbnn14aXx3zFS1HH2CpV8NYYSF5+rpOGEe/T3U3L58gOXbL2PWuR99rXPYtjcZ085DGNnaBXWNBgtnS8rPbGPZb9cJmDCdkb6GZCRdR9/fnduHhb6r9wdsc72Yo4XtWj6PvE3Laa/QtfYUPy/9DXH3HjhlneVMnhV9xkRgdGYL21NN6TN9Ih5Xd7D2isEDY7ZHxS0YO3k0bZ3MtKtQJFIT6lKPsvirJRS2mcic4e24tXMxyxP1GfLim/gmr+P7jWdpNW8+fcxu8et3yyhrO5HZPSzuhBFaTOCtic25vn0hCw6mUVdVj2PEBOb2dePMqgUcrA9l/JjeVB9ZyuZMM0a/PBPjk+tZc1bOhBm9qDm+lUOlDgwYNQh/Qzl1IgtsDcvZv/IXkgOH8/q4zndguyOHoNET8Ezcwto4CaOFuYaOvphJDXSfHH4aRP2bPB4BWwUGtQUcXPIxa7IdGP3ZVwxz1KAqymD7N5+wJc+e0ZN7cH3dN6y7WEFIr0EMHT2JgS3dEKvrtPKC8oIkfvn4Ky5ZdOe9r1/BXyyn7NppfvhkMSm2PfjXzE4kb/qen/bEYtCiL8/Nm0d3b3MMeLyY7ddvfMLeXBHeAe6YoaS8rBSlQ0vGjR1As+LjfPb9Pm5Zh9B/+CiGDeqIt6n4vjDCG8siKbfyxt/WCOoqKarUx7vnBOYMC0IRu4dvl+8lWxrAiNkvM9haTc63nz18na2yhrzLkfz402qiM8sxsZRBfQ1yYxe6TZjNjN5hOJhKngC2iwlq1ozqvCSObl3Pqr1nKNLoY6Qnp97AkZB+43muTzNKTm9hxZ5zVBqaIVXUg0s446cPwy7rGD8uWEOOlSe+9vqkJmXj1HUSC8a68+uiRezIljHmhdeZ1CMUY+ruTJAZS8iLjWTp0jWczCzD2EKGXl0VdUau9JgwjV5Whexe9A0xckc8PZwoTU6g1juClycGc/4RsA0bPwSD2F38tDUWj469GThyHP3bBGEjVWlhqyzN5PS2X1m++zT5eqbaiZ2aaiW2YQOYPqoTynPr+GlvLBrnIFzqcriSU0+72a8QIU5n+fd/B9tmzJ7aF9GlTSzbfoLb5uHMfHUmnYNdiD125LHX2d6B7Yd8uOEMtRau2Bkpqa1R4diqLxOnjqGtwQ02rlzDwYxqrCyNEZt70GvIMDqY5rLx13Ucz67FXKqH2tybQZMHUBe5md1xd8IIWs/2obDdj7TPQJpVXGb/seuY+wXhzk0uZFRhHd6bDqpLROVbMvjPE2Sf/IeVsWVYObthbSQs+dPHwq8tA7o2p+LkWjZfLMXczQ3D21dIVXox6fX36ao4yfKfl5Gs50mQg5T0iwkY95jKnB6W7Fl1B7bvTO+Bacpm3vj0R/ZnGjHxw694pZ2M6FXf8OuFchz8A7Csuc6VjAr8ho3AMesMkclinvv3NDyLL7B6WzTlBqaYoodZUA8GtjQjeu0qrgT8CbZjZ9Im/xBLN59F0awfr7w6jo6+jjzdNSqPT+RHwlYqUpBx+SI3NbY079Qae33Qq6/mZvIlkgpVWDk7UJV+gauFdYhNLPAM7URrHzv0lAJslYjkZcRfFILgPnQM98MAjfYwwfTYy+QozfHzsyE/9hxXblZhKLPBN7wzAXZG6GsaC1sRqprbJJy+QGp+mVb/FkH/1sIGD7/mNHMxojIzgbMJ2VSoJZg5+RIWHoS9AVrYSvU13M6IJSY+naIqhXadrbCG08LRg2bNQ/AwqiEr6QJnU2+hFI7tCQzDT1nBtS8//dtNDar6Km5fTyUx9Sp5ZdXoGVni4hlAUDNvbE0NEebeH3+C7O6mBuFzvrSAtOQk0nMKqFFLsPcIIDgoAEcLA+Rl+WQkxpOWW4LSyBafZqEEedqhV3WLjPhLpBUrMbK2wrC+HkNbd9oG2nIjMZbErHJsAlrT0s8FfeXdCTIzM9TyagpupJEk1Km0CpGRJU6e/gQH+mApqiIv5TJxWRVgYoO5Xi0qE2v8vawovJpJgYEbYd42VF6L54bSDJ9m/kjyU0nLrcTC1R75zTSSs4rQSExx8A0l1M9dO0kmwFZYlqwoyyf1yhXSsgqoUomQ2bjgFxSMn7M59bevER+fSk6NAU5WUpRKNWaeATiKykm9koNVQDN8HfRIib1KvcyNVh4m3MxI4XqdBT4elpRnxJOcVUg9Zvi2CcfVzozzxx5/U4OtuTE3Uy5x7sp1SqrliAyMsLATyhuEj7ON9qWYf/UK8UlpFNZLsPEMICTIF3upmlvCvydfpURlhLNvIC0CnShOSSCjUI1/oBuqguukVcsIDPDGujyd2Ju1WPuH4KzMJzklF4m7Dy4G5aQlZlAqssLH1ZKKogKKNWa4SmspVpngEdQSLxsjDERo+0jK5TMk3CimVnl3oa2eCGM7D5q3DMFBkUfilasU1SgoTz3G7mQ9+sx6g/GhRhRmJJKcV4OZpSX68krU1l4EOBmSnX4DpbUPYQGumNbd5Oz5eDLLJQR3aIefnRFVN5KJu5JJETI8XCypKyigzsIOmbKK0moDAls3x9GwnszEOFJu3EJtYod3SBi+MgXXryRTbOFBcx9HTG+ncvZ6FZa+Ibhzm6TEFHLlloR1bImPvcV/0QTZY+jZNu0ga9pB9vjv//vvbNpB9rQs+ZTyqS3h3MYFfBVVRJdp85nS2RML7TEnTelRFnhkzFZYftXY1ATbJtg2ts887Pom2D4tSz6lfOrLSNi/hlVny2g9dCqDw1yQGT69TSxPqZT/v8zmb2ErSJk9jrZBQ6ba1Qgm9x738mgbCKAWZMiEdba6iNgI1zVoIzRWYUy4t0GI5nG0EUri47n80ccUHDmOuk6OSYA3rd97D5dBAxE9hjbCyy+/zIkTJx5pJEGbICIigu++++4f00YQ7CTEbIX2/CfVloS+IPwEoaD/C20EQatCUP/SVSZQ6L+CNkLr1q3/39VG0Gi02+ER9JQf2VubLmiwgMBFgVUNGiNaiUWVSqURVJ6EX2MBJmQsdDgB1EJqrERjgzyj8OejVLyEwgsFF54lDEQh9tqYJMBWGMjCvY9TT0FiMeHLr7h19ATqejkyXy9C//MvnPv2bZTql1APQWLxzTff5NSpU4+sggDbTp068cUXX/xjEouCjXVpk0cWvpEXNEgsCkJD2s75D6p+CQI0QnsIql+Nea6g+tWyZcsnllgU+naDlq6uLzihLwk2E8r7NFTShDIIv4a8dLFDw7gU/hTaTNey69o17rWLLuXRNd9nfV2DxKJgk/skFhtkDnXxLv9cyKcRRtAuM3qEnJ9Q+Hs928aC/Yk924SEPyQWG1S/PngfV0Fi8TE825deeqlREosLFy78Rzzbhi3UurTJ0+6wDae7NkgsPu38H5afUGcBsoLEYmM92waJxSdR/WrwggRwNsarF+6rrKzUQk6470lhJHhiwou24cQFXfJr+LIV+suzOqmh4av7aYP8Wfave9tUYJv2BaZWqzUNn41NMduHm/+R2gg6ttwTr0bQ8TlPclmTxKJuk0BPS2KxYWAKUBGgqasw/tOGbdNR5k8yau6/t2mCrPqONsLjxGybYPv0OuLDcvpfnSBrgu3D+5bQJ4SXgHY5oL5uL8Fn31Mf/YQm2DbB9tG9hD/p2f5DcVOhYE2wbfJs/9xB/2dgq1bUUpxzlSsZOdQZWuMRGIyvrfF9upEPj9lqUFQUcj09lWu3azB18iI4yAcLyR/C3I8vsXjnWJzfk1pJTWEuyanp3K6T4OATSLCXPQb3gOLhJzVoEDYjFFxPJ+V6ASozR/wDA3C1NLpPgFxXz1ZTW0Hu1RRSsosRW7vi5++Dk5DX3cL+E2EEjbKWouyrpGTkUG1ojU9gIO62ZtoF7bqkxwsjaFBUlZCdkUr6zQqMHD0J8PfB3lSs8yz2Y8NWu9Ejn9SUNPJrRNh4+OPv4YCZge6e0JNKLD4oZqtR1lOUlUbKtZtUSWzwDfTDy8Fcu7nl3vRMPVtlHUXCGE7Pol5qg3tAIB62MgwfoK37rMMIytpSbqalkHarArGVK80CfbE1/Xth9f8N2GrUVOUlc+zQUdLLlIhE+oisWzBiRAdcBK3Qu+nBsNWgUdVz/dwRos4mUS0yALEUp66jGBJgjfTuqQ8Pg61GWUdVZSVKPVMsLf7QlX3wsTga5JW3SDh6mFNpBSCRIJa50mb4EFpZSn7XtH0obNVKyq5eJOpoDNer9BHpabAK7s6oHs0xFf9BJ51gq67ndsoFIiNPc1PfGIlCD8eWnejZMZQG7fRnDlthycnNJI4dOUlsgRITAzVijzYM6toKNwvdNjM+FmyV1WTHx3A4OpFasYg6pSk+4RH0bOeLTEfl/seFraLyNqnRhzmeXohSraLWxIHOPfvS2Vv3QxifOmwFIZ3CaxzdG0l6pQJ1tQKr4PZ079URd+P7TwL5e9hqqKuvpFqlxFhqjpHoD1Q/OmarpjonhZNHT5BcAfryatSebRjcte0DxdefNWwL44+w40gctXpQhxE+bXvRM0zYKPFwta5nD1s1ankVBQVVGFhZYWkifSqngDQujKBWcvPSYfYllBLarTdO5YlEHorFc8LzdHf949jmB8NWqEAhJ3cdJhMX+nb35MbpY+wvbcaro8O0e7GF9DDYKipzSYqLp9IgiC5tPX4H+wNhq1ZSlRPHb0diMfDtQjfnaqKjL5DtN5wZ4Ta/g/1hsFUrasg4eYjorFpa9u2JUcYJTqbq0WnSYJoZG/xueJ1gW1tA3IlIYm7ZMGhgK6ovH+FkoRGde/elma3h73V+7JMadDiDTKNWkHs2iuOphTh3H4BX6UUOxRTSfEBv2nra/cWrepCn+ziwVVfc4vyxQySofRjczZcs4e+1FkQM6o+fTDcP8/Fgq6E87wrH9sZAcCfausg5fDAGQ7/ujOjWTOftm08dtopKCpNPsutSHS06t8e94BT7MsG94wC6epncJ2z/97BVkpufRHx1FX6uYfga/nFY6SNhq6kj8/wJTiWUEtC/D/YFp9kQXUKXPn1oH2D3F6g8CLbK4mzORe1j/8V0KhUa9AzNCIkYwqDOIdjJDLRjWGg3YXz9/WoEBXE7N3Bc4cKALr4UnTtJQrUt3ft3wsfi/lNV7u2Tzxq2ypoirkZu4Yzcn47d2uNjY/zPw1ajUpIZvZPIbDXt+w7HpTiWIwcOIe7zEsODzP/es9WoUFVnc2BPNOVmQQzu5crV6OPsTDBl5vM9cDP5AzzCSojfxcMFLYX6aorz0jh37iKVhi3o0y0ImcwYA7E+ygcd+KiSU55xmu0x6diHDaK/UxlHj58kxrg7b/Txwujup+SDYatBJS8n7vBB4ooN6TKqD5LEaI5dKMB7/Gg6WEppOHpNJ9iWZ3P26EHOqoKZ0SeYiqQj7E6T07Z7f1q5yf4h2FaTeuQQ53MUNB8xGOe8OA4dvoJ9n75093fR6biTx4GtvDiH05H7uW7TjmEdArkVvYMTeSLaDhhOCzvddEYfF7bF18+z/0AyDu270s5DqdWKrXVoxaCB4Qh7InVZjP/UYVtbSt6lA+zINqd7l474V8Sw5kIpliG9GRRqe18o7sGw1SCXl5OQfZzfrp3hUk0dvk6dGObThTArO4z17gjR/+3SL1UVSaeOcC5Tj05Du2NVEseGHSkE9e5N51B37ozCP9KDYKuR11JaVEBBWRXa4/r0xZhZO+BgZYaB+I4+86NhK2yLKOfkuh2kWQXSNyKQiuijRAv9Y1B3Qm3NHgq4ZwVbjVoNagU3zh9i09FMQvsNokuIJ6ZP6ZinRnm2Wtie3EFkjoYOfYfjXBzL0QMHEfV+mRHBusF2/+5oKiyCGdLTRQvbXfHGzJzdC5eHwBZ5BTcvH+bXLfuJSb6OQupKWEQfxo8eQLCLJeqHwLYyPYadpzOwbnUXtsdOcsqoG2/29dYBtmXEHTpEXIkhXUb3QZJwiuMXbuE5fjQdGw3bLM4fPcgZdXNm9A6m4spRdqXW07ZbP1q539kK/azDCBp1FSlHDnMhR0nIiEE458VrYWvXp88zha2iKIfTUb+RadP+Lmx3cuKm3h3Y2j9b2Bbdha1T+6609VQRuS2KOocwBg5so4WtLulZwLbg0gG2ZVvQrUsHAipPs/p8CVY6w1bbW1CqaknPvsC5qgqae3Yk1MQCsd6dMITusBXReWh3LEti2bgjheDevekU6v6XY6oeCFulnOqKMspr6lFpNOjp6WsPj7QwNdYesqg7bMs4sW4n6VaB9IsIpDz6GNF5erQd2J0WdmYPfSE+E9hq5JTkF1Ccm8jJc5mIgroyoH0AdsKxM08pNQq2qJXkX47kt/higiN641CaQGRkIj6TZtFNlzBCfRHRew6RqXGkV4QXWaePcagqhJdHtsT6bqX+GkYAtVJBVdFVzp89R7lhGP27Bd459VWk92DPVjhoMTeeA5Gx6Ht3JMKlmphTF7kZOIJpYTqGEaIPcfJ6NS369MQoPZqYDAldJ/bH16SxYYTbxEdHEXPTkn4DWlETF0V0sQkRvfoReDdo++xhq+DmuSiOJhfg2LU/PqWxHD5bSouBPWjtYfvMwgiailtcOn6IWKUXgyJ8uX48ksQ6K7oN6Yuv6bMOI6RwYm80qqD2tHGSE3XoLNLAHgzvGvh/G0ZIPcWuCzWEdmqL260Y9mfp4dlpAF08jNG/Z/L278MIKgqKr5FRW4u7nT+uBn/E3R8JW00d1y+c5FRCET59++KQd4rNZ8rp0q8P7fx0CyOoyvKIjznK0cQb1CjUYCgjoE1PeoQHYG1yRzL00Z6tQDA5cbs2cqTWkYFdfCk+f5ordQ706NceTwvjfxa28kLO797Isi1ncegzlqkj++Jp3tgTkP+eyo2DrUZDdX4Sxw4dJ61Ujr6ePti2ZuTwtjpMkIFGLSfrXCSHziRQqWeMvtgI9x6j6e9n/sgJMlVtCTnZ2dSJXQi4Z5LjoRNkVQUkHo3kZGo+KokEQ3M3Og8dTHMdJ8hKMy9w+MgpsiqF7YZ6WIf0YFTX4MZPkGnquZ16kajDp8kWGSFR6uHWsjM9O4RgeXd38bOGLULnz08k6shx4vPVmBqoMfBsz4CIMNws/vzh+OAO8zhhBJQ15CSc4vDJRGr0oU5lgXebbvRq54lMp1NlH3/pl7KykLSYg0SlFqJQalDKnOnSuzcdPK109lOeumeLMEF2nWN7D5NaIUdRrcCheQd69OqIi9H9OgPPbjWChprcZE4cO0pimQhxfR363m0Z1DUcL8u/9oVnPUF2OzGSrZGxKBBRLzLGp10fevx/7L0JVCdb6YwAACAASURBVFVZmuf7Y55nZBBwQhEFcUBEUBQFFQQMjSkzMiMyIiqzu6uyK7OqemVVVr/XXWN3VXa+1TWt9Vb3e939uqacIsMpNGSeZwEBBWRUUBSZ4V6GO9+39oUroMA998LFqEzuWq6Itdjn7H328D/f+fb3/fah7W9gg0zNSFcjZS2jbIuJ5XC4tL0MyZNp/qtjdnbWkJEnMsgM6eerZZDpNLNM9PfQ0tWP0nku9GuXr4uBNWr8rRb6pZKP0NfdSc/QLJ7BO4nevxMP+/UP/dLrNMyOPqO9o5tBhQNbwyOJ2rEFezNCv4b6uujoHULrtZW9kXsI8XJZ8raV5LMVrAiFjGePOmh/MoaDCP2KCCfYy+nlvawutmKgtSJk7xHtXU+ZdfEjPDKSMD8PSf5aMa4Wia2BXTzO0+52Op7LcA8OZ2/ELra4SrNqRb2W+WxFp2tQTLygo72LgRk7tuyMICJsCx5fgdCv0addtD96jtzBzzCvdi7zyWw9sQU0CkafPaKtsw+F8xZ2Re5lm587Dm8i9EsxwUBnO52DcsPaEPPD320z9EuyiK8HG8H803VfibOV0NqV42wlXAxIFVtTd9sIsTXVBlN/t0xsTd3V9N8tFlvTtzZZYv0tW5NVvixgVbGV3gxDppYYAyOfQSobQZobwYyGLCpqFZ+tZU0x66oV3QiC+CU+0S0B0Yj8cNEh4mcuYtHYICNicbXBFWXfKIhmHrH4oqDYQP1y3RtO3B//EdsyM82mfonQLwGiMQexuJEgGvH5I8ZVpEhKWXBmzcJVCi9GLG409ctSEI1ALMbFxa0JsWgUW0tANOLFKAAtIuxqraAW8ckr1rI5IBojJlXMF5FotN5oTNEeY7/8S0vXNb6EBHNmCWJRhJCYiy0U68aISRSL0tzrxSQTHSn+KwV7KMRWlBcDKhXWYVzbxpeCuM7cdop7TLS2cv/H/xcvisvQK1W479nFoR/+AVvTLphN/ers7OSHP/whlZWVJnXKiFj8i7/4CyIjI02WX48Coo/FuIp+2kixFeNrRPxt9MIStK+qqiqEhStVtMS8NSIW/fz8LO56cR8j1lKsA6n1iwrFC0qMkZjXax0r4/oS95Iqmmtpu5QOE20Sc3E9nk9KfetZRoyNaLevr+8C9Wstlu1a3QjCihKLW6i/tS1b8ZyWgmgEPLxBwMPzS9AplbgJy9ZCxGJ7ezvf+973vrKWrYh9FuP6JixbYQ1sNGJRLDAhskbEolShES+G9UQsCsE159mF0Bkt2/VALFrqRjB+CW0iFhekevFXu5eXl+kNMikqv1axXZLUYAJ6snw0gpRWYnBBrEVsN3220vp5LaU2fbabIJpX58+vnM92k2drWiI2xdZ0H621xKbYbortr63YipAqhXyC0Qk5GlsXPP388HERvqGFLlnNstWpZpgcH2dyVo2Dmxd+ft4G2pDx8teTGlZPrFzRstXrUM9OMTY2zozWFjcvX/y93JZQu1a1bOevn5iYAndffNydWcSgMTysZLHVqJBPjDEqn8XO2QMfX2/cnBbIVxsRjaDXa1DIJhibkKO2c8bb1w8PF+lB25ZGI+jUCmTjY0xMq7B388TXxxtXM9If1yK2eq0K+fg401p7vPx9cLFbCnsx9SKwRjSCXqdFIRtnbHIKta0YBx+83BbCAI1tsm40gh6tYpqx4Un07p74+HismOhhqRtBcjSCXot6RsaYTIm9hw/ebk5LGBHLjdGvjWWrHO/jbvZVPstrYMJtJwlvfciHyXuWoOtWFFu9hpG2Sm7+8iol3eP4HUjmvU8/4NgW15fxniuKrV5nyBbT24iNsIU4zZXEVquYpLc6l59cvUO73I3olMt8/P5Zgp0ExWtuCFdDLIr40J6qHH52vQKHC7/Jt88dIMh1qfBLE1stM08fkvfLn3Kt4Qlu22NJf+8dzh3chst8bLL1xVaPZrKf6i+v8ovcOiY8d5B85RtcTojE30VazKtFYqtXM9rdwJe//Jz8B4N47k/iyntvc3qvv+T4XkvFVsB3pgYecvsffkbdVBBXfvBtjvm6v5b7v5rgrr/Y6lFPDlJ98ydcK7nHsMNOUt97j7fPxOBpt1FJDYB6hidNBfy/f3MTx5QrfPRJJtttWZZFYG2x1cgH6Si5yT/ldRLy1nf4KCkSU3k21hdbPcKoVCq12Do64rg4icDUG3qVv5uXQabTMtRSzK2ap+w4doLAqU5KK59x9JOPiA9cIA+tSP1ST1L7ZTYt056cPLaDZ41VVNkl8v2MyJcZIyuJrWZmmEfdnczY7eJQVPDLR1pWbPVapl88pCC3itmggxwLVtFQ/5CZY+/z9f1eOM3j/VYUW70O5egTmu7WU13fhl3C27x3IsoysVWN0lpZSFmXLQnnYlE2l9OsDODMhVT2eM/lXVtdbPVahu4VU9D0BLfDyYTPNFPaqiXh4lkOhflKIhpZIrb66WEay/K5O+5LysmdPKmqodc2hHNZZ9lmfNOYmLyWiq1OMc1QdwOFpfX0z3pz6tvvc8TnDYutZpqR7lpulb9gR9xhgp7fpWrMg8gzGSRsdVry1bW6ZSsiFWaYFYeiOrnhZLOQUWQyXVcYGeMvaG+tJftGA25xJ0l/77xZYqubHqevs5XWp8OotHps7J0JDj9AVPhWPJzszEjXhZmBDiprWnjQ1o7P6fe4EhfxxsVW4BWHWqpoHPUg4nAMO/zdJKW0m9Jhs8RWgGgeV94kr1dDwvnLbB0TIJp8nDJ+h8uRC3iPZcVWr0U3+4ycG6WMu0eSJahfFSVca/PhN7+TvCKIxhCNoNehGH9EXU0tE05HyDizFxvbuU/C5RGLamRd1Vyt6CDg0EXSQiYpLi6n1usc/+7cDlzmP2NXcyMYOmZ0gNqcG3QGn+KtBAvFVvaU2uJcapSRfJJ2wED9ut2l5fjZdA7P8ySsLbZ63QwdxXnUPlEQdfkSIS8ayctrJzgtjTMRIZKsTEvEVj3WT3VBNt3ecVw5EclA+XUqXtgTn/k2B/2lWdSWiq04a1unnaGvroKqB6OEv5/FYe83LLaKcQYa87j2yJ3kU4lETFbwzw0y/A+ncTHaVwL1a2456/Vqng910D47zY7gA+xyEpmNc19dUsRWlNEqh6j6x+s8DdhD4qUUs8RWKx+hp+UejY9eMKvRYevgQuj+oxyN3I6ns71ZYotOx+zEMAU3riGLTCEj9k2LrZ7h9kquXS3GPT6T84kH8HeVDrtfTXDNFtue0qsU9OtJTH/XgFgsys5Gn/o7vHdAAvVrqo8vv6hgyvsAb50Lpau8hJv3nPmN3zpPmPsKiEW1nOf3S/jF9Vwq2x6hctpG3OlzvH3pHJEhXitSv2QdFVyr7mbL0UtkBI8bEIuljqf54cU9uK6KWFzoLsXoC2qyr9GxFrGd6KO2KJtqDvKdc1HI24q41qbguKB+7ZjrM+uLrZy2gjzq+3UcfC+LkGfN5OY+wO/8BVIjw6wmtqqRp1Tm36Yv4ASXE/YxWHGNkn4bjl18m8NB0mhKFoutoWcVPK4pp+r+yFdDbGfHeFF/h8/7fUkxUL+q+d+1o/gcSOXSoUAJYqtHqRyn4XEeN7qraZxRsHtrEu/uTeG4fxBuUhCL89Nbqxqm8u+v8TRgt9liK8WCk+yzFXHB40PkXb/6hsVWj2JmFq2sl6I7pXS57uOt88fY6bs+LFvjOpfMRhB+jGe1d8hun+Fw6kVCRpvIz60m4L3vkrZrjs0qfitZtlrlIMU3CnnuuJOLZ3fwqKKQW8928r2PjhPgOkdlec2NoNeilI/ypKeF2vp7yJ0OcO7MIYIC/HBzdlie+iX8dX0NfFHUgvv+FFJDZZSW1fAwNJPvJgbjLMGyNSzV9RDb6efcK82nanwb7108iLy5gIJ+e06kpnMgaO7ECeuLrZLHFflUdE+wKy2L7SP3yC/pJyLjHAnhQZI+kSyxbAUdqq4oh1bHA1w6FUF/yW3qJlw5eekS+72tbNl+FcVWNclgSzE3HtgQn5TArrFKPn+oZOuxdM7t8ZQgtmJtqZmceUFzXx11U1Ps33GC4z6heDs6GcZRimUrumYtYqsZ6+deeT4FTT1MG+DhHuxLSOPC8Sj83c2hfs3pxVdCbFUjNOTe4urtKohO5sqVLGKCPV66HE29YKT83SzLFr2WiZ5abuffxzl8L74z/dR1u3LpX2ewz3MB87bSsTg6jYLWwpuUP5llb8QOxrrbeB7xDt85HoDbvACu5LNVyZ7yoLERmeMBziTsfPlsy2+Q6Zgd76PqThGP8Gd3gJbennGCs75JSrAzxs3w1c8gm2G4r4eKnNt0ByZyKekI4UFLz2mStEGmm+ZxfRlF1c/wPx6NbXszI16RnL9wihCXhU8/a57UIKhfU50V3Kp8wNSWaPZoH9EoCyL9wkn2BrpLAmlbIraoJnhYVUhJh5KDRwLpa+plNvAgmRdjCTAS2E3MUkstW0PUzNQQreWl1LSOse2tTBLDgvBzfX3nf6UmrPsGmV7FxLMWcm43Yhu+C49nbTx33sGx9DSiPBc2bo0vYPHsyx9lruHJwAOapqaI3BZLhDknNQhjSK1gcvQRJf/0Bc/8wonLPMcBH3dcHV7/2lh2g0yvNxhUOr1OTC1EKJLIcLMVTF3h9ZOMWATNrJyhp73k3b6NPPw0GScOEurriuMqVDjrbJDN8qj8C/5H7mMOZ7zNleMRkr74pIissYx5Yiuc67Pj9DVXUVTTxrR7GAeTzpGw2xfnRWdKrRz6pWN6oIu6ygoa+qbwjYglNeU4IS72LzcHVotGENk5euywXxSDtVI0gjizbLTnPiXlNfRMu7A3Lonzx/biumiRr3wGmZbJvhbKSgqp6RhAYb+F6LgTpKYfJ9TR7qU4SRJbQb6aGKC5ppSylgGcQ/dz4mQCUSFeL0NcrG3ZGiwZ5QQ9jdWU17Yidw/l6KlkDu8MxE2i6FkktmiZHe6jsaqMms5RvHbHGp49wn/pZtBqE9ZSsVXPjNFTX0xhxT2eTuiwC9tP6plkkqLDkObAmMsgKygoYHx8XPKR2WKOCjZCfHz8smwEQYDruVdOWUMHY05hJCSdID5y62sL21Tol06nxbAaxDmAi16Xpi1bPdODPdSV5VPe0MOUvSe++45zOSWePUFeko7FMSUw5ojtSHs1ecUVtPYOoXYO5nByCqfj9xHs6rixPFv06DQaVBotdvaOOLwa52nqoSX83WyxlXDP5d0IUi5c5QyylS7fzCCLktizaytmmdiurU6DK0ehMPwTacJSU2bXXuvcHawhtlLbZkpsV7qPabGV2oL5T/xN6pd5HbZK6U2xXQMbQZpla3qsNsKyNd2K1Utsiq00H7Mpy1bqOGyK7co9ZR03gtSRsbzcqmJrxByae3vhRhC7buK3FsSiANGY+ok2iroETEYKJWzx/cS1Ii1ZUHgEMMPcnwFE86d/xmC+QCwqcd27m2N/+seEZWWZTf0SPlsBoikpKTHZDBEOl5yczN/+7d8SJeF0XZM3lFBAMCR+nUE0Uoljoo/WC0Qj/KVGn61Uq14s6PUG0Yh2GHm2EqbKS5+tePGIdSW176Tc2/i1I/pFfO2YQ0OTen9rlTO+QI3o2pcnNYjF9SYRi2LSChamqd+bRiw+EIjFolIDz9aAWPzDH1qMWPyDP/gDyYjFEydO8KMf/ejXArEoxli8TDd6YQlfrUBemotY3Lp1K4cPH8bf39/U9F3x72JhCkER/zX32a2FWJTKEza2Xaxhc/GQUjrMiN3caNynlLatVkb0ixEH6+PjsxSxaMS7mVuJcZPLEstWXCMsValWtXh7ivLCOjXXshXXCstWWA2WWLbjDx5w78/+nBeFJegVAh6+i7g/+iNCszKxsZe6DTPXu8Ky/d3f/V2zEIt//dd/zb59+8wdHovKL0YsWnQDCy8Sc1CIhzVQfaaaJODh4ktD/FeqdSYERojtsWPH2LJli6kqVv27pZDsxZbtmhogjmS0sP8XIxal9p3Utor5IERLfDWvldcrtc71KmeMPxaIRaE7q55BJqXSTcTiJYvcCL/9279NcXGxyS4WE+zMmTP83d/93Ya5ETZ9tps+W4M4mECeislrTjSCycm+TIFfSZ+tsPyk+E1f7Y9Nsd0UW0sW0XLXbEYjbCIWX50Xm2K7qEc2xXZTbDfFdvk4W6n9shmNsHJP/ZqIrR7l5AAtFYUU1Xcx4xJEZOIF0o/tkIhY1DLW3UhpUTHNz6fx2BlDcmYaB/1cMcbWr5TUoNdr0ag1IBGxaGCZPmunJC+futntfPD+efYFei4JlF6N+jU7/Ij60iLKWp6h9Qnj2Nk0zkaHLMlskRb6pWN2oJuqglwqukdx3rKbY2fPcjxy68YiFmUDNFcUUVjXxYxrIDFJ5zhzaBc+ztI+jy1zI+hQyQZpLcvmi+Yxos+9zzvHtknVG0M5Sy1bnVLO4MO75BbX0iu3we9AAhdOxRHh5ya5/vWPs9WhkY/QVJJLaXM3k7YBxJ5JITluL5725iEWtVr1fFKDA3aLPu2lxtnqleN01RZRWP2Ap5Nagg4kk37uOLteIVxZG7GISCZQynlYlk1+TSsv5LAt4RwZKccJ83BYQkIzDpz1xVYgFrUoFWoDYtHBfiGRSfLkWaageXG2Oi2jD0u5XvqIHSeSCJa3k1syRPJvfZMjfqYQiyJDQ8bdL2/RJPMkOWE3T+8WUeV+nt+7EI6n09yiX0lsNYox+vt6UdqFsnd3wMtHWT6pQY96VkZXZS4FtffosznAx9+6yIFQH0liq9co6a/NI69lmPDEJDz6KqgcDeK9r6US5OxgXgaZZoKHFfmUtGmIyzyJpq6QZnUQKRfPs9tzDo1n7ThbvV7HRHMR2XV9OB8+S9TsPbIfwpmLZ4l5pU9WmkwWia1ewfPORqpu5VEvd2B/ygd869RCqrWUiWup2E4NdVN5O5eh0GPEBcxQXNHElrhLvBO/U1J6smjbuoutboaRnnpuFfayLTGe4L5qqiY8iTqfRXzAUmFZ3bLVMTbeR79SSZD/TgLs5yBOxrkkoojEptRqZ5BpX7RwLacB5/AYjofKuX2tjYCUNJJjduC2QGxc9ihzvQDCj40wIptBK9J1be1x9/Zni7cHDvY2ZvpstcyOP6H4TiW6yHiOzNTx01YlMacyORvpj/0yabvWFlu9VsnUs3aaHysJ2r+PHf4eL41BKXN2pTJmia1ALPZW3SL3kYr485cIGWuiILsQ96zvc2mvacSidvY5+TdKGHaLIOvcNnoqSrje4c93f+M0W91WANHMv7VVk4+pn0csXkyOMCG2cwKmm53kUVMp1+qUpL9zTqLY6tGq5TwoyKVhEBLfTsOhrZTShkn2f/gOcV7OL9M9JVm28n7uFudRM7uHb6XFIHtQwJePdCScvcih0Dkry+piq5ulqzSPmt4Z9l66RNjgPXLzu9h2MY3Te7ZKSl+1SGyF1aLVMNVdx62yRuz2X+TrJzZCbPWMPblHzu1mfI8lcXyHltwbxahD47mSdgSptu26i61igoHmfG50uZB0KpE94xX8tGmKLbFppO/3kQSi0WhmeDr6kMreWu5Nz7I3LJEzwfvZ7uaJkxnUL3RqFCotNno18r4abhQNsPNMComRIcwjOwxzcznLVjs5SFt9JVXtT5nV6MHBjfDDSZw8uBsfVzMRi2L+63SoFEps7PWMV1zjF48dOXTmAok7PN+I2E48auDO1WzU0ec5n3SYYHeHtWjskhehdOqXVsOriMXC7GxsUn+Hd81FLKaG0lVRwo1GZz79zfNsXwmxqJ1l7PEDSssrqb7/kFnH3Zw4c4LE+MOE+rqhVasNn5oi9Ou1uFy1nN6mEj6rmiXNHLFVjdOYk0fzuDOnv3YBh/vlFN8dYPsHXyPJ1/nlW06S2E70UVOUTc1XBbH4bhZbnzeRl9uC3/k0UiNDJQE3LBPbuXmmeHyXG4X1sC99w8R25FEtX+a0E5qYTPxOLfm/LGA68BCZWfEIsOXqhy3NtXvdxXZ2jIH6bK72+3D2VCL7XiIWz3HpUIBEsZ2md/gBZY9raZieZm/YSc6FxLDL3cu02BoAMlq0Oj02tnaIAwgmeoRbr4yx4DhSko6yzdt5Sd+sDKKZu4/xN3c/M0A0ep3hiHqd3gZbOzts9UqGu5rIya/DLjKB1BNHCHBd/hgj61i2OpQzCtRTA9wtLOLudDBZmUlEBnlJouJJUWOzLFt0Gp5W3Sa7R0Xc+SxCRhspuFOEx+XvkxVhwrJFwMMHyL9ezJDrHi6d20Z3eRHXuoP5/qdJBK5k2YqzsyaGedx9n+q6Jqacokg9c5jQrYF4uKyAWDQ+uaViq56iJT+HeoNlm45DWxnlDTIOfHyZwx7OLztfkthO9VNfnE/11G4+yohh4n4BOb1w/Gwah7ZulGWroLs0j+rH03OW7ZCAh/ewM+M8J/YEW9GyfXNiO/akkbzbjXgfO03CdhU514vRbkvkStphpOYKrrvYKicYbC7keoeTwbINHy/nZw+m2RKbTnqktySxnetRDT1P66mVTxKz6wTRzu6S3AiKyac0fPFzPr83QlhCBl8/bEtl6QNeeOwjPeUoO/3cXzv/azmx1Yz0UplznS9q25Epddi4eHMo5V3eST5MoKejJDeCvLueG5/9lIaJABK+/i5HnF5QW9yIctcxziUcIMzHdWNBNMoh6nO+5OaX5cxGnODyu+9yNMxzCWBLiqCuVsY8sdVrGe+s5k5ZG647I/GZeUZTjw1nP36LGN+FKbwSYlGvmaa54Etqn6mI2BvKeHcHT8LS+U5SGO6OC/7L5Y4yV8n7edDYhNwpmuT4HabdCFoVM2PPaKkp4kaDkrOXznF0307D8TvG/YSVNsjE5trzxmJy7z3Ce3c0zoMPeWIbwZXLJwlYdFCjJLHVyumpK6OkYYSQo3vRdbcw6LablHOn2DbvHLO2G0GcdDH+sIKc2oeogqPZrnrMgzFfUtJOsi9o6abhSpPFIstWr0M1I+NFSwU3S5qwiUjl/TPReHu4M89vNzl/LfXZzo72UZ+XS7djKDs91bR2DbIj8SIXD4VKsmqtYtnqFEw8uU92XhtOu3biPfSQx3ahxKZeIMbXHJ+tHqVqmmmRDuvkgYuttGNxBOJUNvSCQbkKB/0UraVFdKoDiDlxjPAAH/x8ffFwXtqO5cRWr5plYnSIoclpNAYr2QEP30ACfT1wtLeVJLaaGRlDgwPI1A64uelozrlFqzKI4/GH2Bbsj7+vN+6L9kcWTxSrWLa6KTpLv+Dvc7qITLvMlaQY3F/ZtDQ5WU0UME9sxTt1ZpiO0pv8z88KGPOOIeOTf81b0X5LILsrH/ioY+ppM3d++TOu3xti24nL/OYnGWx3dXiJdltpg2yl51iJZ6uQ9VJ59af84y8KaZ+CkEOnePtbv8X7RwJxnA99WI1nq5p8Sn325/zzl3WodyXxwUfvcyrcf4mjXJLYij4b66Xsxk/4x/w2XKNT+eYHl0nY5bPkma3KsxUMU9Uo9/Ov89PPCxn0O8DbH31ESlSoYUJJ+VkktioZj6pv87/+6QblnQM4+uzm9Hsf881Lp9g1vzloqm5LxRbNLGNdtfzkn35B9aAjhzK+wQfnDhHmsbCZZKrudbdsxTgoJrif/xn/fLOcfs8Yvv6N98iM3fHaBoy1Q7+muyr5X//jv5HXOoaNrSM+4UfI+PATLh7chsciF6X1oxGUyF/c43/++X+jpHsYraM9LnuT+fanH3BmXxBOi14kxvGyitiamgzr8HezxVbQgrUaNSrDSbd22Ds64biIZSvatFqcrQip0KhVqDR67OwdcHR8/Y2+nGVrntiKTScdWlGPSoNWbJja2ePwykmZq59BJq5Xo9Zo0dvaGfLTX90ZlSq2wrI0PLNah42hHQ5L7mV1y9bQeWLjb2HcRF/Ym3G0t0Via2CEqlGp1AYLCBtb7B0ccXRY4BebmsMWiy169FotKrUKrc4GOwcHHOyl12sVy3bJOGjQ2Yh55YDDMqe3WltsBVxdpVSh0ekMHmzhc7UXYU6vzAnri61YqxpUs/NtEZ+dtvZz6+2VE4d//cTW1OowIbamLl8fy9ZULfOeL40GAdwRA2sJG0Gy2Er4vLC2ZSutR1YuZZnYrrVWy+Ns116zFTbIzGiUtcVWalM2QmyltuVXVmyNSD1L0nWNcBjROQKDZs7PHLEVZYV1umI0gomKjZatiGQQMYnm/kabmmj4kz9lsKAYnUKJa+Ru4v70T9guEIuOc6FsUn7iOdra2gyIRXPYCAKxGB0dLaWKNZUR7RPzwZi+LSU/fk0VLrp4sWUrlTq1HnWLZxZuhMLCQsbGxiSDy408WwGiCQwMtLgpaxVbQUgTc3qtpDRLxFZ82YpxMyIWpeIhpXaWMXxKaMt6Q26ktsGSciu6EYQlY7T6zL2x6GzhSxWLUliN5v4EaUgqYlEMqCgvBlSIpjk/ca1RqC1p50RrK/d/9F94UVwuAhJxixCIxT80G7Eo2tzR0YFALFZUVJh8BNGvJ0+efCOIRXPJaiYfRsILUbwUxdhu9MISiEUxHoL6JfUFIxaU4NmuB2JRrCExR83FFFoLsWiOaIo2bCIWX5/cQqvEC9DX13cpYlEIkbnwb3F7IzxcTFBzLcbFxCAPj4UTe1dak4stW3OFwAgetxSxOPbgAU3/6T8zWFCCXqnCNWIXsX/0HwnNuGg29au9vZ3f+73fo6yszKQ+iX49deoUf/VXf7VhiEVhTYhxXS0ryWTDLShgRPyJejdabI2IRWHZSq3biFiMi4tbE2JRrAMjStCcZzd+GYoFbYlr7NUhMgLMjRBwKS8d4xq2Fjz8XypicXG/LOHZik0qS6lfRk6sGDgpgrl4gNfiRhBiK2UyGOtbNzfCopMa4v5s041ggaaueMmmG8Ey6temG2E9Z+H63Mv8aAQJ9W5SvzapXxKmiaQilkcjdSZU3wAAIABJREFUSLr9qoWsEfoltVVr9dmaYiNIbYclPtvFX6fWgL7/+oR+GfLdtWhESJSNLXb29q+FRK0a+iVCsjSalymD9iIMaNHIm2PZistWPV13PiVQq7fB3t4O21fAx6uFfol7G8LUNFqws182TEpyNIIIl9Nq0Gh1c+FP9vavZQtZPxrh9XGzs11KmlptAVoejTBfr1aHrZ2DIZzHnN+axNYQpihC/8T4mxf2JdpoHbE1vX4Mc0+vN+wnGM8gk7ofIa6TAqIxjMF8GKcGWwPZ6tX1IYpslNgaQjU1IhzOFnu71cfq10Zs1dMjdJTf5ic3yxnziCT1g4+4dCAQp0XB8aslNUw/fUDe9V+SfX+IgPiLfPJhBjtdHV6mwK6b2Oq1KEYfU/LFTYploXz0QRpRgV6SqF+GeaieZfBBBdfvVGOT8DXePRGBv/NSoZAqttrRJ1Tc/jk/L2nHLfIUl9+9REK475JntrbY6hRjtBbf4udflDHoFUnm175OSnQoHg7SxM9SsdUrx+iouM1Py59zIO0D3ju+3RyttRixCDpUk88ov3qNBpkvKZ++wwEvV8zZrrWG2Ao4UmvhVX6RXcmA234uvf826bE7cXxlGKwutnodelkvuVc/J3d8Gx+/n8GhsNf3SDZGbPVMD7SS+7PbdPhEkXXlLFHebhubrmvWrLSssHluBL2WMZGuW9qG665IfBTPud+l4+wnb3PAZ+FwxpXSdXWaKZrzs7n7XMPevcGM9bTzOOQC/+bUdtzn8zdXElutcoKBZ89Q2QWza7vvy6ddybLVKOT0NZSSX15Ju2Y/n36S+RpOcDWerWKwi6qSMsrv9eCZ8iEfJEUR5GqB2Gpk9NwtpVjkox/dh7a7lRfu4aSknmK7+8YgFtFrmXxYRV71Q2ZDotmhfkTzqDcpF5LYF7z0BbTSNLJIbAVc5HErtXeyKRvUEnXuQz4+tcusmWqpZaublTPQWsGN3BoGCSHtu98g1scd6fljVrBsdQrG+5rIzm/DZVc43oPt9NiFciT1Aof8llpzq4utjknZcwZUSvy9w/C3X3iFSLVsdZoxHlZWU1deTq3jAT55N5P4XQLRs/S3bLquQCyOjzIqn0F8rBkRi37ebjjaSUvXXVyLXjFFR20213OaUIYe5PIH6Rz09XhjYmtALL7ooeOZhoA94YR4u73GjDBrEs8XNktsRdZJX9VtcnoEYjGLkLFGCudBNJl7JIBoFAMUXCtmyG0Pmee2GxCLV7sC+P4nSQSZQCwqJx5RV13DpPNRMs5IQSyCXjlH/fq81hzq11zPiOyjmbEX1ObepCv4FG8lWCi28mfUFedSM7OHjy7GMNlcQPZjSEhJ42DIxoJoqnqn2HvpLbYNNZCb1822jDRO77YyYlEca/+oni9KGrDZMOrXPGJTM01fXSXVLWOEv5/FYe83LLbKCV405XO904Wk0wJEU8HPm6cJiE0nbZ+XJBCNTqdGNvOCpr466qamiNpxgnifULwdnQxfSlLFFrRotfCs6jr/3Kon9cIFju1cWMNGMVlObNXDj6n48pdcrWpDptJh4+xN7Pmv837qUYIkgmiWiJUedOpxWvOKqB114NilMxzweXNiOz3QQenP/pFHYalknUtkm7eTZJ7GaiJsntiuM2Kxs6KEm43OfPKb59mxImJRgex5N3V1tVQ3tjLtvJfTycc5eGAvgV4uVkAsLnSXYvQFNdnX6FiL2BoRi/oYvnM+GnlbEdfaFBw/k07sjjlLQgyCNd0Iep2ctoI86vt1HHwvi63PmsjNbcH//AVSI8N+BRGLRlNilse1FVTdH/lqiO3sGM/r73Ct39dCxKI4CltOx0Ad+Y9qaJiZZW/ISTK2H2W/lx/O5vBs57voWdVV/uG+ziyxFb5eI6rRuFpsbe2wnU/1tWiDTC+jJbuAmmH7NyS2ejQqNcLddq8gm/xnbmS8lUpMmO+6gMON69wsnu3Tqi/IeaQmTsDDR5sozC7C7dL3zIeHpwp4eDE3OrcY4OHBK1m2WgUT/R3U1tZQ09TKtNNeTp1J4MjB/QR5/wsQW3k/dSW5VM9EGODhkw8KuPNYT8KZNA6FzmXXWV9sZ+kqmYOHR17KInSwifyCbralnycpwpqW7dxS3HierVECFDyuKf/qiK1CIBbnLNuTAh4+WcFPmqYIOCIdHj73ZBoe9d+jTi4jemcCUc4LOPTVLFv1zAjdd8upfiTDf+8xko/uQd5w02yx1cqGaG+s4W7nM2Y0emwd3NgRk0BC9E68XR0kUb9mX3RTW1FGz7QXkUknObTNicd5RW9ObNUTtNdWUVFRy4BTGPEXskjcswV3h8Xb95Y4DxauMcuyRRyL01bKjfLH7EhMImiyjZyyUU7/5gcc9ZdwLI56ioY7N2mQuZF0PILnd0up9brA98/tMHksjrluBMMjWsSzXWfLVjNBe1URpS1qjmTEo6kv4oEmmNSLF9jlsTE+W3F+29j9Ir6sf4xLjDgWp4m8h3aczTjDgVBvSZ9IFvls57tyU2znO0InQPj13MrvI+T4UQKfVFI76U102iWO+ZuHWFSoppjSaHFzFojFhXPkVhNbrWaWyRfPGZhU4eITRGigF8O1180WW71qhvHhFwyMT835bO3s8fTfSrCfJ05SEYvTEww+f8aExhmfrcFs8VDTkVP45sRWJ+PBnX/mr3/ZysH3PuaTC3F4OkiP1pEiw+aJLeLAx+c8qCigoL4LhUsw+05cJD1uO57zPFpR6UrRCGLRj3c3UFRYTNNzBT47Y0jJTCPazwX7+RfIShtkwmk9PTWN1tYVL4+FzbgVzyCbeUFrWT63s8tpHtYRHnuCc5lXOLXbG4f58KMVebY6LROPmynKuU1eXSdyl+0knjlP1lsn2GYuzxYdMwNdVBbkUS4OfAzYTeKZsyREbsVp0TNb040giF8a2XMaywspvNuF0iOIA6cucCZmp3UPfNTMMNBWy50v86hoe4pdwD7OXMzgbEIMwa7SLAZLN8hE1ExnTR63c0ppf6HCaX8CVy6eJ+XgDkmwdDGP1z8aYe7Ax8biHIqbe5iwD+B4cgpn4va+xk61djSCXv6ce2VFZBeV0zioYU/MSdLeyiB+dwAui84AtX40gh71zDgNeZ9xJ/8uvVM2BB5N5b2s8xze5ovDhp1BpkMhG2NwQoGbjx9+Hi6SjBApImssY6bYSrv1ZlLDZlKDtJliupSlYmv6zqZLrL/Ymq5z8cK0epythOZYX2wlNOKVIr82cbZSumZTbDfFVso8kVJmU2wtS9fdzCCTMrs2tsyKlq0gfomJbi5IRjTf+Akk/t8SGIYRzyYFgmME0Qhql7nkLiPDYdnDIiWMgwDRNAoQTWEpKFW47d3Fkf/wfxKakWEWiEZUZQmI5r/+1/+6YSAaMSbiJSrG0xz+hIRuXLWIcBOJLCpxmKdUGMxa6zReLwA0JSUlBsSiVFTheoJoxHOL5zdCYKQ+l+CaiPa+dgCq1BssKmfsf8EdkUr9sjaIxtgvGw1FsqD7XrtErCPRP97e3ob5bKPT6fRCbMU/SwZMTDgj5s3c60VDjHg2KUIvJoMoLyaCuXWtlfo13tJC41/8JUPFZQbql3tEOIf//R8ScjHdLLEVzywQiz/4wQ/MQiz++Mc/3jCxNY6J6OONFlsxxmKxvwmxLS8vNyAWzRXb2NjYdaF+iTlqrtiK8CLRXmF8rHWsjOvLKLZS7mdtsRVtEv1iLnpyPcRyLfcwapvow9cQi+KBzKV2icas1Y0gJouoWwq43CiYllinptgIpjp2rLmZhj/7cwYF9UuhxC1yN0f/5I/ZlpVpttiKDbLvf//7BkvK1E8MVnJyMn/zN39DVFSUqeLr8ncjTF4Am6UsuHWpdFFuvvjKkWpZrVfdwmdbVFRksGylCr2Y+4JnK+DhAQEBFjfFKFhCWITRIfXZxXUicsRI/VrrWImXrPgnBN8cPoNYw+LL0Rw8pNTOMvqyxVyU+hKUem9rlls8pkLbXlq2a0EsrlVs1+MMMimdtlaxlcpGMNUWa8fZmqpfyt/XEvol5f4rldn02W76bF+dG5sbZIt6ZFNsNzfI1iKwi6/dFNtNsd0U21VW06bYbortptjGr4sbwaqIRQmDtBn6JaGTJBYxO85WMztBX3M1xbVtTLmEcvBUCol7/HBaxCldTWw1M2M8bqqlskVORPpZ4sP8X6IGRZtXSmoQgfl6/dxTLfZDrciz1SgYffSAsrJqHk07s/toEinHI3FbdDzyym4EPSr5IJ31VZQ1PUbjt5vE06c4vM1nCf1HmhtBj3byBferSylreYZLSBTxSceJCvV+GVy/EW4EnXKSR43VlNa2InMLJfbUaWJ3BeK2CI252pyxzI2gY3a4j8aqcmo6R/EMP8zJk/FEbHFhmVj1Zau33LLVoZINc7+sjM5ZT2LTkwl3d5Kc0CAaY5U4W52aySctlFa3otx6kLPH9uLn8jr40VRSgx69WBJiMSwJvpcCotErJgxrsOTufeRuYcQkneborkA8jJlFi0bC2mKrU00z2llPceNzfA4nkxgZjJv96uq1MW4EwX/QG7RmrX5v49OYJ7YC1ddzly8Lm7ALC8dLOUhbrwsZ385kr6cpxOIcjHvoQSk3c/K53+fC2X/7LS5FLc3oWUlstSo5o0NDqG39Cdm6gIJbXmx1zI71UpVTyGOdLzv9bOh7IiMw4wPOb3XCmO68othq1Qw1l5JztwvnsAhcxjrod47ma2+dwHceBSk6UJLY6qZ4XFdKUW0/fof2Q89Dxv0iOZeaROg8stHqYqvXMdVZTU5FCxN+e9mh7aV1Joi08yeICFyZrrR4ylsktspJ2muKKGmfZu+BAAbanqINiiEt7ShbJIq8pWKrm5nkaUM+P8u+y7jzLi5970OOvmnEInoUEwPU3fk5t5pe4B11gY+vJBLi6fKauqwutjqmpoYZ0ajw9gjC227hoFPTYqtltKOOoor7aLYfxGekmXuKYDIvnCEm+PWTsJcVWwMMX41GO2/9CMqiAOzb2xmE3xwQjfxRLde/qKCtf5TwS5/wXnwE3iY4mFYXW70W9dQgPY8mcNu2ja3e7m8Gsfi09g532mc4mprO1vFmCnKqCHj335K2awE8vDI8XI9yeoxnXQ8oyW4h8HIWF/ZvX2JtrCS2qsk+GuvrkTkd4tzJ8JeTc1mx1amR9wqsXwse+1NJDZFTWlrNw9AsvnsiCOd5tV1JbHXqKdqKc6l9riEu6zzO7aWUNis48q0rHHKfQ9lJFtvp5zSU5FM1EcbXLh5C1lRAQb89J1LTORA8t8isLbZ6nZLHFflUdE+wKz2L7SMN5JY8Yc/FNE6EB0my9iwRW+3EADVF2Tx0jObyqQielt6mbsKNk1mX2O+9KCd0FUPGUrEViEzl1DDttTU09kyz74O33jxiUUTqaNTMDnZSUlpDL+Fczow3S2x1Og1yxTBtT+/ROD1NRFg8sd7BeDo4SkMs6mborCmh6uE0B7POEzB4l58UPOP4hQsk7g9+bS4sJ7aasX4aSrLJudfDlFqLrZMnUSczuJgYjb+7o1liq1VMM/S8n/L8PFTRF8g8+ubFdma4h9ovrvLI9zgpZ46x3dt5XVJ3zbJs9WtBLL60pVWM9bWS81k1XpkZpsVWr0ExOcLjzvvUNDQy5RRN6plDhAQH4uHigEatfnkc+cs4W62KyY4KPq/uJij2EhlbxykqKaPU6TQ/TN+D67x1urzY6tGqxmnMyaN53JnTX7uAw/0Kiu8+Z/sHXyPJ1/klck2SZTvRR3VRNjUc5F+di/oKIBYzCXl2n9zcB/hZGbGoGnlKVf5tegNOcDlhH4MV1yjpt+HYxbc5HGTiW3F+vlgqtnOXf8WoX8Y1MP2UsvwS2hRhZF00R2z1KFXj1PfkcqO7mnuzs+wOTuL9yFTi/YNxl4JY1Mh5UFFIba89yZfP4D3WzM+uthB57jxJh3aw8H0619iV3AhCOMQ/42/x57Y5lq2hjvEh8q5fRRaZQkbsmxJbYa3rQD1NW9ENftasIfP9TOJ2BUhCkK7u+Jj7q9li21dxk9w+DfEXLhM6KuDh+Thl/A6X95mCh883R2+m2GpmGO1ppKC4jKr7Hcw6hZOYnMTpk3Fs83dHt6zYqpH3VHO9vAO/QxdJC5mkqKScu16p/LvUnbisatkKsZXRnJ9L47AdJ99Nw6GlnLL6USI+fIdjXmaKreypAR5erdzHJ2nRTLYUcqtLQ8LZixwO2yjE4gwdwlLvUxJ15RKhA03k5bcTknaB0xEhknidlli26rF+agru0O1zjMuJkQyUXad80J7jGW9zcIt1LdtfTbGdX7So6XlST61cxoFdiRxwWXAFmXQj6KZprSyktktHwpVU/EYa+MnNTg6fT+NETBgLDomVxVY7NUZv+30e9A6iEK4EexdCIw5ycE8YHs52Zlm2Xxmx1cjpaW7ifkMdndOu7Eu+yOmoULwWAbakCOpqZcwSW4FYHG4p5nZNP9vjTxA42U5R1XPiPv2Q44ELTM3VNsh0mhmGHj0g95e1eGWkcz46HBd725dm+spuhF4aau8y6XyYtFN7Vncj6LVMv2ijILeWmcAY4kNmaahrRxH/Nd7f5/VyM29F6pdGQW9NPgUPh9mTeBKXx7XcG/bn4gepbHN2eNlWSZataoy2qiLKOm2IP3cY1f1y7isDOHP+HLu956w7a7sR0GsYaiwmr+kJ7oeS2TP9gJJWHYkZyRwM811y4OZKk8USsWV6mKayPO6O+5Nycge9FdU8sgvjfNYZtluZ+mU4zFArp7u6nOr7o+x8N5Oj/t642UmjjYl+sMYGmeFgw8nHlOSV8lARSmZGAtt8hU9w6ZFLpny2k/IhBtUq/DyD8bM3w2erV9PfVEFZQx9bklIIel7N7XZxUsN5ju7yee1zeTnLVjs9Ru/D+9zvHUSp1WNj70JIxCEO7gnBw9neLLEVX8tTwwPkf3Ed2Z6zZBzbh5+rOHxyZdmyis9WM0bTlz/j//5lM3ve+iYfZ51ki9Pq7TBXfM0TW4FYHO+jLucan+XfY8pjF/FZH/G1U7vwXrRxtOIZZFol7aVX+dk//4TixiGcohI4986n/JuLMfg4LQjPckkNC4hFN7w8FjzoK0UjaGcneVybw0+v5/Fwyo2YM2/x6bvJBDjbvRSX1c4gmx58SMkXV7lV2Yk2OJoL736drCPbcVo0CySJrUAs9reS+/kvuNH4DNdth8l85wopMWE4byBiUS17QtWX17iae48pn50kXf46Wcci8HeR9jlvkdjq1Yx11/Pl1asUtA7isy+ZrHeukBTh+9oBhytNXEvdCErZAM15P+Mffv4lzf0qnA6n8u0PxcGdkZIPfVx/sVUhH3rIl//z/+Pn+Q08VbsSd+kjvvP1KxwJc1tyuq2paISV+sukZQtoJ55QnXOdXxQ0MO22g4S33udyQiRblpkL1o5GeF57i//9088pqH+IwjOKi9/6mG9kHmeXx8p+UquILTqUsjFeTChx9/HDd5X6zRVZY3kzxVZEFGgM3Meh0Uk09q54bwnAx2Up+Hhlnq1gRo4yPDzClEKHjZMrHr5bCPJxe3kc+sqhX8s/4oqhX3od6hkZw6NjTKvt8PD1J8BbTOiF+6yWQWYQ94kxhsen0Tt74Ofvh6ez/ZI3vzSxBb1GiWx8hJHJWWxdvPD398Fj/uWyIZatwXrWMDs5xsioDLWDCz7+W/BycZS8y2qR2IoNIdUsk2MjjMqVOLr74Ofvg5sZ9HtLxVanVTEt+nxsglk14OxuYBX4e0rnlK6/2OrRqmcYGxxiTDaLBhtcvPwI8PfD3WmpW8WaYotOw4xsnOHRCTT2bvj4++Hl6rTsXLC22KrkYwyOjDI1q0Jn44SX/xb8fT1wXuULxDpia6mESr/ObLGVcuvNpIbNpAYp80RKGUvFVsq9TZVZf7E1VePC360qttKbseIGmSnfpBg3I0RHKtdBarN+5cRWgEdE9ooUzOGrnSTEVnSI+Ekhdy2+3kgMEwNlCnoiJqQRsWgpiEa4LMS1lqAgx+7fp+HP/xNDhSXoFQKxGM7RP/qPhGZcxMbx9UD11T79BGLxd3/3dyktLTU558TO7+nTpxGIxY0A0RgXvgCLiPmwXkHeJh8UDHNQWFdiHgnoyEbVLZ5Z0L6MiEWpIBrRRwJEExcXt+YMMvHcRsSiVMEyfhmKfloPHKax/0Wkj2iDlP43WnCiL0QbpLZdynwQZYz9YpwTUq970+WM60honJeX1xyIRqvV6oUICcEVGDNzf2tFLIoBNhKDTNVtFFtLEYvipWDJtaJdArHY9KP/wmDRHM/Wfc8uDv8f/56t6WlmU78EYvH3f//3JSMWk5KS+NGPfvRrgVgUYyxwgVIFz9Sckfp3QfuqqKgwbJRJpUuJBbV161aOHDmyZsSiWAfi2c1l+QrilhBFsXaliONq/WFkxxoRl1LuZxRbI/94vcftXzJiUfTnsohF8VBSMIevDpYQSjHg4iesU3N+YoCMeDaBd1xtcI2WrShvtGylTAZje8TzGS1bcy1wcQ/hs733p3/GYEGJAbHoGhlO3B//MWFZmdiaYdmKZzYiFs2xbAViMTo62pzutais6OfFiEWpwmNRZa9cZPQZCovaYAm8smu/HnUsdw/xzEJki4uLDRauVOvMaNkKxGJgYKDFzTNaQUbL1hy8oVwuf4lYXOtYGT/ZjZhHKf2/eA2bg4eU2llGxKJxTki97k2XWzymm4hFM0dD6gaZqdtaPfTLVAMk/N3SDTIJt161yKbPdpP69eoE+ZXz2W7ybE3LxKbYmu6jtZbYFNtNsd0U21VW0WY0wmY0wlpF1nj9pthuiu2vrdhqVVMMdt2ntrGLaZcg9h1L4GCIx8s4WdExq4mtoHe96GihqXuabYlHiQr0XpLBtG5xtlo18udd1NU38XTGie0H4kiIDluSlLDqSQ1aNbJn3TQ+6MEmPI7Y8EDcXslllGrZ6qbH6G6uo67zBY5BERyOjWHXFreXz70RbgS9eprnHfepa+5E5hJMTFwckVt9cJaWNWs4akX4I4WvSYrf7uUCUc/woruZu92ThETFEbvLzywdtlhstWpmhnppqL/HY7ktQftjid23Db9F8c2mGmKV0C+9lpnBHhru96Dw38OxqB14LdMm64Z+6ZgZekxdxQP0O/Zz6HAEXjYsC1uxepyt7Dmd9Xdp6h3HJmAXcceOsNPfHYdVUsg2wo2gU8/SUVtB17QWewcPAkN2EBku8I/SMxBfnV9mxtnqkPeJvPpqRh08cdHOMKrZxqVvnGWX+0LUwsrULx2j7dVkZ+dQ3WnPmd/+mMvR0hCLOvUMk+NjqG28CdiysOm2EmJRMdFPfUEBD4a0eLnbIlO6su/SO5zY4oixv1bLIFMMdVOVl0dBbQ++F7/Nh8lRBM0jEY2dKElsdbM8u19FYUkLquBg7EbHcAg/QurpOIKc5zIsrC62ej0zj++RX1pLr9YHf9txxt32kZ4Szy5/V0lEI8vEVsnIoxYqbt6k4JmO2MxP+TR5gdhmSuzE3y0VW+Xkc1qK87g7DO4OKl7M2nPkTAYpkdI3rdZfbAUneYTm/M+4Vv0It/3pfPLOCUItQCzOzE4woVHj6eaHu+1CFqCkDLLRfhqqc/j5L+4ReD6L97+ZznZblk3bXgmxqNNq0eh0L4dQIBbtDKF55iEWn1Te4Gp1H1v83Bkbm8RdZBmejmaL28qhk6bFVo9epzOAZUQLbW0F+lEHNrZzWXp6HTq9AQVsMAwFT8fGxhY7Wxt04m9aLaqpfm7/72uMbAtG1S/DOzyW9HOH8ZtHg4rytjZ69PP3FNeI/xfaohUcXNv5uhZNcvPEVqfhaV0Od1rlHElJY+vEffJza9j6/nc5v0MaYlEhG6avo5myvHaC375EmlTEouwJzQ33kDnFkJK4a8FwWg5EIzB0ffe4XXwf18hkzoZMUVZWQ/eOy/ybhECc5ztsZbHVo1VM8eLJY2pLihgMT+VKooViOzNAY0k+laNbeSfjMPLGAooGnDh5Lo3owDnGkrXFVq9X01eZR1nXGNvPZbJzrIHc0udEZlwgYVeg1RCLoEU5I2foQQ259Z24Hczig5M7pWjsyzKWia2eiWcPKLxVi8OhkxwPU5H3ZQV24ad4J+XAG0zXFYhFFbJnbZSW1dFvt8dsxKJgK2i0s/Q8a6Jpeoq92+KIcvXGQQjd/FwS0QgicmOlo761ihkmRh9T/os8Jncc4NTlVLPEVjPSS1XuTb64245cpcPG2YuDZ97h7eTDBHqah1icHXnBoMIOf2cZdwtK6bTZzcX0OMJWyfQzJbba2XGeVGVzo6KFfoUbkScT2SZ/wviWfSQe3YvqYS33nmrYEaKhpbaJzoEp/PYlkXnEn5Z7d7nfPYabs5yme0/wj4/FV+dK2L7DJIROU150l8ejSgLFV5rTKCN++4mODKUj7zpDW47y/h4VpT1adsbEsS/Uc8kXv1liK6ARj8qukf9UT2L624SMNFKUk4vtue/zTvQC0HtVn62B+tVCzmc1EhGLWlTTEzzrbaO2rgG5Uwznz8QYUl5dHe1XRix2VnK1qouA2Cwyt05QWFxOuUsyf5AWbgKxOL/O9Xpmx15Qm32djuBTvJVgodhOCsRiDrW6A3znfDTy1iKuPVRw/OxFYrfPkdKsLra6KR4W5lL3VEvMu1lsfd5MXm4LW86nkRIZKgkhZ5lla3g6FI/ruFFYD/vS+fqJjRHbkcd3uZPdxtbEZOJ3aMn/vJDpoMNkZR7DW6Lcr79lO1/xGhCLKtUEjb2FfNFTTcOMgoitSbyzJ5k4v0BcpSAW55ugVQ1R+ffXeRqwm8RLKWaJLVo1s9Ny5Ar13GkGtnY4ubrj4epssA6NLhBJGWR6cSKCisGWKvJruvE4mELKoe14ruLfMiW2st4a/uEfawhOOsFum37KH47OkdiAAAAgAElEQVTiZTvDc8I4G78XZVcl7bOOqJ4PgP829u7woqu5DbfAQPrbunCNTuDicW8qrtbglhDFTMsTNN5e2D/pQbX3BCdDoa62CSf1BC/cIjkUvYX7twpRBEeRFCqnVbud+FNn2e/vsISoZ7bY9pZfJ++JjuMXrhA61kjBnTwc0n6Ht6OshFhUy3nRUs7VWwVUtnajdNpB3OkU3so4Q0Sw18qIxe4qblR04ns4g4shkxSWlFHtlsIPLgjE4pyj0tTpuorRF9RkX1uj2D7hbnEONeooPr1wAFlrETc7VMSfTSd229zXgPXFdpr2ojzuPlER/c4lQp43kZ/bRmB6GmciQqwstqB4fHfjxba3juw7rQQdP038Tg35nxeh3HqUSxlHkRr5/dUT27mXl06vovslYvEEMS4eLyE2UtwI4i5a1TCVf3/NIrHVKacYfvaUpyOTqIXY2jniE7SNbUF+BnypOWKr18wy1ttCTmEdiq2HSD9zlCB3x1VJdKbEdrz5C/7yyyGyrmRw1LGXf8prwj3ID9mjMTx3BKAZHsAn2Id7JWX0zTgQHOCB3tmfmPAAHvVPsOfYKTJi7Ljzk3JcEqIYr+9gxknNUOcUkZcukbbXjuIbBUw42iAf1hMUpKH3kR5PT5id0eIdFUfquRMEOix1zZgltgJgMdhUyK2GQSJPpRA80UJeYQfRn/wGSVsXprBpy9YMePh8ELty4hF11TVMOh8l40zE6m4EvYap5y3k5taj3x5PUtg0VZVNjB58n48O+phELBpvvi5iqxzhQXkhFb1upGTGMnuvkBqZN8nnL7DXd27Hzepiq9cwUFdAwYMBtpy4wJ7JJvLrpziaeZbY7f7WQyzOd+TGiy3IBtopu13CbEQ8x4JUFBXW4XbgPG8nRUhym4imfzXFVrRMx+jEU/qUCoJ9dxDssLBfshFiK87Ua6uvpOLhU2Y1Omwc3Ak/nETSoT34uJqHWJQ9vkdOdjkzO+NJOXmIEA9nk/PRlNhOtOfztz/vJOFKJrH2j7he1onfoeP4tOVRNCRH7xLDe6f8Kcmtw/fIWbKSo1AMD6GT9/JZUTs7Dp7gQjTcNoptQwczLvZMdw+w5WwW6XtsKckuQxEWhfvDBtqHenHZf4ItMx3kt7tyMTONrOT9BnfVYlKkeWKL3nCkR2VBIQ29o+gc3fHZfZoraTEELsKzrUz9UvGspYri3DsUVz/BJfYkKSnpXDiyA7d5a3OlaAStUsbw4CBKuy1sD1n4EFx+g0yPenqE9ooiCu91IsMJv7Aozl26QLiH/Uu60YqWrU6LrP8hlUV5ZJfWM+Sxj/PnLnDhQixbHefOWRI/SRtkehXjPfcpyi2hRa7FydGb/QnJJMftxXN+X8PaYmv4lB/qpLyokJqucRxcXAg4kEx6YjTBHtIYDha5ETQKhnqaKM7JJqe+C/vQODIvpXPi8F785zcHTX3RW+azBcPBoncLyG3oYVxpi1PwXlJSzxAbtuDuMlX3+outOHWkn/qcO9wqrqNP7U1iWhYZyYns8nc2bNgYf9aLRtAzPdxLY0UOt66XMegeQsTZDN5LiiU80PM1obNuNIKGlhv/nb+7fg/P7bsJ9g8kPPY4x2P3EOjsuOLGrSmxVY4/purGHZonlWg1apyCo0lOTsDn0S3++7V67OI/5Dup2xipzKascxSViwtuPmEc3+tO1b0+dkQfJ2W/DTmfVeF8LJKJxm5UPiGE6vpo6pvCXq9B4xZIQup5PO7f4P/J7ST+o7cI7Kvm81Z3rrx/hbSDwa9NLzPFdh6xKB9nZEyOxs7FgETzdrFfgi5c2bLVMzM5isg5n1KIs4tccfcW6ENX6yAWZ+WMjo0zrbHD3duPAC/XJRN6tQ0y9aycsdERJmaU6HDE3csX/wBvXMzm2YLANcrHxxiVzWLn4omvr88SpJ71xdaIWJxgdFyGxt4FHz8/PF0cJZ9ya5HY6rUopiYYGZ1gSqHGxt4JDx9//L09WIQ/XlXzLBVbseOsUU4zOjLGtMYGV29ffD3ccFx0CvTGi60eEVI0NjTM+JRALNri4uGLv9/S+WD82jGmpYqNLnPTdVfdIFNOMzE6zJh8Fh322Lt5E7jFGzenBTC+sW+sK7Z6pkdfMDgmM/SFjY0Dbj4++HqvEbGoE9EE44xMTqHU2eHm5YuP2HBTyRgZmcbW0xdfd2dslDJGxyaZUmlxcvfB192e6RkVjs6ueDiDbGIGW1cntLNK9PZOuNhrmBibRKHR4+Tuja+PJzaz4wyOq/Dw98ReOY1MYYuntxfuzq9zos0WW1MT1PCRo9MZmAPiZy4bYd3ibCU01JTP1tQtJFm2pm6yAW4ECU0wWcQisTV5V9MFLBZb07c2WWL9LVuTVW6AZSu9DaKkdcXWvLYYS5uybC27q/WvWlFsBXjEiDk0txlGwRTB75YAXgRYRtQtQDSmfkbojXjzm0soE9eK51wLYlGAaF4UlKAXGMC98yCaS1nY2Es7AcH4fAJE873vfU8yYjE5ORkBotm/f7+pLlqXv4uXp3iJmvvyXGvlYrEbEYtSYTBrrdN4vQDQFBUVGb7EpJKrRB+tJ2JRUKLMhbmIF6MA0Fiy9l7tu8WIRanWtbiHcQ2LNkjtO6njJsRWuA9NIVil3m8jyxk5v0LbDGAlnU6nFyIkBu3libVmtEhMODFI4mfu9UKoxbVGPJupahfzbM0VW3HtYmKYqbpe/bsBsfiXP2KwuGwRYvEP2ZqebjZisbOzkx/84AeSEYsnT57kxz/+MZGRkeY226LyQvDE2KwHts+cBogxEgvrTSMWpQqGmLfBwcEcPXoUf39/cx51SVnjOhAGgRFvKPVmYkELQ0f0mVnZfstUIPre2P9SX3ZGC86ISZXad1KfT7TH2C9rfT6pda5XObGOlkUsij9YYskYEWuWWLaLw0akWLZrEUxx7Vrh4ffm4eG6eXh47B/9B8IyM80WW0vg4X/1V3+1YZatEXu50fBwMQeN1t16L1pTC0hYtgKxaI5l+6bh4eKZjJbtesDDjf0vjCaplq21xfZfKjxcjI14EYo58hIeLizbTeqXqaUoMRrB9G2sHvoloQkmi2z6bKVBJMRCCg0NJT4+fs0nNVhrg8zkYC8qsOmzNae3Vi+7uUE2PW343LLkWJzNDbL1m4gr3Wlzg2yT+vXq3PiV2yBbybLVi7CKaRkT8hm0tk64eXnPnTq7KEZwtWiEuevlTM5ocPH2wsNpKUprPaMR9BoV03IZUzoHvL08cH6F2LPq6bo6NQq5jIkpBXoHF4PZ7+q0EGMrJoBUsdULApV8gslplSHczcPT05AybOyyjQj9QoRhTcuYlM2gsXXCQ4SnOC09FXk16bTYstVrUU7LmZhR4+zujZfrK+g0E3q9FrE19LtMxozWDndfT5zn+QFSXxHWiUbQo1XOMCmfQefohre7y5L8eWPbrBdna6xBh2Z2ionJKWY14OLhhZeH62u0rY2ybHUaBVMTcpR2znh6uuG0ebquSGropqqggPreETQO7vjtSeLttEMESEhqELGP8v42ynJuk9+kJum7H/NW1LYlGT0ria1ep2JW7IjjgvsiwthKR5mLeMbBjlqyv8yhQb2Pf/XpJQ6G+CwJlF41qeHJA8oKi2l6PoONszvh8Re4lBiB6yLBliS2hqSGZopyi2mViaQGXyISkzkbtxevDUxqUA11U1lUSGXnKLbOLgTFJJN+wspJDWiQD/ZQd+c6Nx/OcCTzEz4+tQARkiJ6loqtXq1g7HEjX1y9Q5cmlMzf/iZHfdwlQ2hE29ZfbPVoZyfpqr7NLwtasN13no/fSiTUcw5ItPhnbbHVyZ9RW5BD9cN+ZjVa7AMOcj4jhehQ7yXp2xshtnqNkv77xVz9rIiR0Dje/UY6B33dLUtqUE8zNjmLrYsHnq4ijnxxDpeUGWe9Mua5EXQaXjQXcqtepOueZauslfyCDqI//g1OSkjX/f/Ze++oOvP0zvNDzjlJBCGBAkhCgAKIIBASWaFUqipVdahOtsdhpnvaM+P1ena902PvuN2eMx7b58ye3Z1z1mP3dHVFSaUsssg5g4QQSYAAkbmky017fhcuQQLue6+4VHU19xwd/cEbfu8vfN/nfX7P83kEsWjq+WOqa6uorh7j8HeuknFYGmJRMTPA09bHzFgdJCrCf7lHNhJb1cIcQ+0NVFWVUTW8i2vfSifMX5rYCqHuLMni0bMpjiafw+7ZI4q77Un9TiZBIhFg6e6SxFY+QmNhNkXPHUi5EMVcTS7lky4kpqUR4rF96bqDVTnkNg3iGZfOAVkND6umOHkhhZOmTNfVLDAx1Etb8SOKusbZffoq3zmzHSAaUMtntcCjR8U1PJ+04/QP3+W4qyOGlC81hdgqZqfoaSgkt+op8+7HeffyafwMRixqmJfLmFUpsbN1wc58xZ8sNV1XLTLZmnqw8fYjwG6QO9cbcUtMJenYXhxXIVvXE1vV1Eue1FVQ+bSPWaUacysH9h6LJeZoEK4GpuuKpaRemKO/rZL83FpGHAM5/04Kx9ycDBdb1Qy9FQVUDltzKDqGEG+Hdb8aTCenW+izFdSvrqKbZPWoiEl/G7+xOvLuL4Jo3j4sDUSjVssZ72nh4WcSqV9akpGaubEOqsormLQ5TmZSiJadKUZDuR5icemZNQsyuusK+Kx8jvR3UiSKrQbVwiT1WQ+pH7Ui4b10LJsLKagcJvg77xHrartM8pEktpPPKc9/SIXyMD9KDWOqOZcvnyo4fS6D49sIomnLy6JCB6IZqCfrYQs+6emcO2ha6pfWQhPUr7xqzLaN+rU4ATTqWboriiltGiX42iUiv3KxXZqY070UZhfQKg/gUma0gWIrQDQKegeaaZqZ5UBAOAdsHA0G0Qi+gkolasXLGGrO4UbtAuHJ54kK8sZ6lTG4nthq5mQM9HbRNTSOQqXBzNIaD79ggv28sLM2DESzLE+qSZof5FA+YkXU5STCDBVbjZKxtnK+uFeD3bEEMs+E42aziJ38uvwMsmzXQyzm3n+IRaqhiEUDQDQLMgaaC/nsVjYlLR0s2AQSlXieKxfPc9B3A+qXrncVMrrrC/i01FCxnaDu4UMaxmxJvJaGZWMRBVWD7PvWNeLcDRXbHiry7lOuPsbv6BCLT+ScTsrYXsRizkOq+lYQi9kPm/HcFsTiV0H90k2AebrKiyhtHPl6ie0bIhZru3K42VFG7ewcB3zP8O7BJKI8duGgB7GoUStZmJtldkGFhUiVt4L+hkfcLWjC/VQq56IP42G7dl9iXTeCSol8fpYZuUIL3hZQbpHiam9rLRmxqFEsMDsr0mktsXGwx85yhtYHuZQPWxomtmYaFmbGGHj+nIaqOl44HSLl7HGCPDZ2Q3xV4muQ2Arq14uqB9xtlRFxLh3fsUayH1Tg+60/lAYP15obgmdrgNiiQaWYZ2LwKZUVVUzaCAzbEeztbbG0MN/UssUosQW1YoYnBQ8p7ZVz8kIqNk+KKGlVcfrDi4Q62qD7aJNk2c4OUleYTcmwL1czI5huEPBwa+KTM7YRHr6wCA9/Oq6Fh+8drSW7cJDDF5OJDvJZfp7NJqHRG2QitnDbEYvfVLEVjAs1C8ppnjyvpEI2zdF9sRx38sBGW41gkSC3ETxcPtVHzZ1PuVk/it/Jc6TtmaWiYRCLg7GkRB3E20EaG0E50kN59i1uV7Uhky/Cw48lvc3bCRF4S4SHyzpquPXFJ9RPeBP9/rukHHGlNyvPcLFVyBgo+4S//J9VWO49zbe/d5UIf1Hu6etk0y59aQlG9tycNm58TQbZ+tEIoixOHVnZ5UzYuGKnnGFgIZAr304ieBU9amPql4rJgQ6aKwvJetCMQ2IyqbExHPF3w3pp93GjDTLFzBDtbW3MWu3nZJivHp+tBpVyhpHOx5Tl53K/RU58RgrxUccJdLddhq9suEGmUjL8pIQHxXXM2flgPTeMwjeG99KP42JlKPVrjv6GMnILW1nw243l8Eus9p0gJfEU3ttYFmemu5oHjyroVXviYz7OqH0oGeeiTFsWR61geqSfx+V53C5uwiLoLO+knWavvzeOVtIWg7EbZCrFHON9TyjNyaWyTcau9AxSwkI48ErNu81eMFvvs1WjmJ+gr7GC+9nFtMt9SL6YwunD+3F3XCt0m2+QqRgcecbTuTkCfUIItF7ZYNvUZ6vRoFIptWVblCNPuPFPH9Om8SX81FF2uXngvy8IPzfh51zplY3K4ixeZ7GkjAhFEmVxLA0oi7NYtkapLU+DRsHLrnoK7+RSN2rBUTFW4aHscrFbF5S0JvTLTMl0fw03HjzBMewMyceDcbI2vk6YKa1ewyxbLXRYFGyso7CqlVn7AI7FJRDp5yip4KNGreBFawWlZRV0vpRj4RnAgch4kiP36EUsbtQJGyIW50Z4VlNOaeVjBuTgFnCQ43FJnApcKVWxceiXBuXcGN2NNZQ3dqH0OkB0bBSHvIRvbKUlkixbsQEwM0JbXTmlLQPY+IUSHX2c/V4rtb+2I/RLo5ymr7WWsurHTDn6cyImhsN+7thInJdGWbZaxGIDxWW1tA9OYuHgzaGTscREHMLTzrRiq5gbp7uhjNKaZgZlgFcw8XGnOR3iJ8mSF6O89WKrZG6yn5r8QuraXzCltsT3cBQJMacI8tguxOLi/F0YaqfwUQEtL6YxM7fE3iuQYzHxHAtwX1ME1PTRCGKtTdJcmk1lYwdjcjPsA8M5lxDNod2i3M/r8+S3Js5WivLvUL92SplLmSdSjjHWspVybX3HbL3Y6rvjyt9NHfoltSWmF1upLVk5bkdsV/XZjtjuiK3hS2j9M3bEdieD7NWZ8Y0UW/GJLgUG82pn6EA04u1sKMhG59cQn/jOoqiPnt9XCqJpaKDmL/6Soex81PNyHEKCOfWz/0DApUsGg2gEYvEnP/kJBQUF+h5ZSw3SIRaPHDmi9/itOEBQ4ETev5gP20la+ioRi8KyNRaxGBUVtSVsBLEGDUUsig0yHWLxTcdK1/8inf3rAqLRIRYFFEk852/KT/e1IsZUaNtvJWJRoOOMYSNoEYt//QuG8h6hkS/gdCCIyH9vHGKxra2NP/mTPzEIsfiLX/yC0NDQbZlrOuzldiMWdYg/QzGDW9EpgvZVXFys9d1KXdTC0PD19eXEiRN4eXkZ3QyxMIXQiRecIG4ZQjzbasSiGHtd/0sRb52oiLaLdWVI26V02G8qYlGHzdwQsWgMgFhMODHg4mfo+asnmXhz6fvpLFsBkzGGZyuiLsS5hnJ3RbvGGhup/U9/xdASPNzxUDAn/vx/x//CBYMtW4FY/OM//mMKCwv1PbLWskxISOC//Jf/sq2IRTGuYjylLDi9DyHxALHQxT9TLFp9TRCIxUePHiH+lyoYQmCE2J46deqNLVshtrpy4FLvL55JfIWIl4OY0286Vrr+F9f6uvBsRZuE4Io5IfUlqG+st+PvOm0T68jV1XXFst1BLOrvfqnRCPqutB3RCPraoO/vRkUj6LuohL/v+Gx3fLa/FT5b8ZaW4jddz2e7U4NMOt1qR2w3Vt0dsd0R299asRUpf/OyCUYnZCjN7XDx8MDFbi2qb3PEojh/knGZAntPd1xt15bS3krE4iK2bZIplRUe7i7YLZVL1w3epgUfNWoUc9OMT0xj5uiOm6PtmmBvcQ2plq1APU5PjDEmm8fczhE3N1HJ1HJ7EYtoUM7PMCmq69o44SYq3Bqwt2CsZatWzGsrC4/PLGBpLyoLu2JvJf3GRovtUnXdcVFdWWGGrbMb7s5fdXVdMWvEOCzOK5WNIx7Ojlitk+20LaFfKjmT4+NMKa2160NgP1/9mTr0S62UMzM+xpjAj9o6aitP21tvzjT4RkYjvG7ZapCP91J1/ws+fljFlEMQp9/+kO8k7sdl1UBtVsp8bqSbijuf8UnBOGf+ze9z7Zg06pfgsSqVKjRYYLVKNDeifony4VPPG7n18Sdkyw7wkz+6xgmJ1C+xIFQzEzwrvc9HN4qxTvsDficljF32awOspYmtmtm+VrI+/RU3qp9jv/ckme+9Q3L4HuyWNGc7LFvNwiy9tXl8+uvbjB2+wu98K51gZ2mJBWIBGiW2GgWjHTXc+fRzshsHcT6SwNX33iHxkMcajN9m3gRjxVYzP0V/XR6/+vwuTaPm7DlzmW9fTuSol6ME58XiIaaIs9UoZ+mtusc/fl6EPDSTP7iWwB6DqV+igrUSpUaNhYUVq2kGUqlfAlk609/EzV/+ktvTofz0d94nJth128V2qqeG+7/+mIctQ5jvO8m1D94n/qDXGpSpQZat4FAvqDC3sNLqhPQZLnlaGH2gYRlkahUvmwu4U/6cwKhYfKaf8qikn5M/+B7RPvbLjdhQbDVqJjobKakoo6Z+mogfXCPzcKAknq1y9iUd7c+Yt9xH+JHdy/faELEon+FFS7X2XvWTe/j2dzMkUr+0uCjko8+pr6ymvLoF85h3eC/uiHFiuzBGa0kuhe0QnXyChcZi6uVenEtL4YDrItDW9GKrQTU1QEttPcXF1SwcOM2ljBSTi61mZoS6wiwqx905Hx/E89Iyus39SbmUxB7dm0bP1DVObDXIhtopuZvPREAk4d7zFJc24R6RxpWY/V9hBpkGxfQE7VXZZFd3otoVzftvGYNYVPFypJPO+Tn8fQ7ibyUxXXdVX2uUk3TUN9FU9ohiVTDX3sogep+LJLFVz4zT87SFlt5hFrTUL1t2B4dxNNgXRxsL7XzWVZEVm1gbb6ypeHL/Y+4OOnEuZh+jjdV0WQSRmhKlfQFtJJQbWrbqOYaaKqgdMicwPJKD3o5Y/qbybLWIxZIvyepScjr9Cv6jdeTez8Ym819zJVQaYlFYnKM9LWR9Lh2xKGaAfKKTqrJyJm1PciHpoF6x1YqYfJH6ZRhicenSajWzY4NUPLjJ090JvBVjpNhO9VKR/5DyhVB+kHaUqaZcbj9TEnMuk8iARSvL9GKrvQly2TiNOV9Sp/bnfGqyycVWMdZHac49OlyjeDsuhIGiGxQPWhJ94SrhXtJqehkrtqM91Ty424Tn6URi9ip5eD2fed+TXMk8iZNE28QUlq12vGW9FOYU8NhgxKIGhULG08EasjvKqZid5bB/PBf3nCTUxR1bPdSvtY+tQa2GF6Vf8M/NGpLT0oja93pc+7o82+lROpprqe8aYl6pxszKjoCQExwP2aOt2iJNbAUUQUbxR1/Q4nyQjLOhTBTnUTpgxelL5wj3NJRnq0bWXc/Nm49Q7I8h89wpfOws1lSQkTjsJjvMIMtWiG3Hoy/I6dMQm/Huktjexyz5X/Nu2MpbcdMMMkOpXzrE4peLiEW5zR6izqZw5VKSNndavQnP1ljql66350cHKb9/nbY3EduJRcRiGeH8bsoRZK15XG+dX0Qs7l3ss20RW9BaVY1ZN6jZJrFdGOmlNPsO3d5xXIkJZaj4OgV9ZkRlXiVy11KZChNZtiOdFdx98AT/2LNE71OR/VkOsz4RXLwUzev22/qNMJXYYjRiEVTCWJnuo7angsrpaY7siSfWcy9etvbaL0R9bgTxd/FPhISJf/2lX/BPjWqDxFY3Z8V1dD/d9XR/02/ZinPHKfjlDZ55HiE9IZSp4nwe9WuIunieSG/nZUj/pm4EczPUilkmXr6gvqiIFvUezp+PJnSX89fKhaDrF8nUL7E51l9xj/tPZolMzsRvrIHs+yV4v/cvSQ9esRe2VGxFDavpcfq6mqmoqkVmc4yUpGP4eHlgb2NpEsTilortzAtqCrIpm9jDtcwIZI05ZPdaEHc+nbDdi66Xb6rYqiZeUJX3gBabMN46c5C+gttUTjgQd+kyR9xMa9mO9zWQe7sauxPxRAcoyL5VCEFnuJpyTHK1hq+j2C7OTSU9Lxqpm5kmJOAkIbYrLrzNxFY+9YKGrJvcaRzD71Qq7yVHMld3y2CxVY71UpV/n4c1z5ApVJjbuHDkzEUuxB3Fy9FaomUrnmOeys9+TaX5PjLPhjBWVkj9uDPxF+I5JLUsjmKGoeqb/O3ntag8Qrn4wRWi9nljb/l18tYujppBlq3YpJrsqORubgNW/sE4zw/Q+NyRiz/KJNRlxW+0mc92buolXc2VPLxVh3NKGqknwtjtYr9MDdsoGkEh66O5oRGZ9WESovbqdSOoVXJmRvpoKsvlZo2cc5dTOHU4GHd7q+VPiw2jETRix1jGQEcbRQ/v0+F9mksJpzgU4IrdKgqRpA0y9QzdNUXklffhFnEQOh4z6R5KSsoZ/JbIV9shtmr5DMN93ZQ/vEOTxpezqelEBLrhYL0SFbGZkWnUBtnCBE/K8ih4MkfoUQ/6Wl+g8A3nQtpxvCQuBuPcCDA/1kdd9l2a2MUeewVPnk8QknCBtLDdki2erRdbwWaeY+J5M7nZRTyZ303GhUQOB+7C4ZVIAH3RCGq1CpVGg4W5xZo6W5uJrWDhKuXzyJUazAV0e1bG08IbfNyqJvF8KgkRe3G2s2Z1cMS60QhqFYoFOXLthrX4mWFlZYO19WJUkjQ3glZ+eF56nV/VThG+34vx/n6U/qfJiA/F22FtlNLqubnGZ8sCk13F/ONn9TifTOfqmcO42kp7kZvMX7DBhQ0TW4FYnBunq76YrOIGph33cuJcBvH73bFZNUIb8mzVC3TXFpCXm0tr7yzmvvsJj0vncsx+nJcm24ahXxrhYxKDa47FqsqbGyEWF2aHaC3OI7uglq5pDT4HwzmTcokz+12XQ202K/g40dVIQe5Dip+8QG7pxdHoRNIvxrJnVciWJLEVkQ2TA9SV5JFf34fNnmOcPRvHEX+X5Y0ak4utgBYPPqU4L4vcug5mNI7sC48nLSOWUK+NP9dWzxmjxBY1c8Nd1BQWUPz4Ja4h0SQmxnHI02ZdTul6c9RYsUU1z8TzFvLyingybsW+kwkknTzELseNF/Gr9996scD6S/sAACAASURBVFUyO95Nye37FDV1MqayZt+JJC6cT+Sgz1p2qz6x3Ugo9LkRdOepZQPUFeWTV9FA54QK36BwEjLSOBUkrMKVq5s69Gt+4jmN+TkUPx3BOvAY587Fc8DTkc2iA1/dIBMVu0WkEoKpa/H1KoWzepwMFlspb4Md6tcO9UvKPJFyjNFiK+Xieo7ZerGV3ihTi63UlphabKW2Y0PL1uLracWu91ybiq2w/FxcpG4nrFxexOfqMsgMpYbpLFthsYp7b5bbLY59lfplSC64zrIVNCNDGQ7iaUfr66n52X9cpH7J5dgf2s+pv/gZgYL6ZS3dghLP0drayr/6V/9KMvUrKSmJv//7v+fo0aPGzFeDzhHt01G/REahIX1s0I3WOXi12GopSdsUyiOeWYhtbm4uAkgjlQsg5r6/vz+C+uXj42P04wuDRQid4ACIuWkIcWs19etN2QHGiK2OjSLWl6HEMikdpttkEkRBQ5gRUq5tymM2FFuxuMRElwKDebWBOstWLAxDz9cNlJi0ojOliK1op5iMhsJkhKCLgRMLyRixFSCauv/0V7zUgmgWsDsUzMk//9/wu3ABcyvD0nW/ziAanZUlxkT005suYEMmtBAbseA3j9c05IrSjhXPLERWgGiE6Epd1Drq11aBaHRiK1XsdS9GMUaiz9705STWlg4EJNog5Xo6UdFRv6S2XdrIoJ0POvTkds5Fqe3bzMUj+lP0i5ubm1Z3zNRqtUb46HRELENvIjpbDJAYGEHUMvSnw/lJEU/RcNH5Qmylvv117RHn6oTamHZOtLRQ//O/5mV+ERq5HMeDQUT+2Z/hm5EOltJCm3RtMRaxGBISYmj3GnW8DmsnZUyMusEGJwnrSPwTYytV8Lbq/uPj4wYjFsXc1yEWPTw83qgpYh2IOSpodoaIilgPxq69Vxss+l6MvVgfhvS/WFfixSPmiyFtl9Jhok26fpFy/NfpGDGmoj/WiO0O9Uv/EEnbINN/HZNvkOlvgt4jjNsg03tZvQfs+GyNcyMIYdwKHKYxbgTp0Qh6h3/dA35L2AjSOmdng2xng0zaTNF/1I7Y7ojtq7NkR2xX9ciO2O6IrX4ZlXbEjtjuiO2O2G6yVnbEdkdspUmp/qN2xHZHbH9rxVa9IGOwtYJ7DwuZ2H+BP7x0CodXwKgbJzUoGe+o41H+IxoHZnDeG0ZCZjrhHnZ6M8g0ArGoUKIxs8RaAmJRLZfRW19CdmElffN27ImIIyMlml22K9i1jTPIRDB+J9WP8ihqeYHaNYBT59JIOuqHtaEZZKiYHeigLCeLko5RbL2COZWUxOkQv21ELGpQTg3QUJxPXnU7c/beHI1PISk8CDc7aXGKxvls1SxMDdJS+IDbDeMcTXmPq1F79CvsqiOMFVu1fJqhxxU8fFRJj8wMjyMxpCac5KCH/lJLutubLM5WNUN/cwVZOSV0Tyiw2n2M9MxzROx1Xybg6YuzVakUixlkArG4KhxOf1KDBuXkAI0lBeTXPWXWxouD8cmcCw/Gy+71TV3T+2w1iLX6uPAB2RUtDE3DntMpZJ6LJsBpLSdbNy6buhHUC8zPq8DKGpvfaMQiGmbGO6i+l0118zMmj1zlT949jdMr6XHri60GtUJG1d1b1MmcORuzn77KPIodUvk3acE4L11jowwy1fwYvd3dzFsEEHJgpZDeuhlkGhUzw23k3ilEtiuCGH8FVWUtLJz9kGv7HbBZ0peNxFajlNNfkcWD5mH2xybg1FNEycgu3v0gmd22VsvpnpI2yBQTPC7JpqBVSdTFOBRVeTQod3E+M5X9TotAW1NvkIk0zYmGPO5X9WATeY6j87Xcb4WkzHMce4Xxu5ESGiW2mnn6n9ZRdjuLmmkrQs99i+8l7NsWsZ1++YySuw956RfFKe9Z8ovr8Tp1mXei932F6bpLjz7RQ2lRGc8sDhAXtEDFF0WYnU4lNTEcj6U05s3FVs3oeA/9C3J8PPbhY2mz3Kf6xVbJi4Yiciu78UnMxLc3j+tPzUjPSCdqrzSerUYxz+TYMCNTs6jUgLklTm5eeLo5YW1hZkC6rmi2irnx5+TdK0ETcprjs5V81LLAsYSLnAvxWDbCVk+aDcVWo2Sut4Xq7hnc9x/mwC6XNcaRQRPPBAcbnEGm0ShZGBugKf8WBepIfv9ytDSx1ahQzb8g+2YBw/YHuZS8h47iAm489eSPfpSI71Iu9EZiuzDRRXVFJZM2kWSc1YNYVCuY6ijnRuETPMLTSfOdoqCgmBqPdP71uQDslnIBNxJblWKKpuyH1AybEft2GtathRTUTHD4w3c45Wy7bH1IEltZH5UFWZTP7ud76eFMNuVwr0NDzPkMIvwXrSyTi616jmePsijtniXk8iX8h+rIymknICOdswd81/CEt1Rs0aBWKZlur+RWYT0WhzP5Vvx2iK2Gsee1ZN1pwDUqgdMCsXgzH4V/NG+nH0eqbWsyy1atZEGhQIUVs31VfHmjEpfYNJJPh+CyCiivi3FdndSgUs3yfKSVku5K6mZmOegfS5LvEQIdnLGRglhUz/C4NJ/ytgWirqTgMVLN/7zTxYnUVOLD/Hk1OnxdxOLUEI9ryih70secQCxaOxAUHk/csSBc7a0MFFuBj1azMC8HCzXjJTf4tMuaiKQ0Yvc6GyC2amZfPObBlzmM7z5O6vnT+DmubxmbQEclXdJgsRVXVcuGaMq9TvZCuGFiO93D3VvFTLuG8VaKP+1FBdysteWHf5hKoOPi2/k1sVXOMtrZQN6jYsoaHzNns5+4s2eIjz1BgIfD+ohF1QJTbSVcL2vH6+RlLuweJ6+gkEfWifxp5oHl8h/ri60G1cI4dQ+yaBy3JeH9NKwai8mvfEHgB+9zxsMWHUNFkthO9FCed5/yrxCxqFHLaM3JorpPTfh7l/DtbyDrYRMeqWkkhwRIqppglGW7NAXnuyq5mVsNoRl8ELc9YjvSWc7dB22vIRYvLCEWpTChtlpsxReGlkpoZqbFBypGOinMzad+3oe0tERCdzuv4WW8LrYiY3KW7pFmiroqqJmZISQgnmTfMPY5ukgTW6WMpuJcKrstSLxyDtexBn79eTOhQmwj9rKCk1ocvI3cCMvPopMZ8UxL7gxJoV9LqMfF7jDDTLPA8NM67mVVYhkaS3L8cbzt1uccrLFsBWJRlL8aH6G15BHl486cOX+GyD3ukvkbkpRyCw7aPrFFhXpugOwb+Qw7HOBiciAdRblcf7abn/zwDD4bWbai5tnkMJ3tjVRU1yGzPUry2Uj8fH1wtrNaH7GoViDrquTLgse4HksnzX+C/IIS6rwy+Emivx7LVojtNM25D6gegti3M7SWbWHNFEe/d4XjzrbLC0KS2Mr6qS7IomxmPx9mHmOyMYd73RCblE6433ZZtvNay7asa5pDl98i4GUdWVkd7LuQStyB3Sa0bBdn6FchtmO9dWTdrsM1OpGYPXIe3ChAtSeGq+nHXxOUjdbR1omtGhQD5Pz6U26XdRGU9m2uhDnRUphLj2UQcSkJhHiLmnArr4DN3QhKOnqrqZBNciwojqO2K6V+9LoRNLM8Lsmnok3OybdT8Bqq5J/vdRGVmk5cmP9rc2E9sVWOdFP68AZflrcxtaDCzMaViOR3eedsJD7O0hCLsmfV3Pz0I2omvIn94F2O2wxSnl+HfF8UKbFhBLjZS6vUoJhmsOpL/uHLBuT2gaS9/y6xB3fhaECduy3QUUmXMFhs1Yo5Jvs7qM69xSPFUX5wMRZfH/c1Rfw29NkqZ2jMvkvFCwUhIQGMtj+mJyCD3zsTgOPSJtuGbgRZL0119UxZHyXp9Ip1tL7PVs3caAdFD4vos9zNIW8FHc+GcT3/Ael7HZYLHW7os1UtaOtXPaztxv1AGHZDLXRxkKtvx+NtKPVLJaOj6hH5NaP4R4WiedrIoEMw55MT2eO4PT5bgcaceFLC/fLHLPgeI0jRQf2IO+fT4rXWlBQrzyjLVqNmYW6aly3F3Cyow+xgCu+fPYKLk8OmVKdX/XPCkhGp24akfc6N9FCV9YAO2z0EOStoahtgX9wFMiL8N4RSv7pitk5sNSCg+UMvGZ2cw87OjL7aUvLaZjkaF0PY3l24urri7GC7jDfcXGw1yBdmmVGrsLN2xM58pYCmXrFFxXBrBfllLZiHnMTjZQOV426kp54j3P/1Ghbria3WZzs6zPDUDCqtaWqJo7s33q6OWFuaS3IjKOdkjLwcRKawxN5ORf2DO7QofYk7HUGAjwcebi5aXvV6c3ONZauZZ/xpHv/3x3U4HU/jvZTjeDus7KtIUsFtOsgwsdWome6p4fann/BFURPjuBEWncy1H3ybWH9pNchkvY1k3fyCe40j+EVl8P1vZ7DXQeyoLj7xRmIr2JdCxMEc81UWwIYFHxVzDDUX8cnnt6kdd+D0hWt8Ly0Sh1Uc1Y2r62qQT/ZS8/AmX+Q0oNgbxdvXrnIm2GvZhSDaKsmyRYNirIfiO5/yyaN27EPO8O47Fzkd5L686E3ts9W6fuZHaMq/w2e3ixhxDyXzvWskHQnASSJX1iixVcjorszil5/cprRtAEuP/SRc+RbXMmMJXHrR6JvnxkYjoJxjrL2STz/9kuphK44kX+WdcxHscV7ZTNJ3760T27V3Ug494d6n/4N/fvQUc3Nb7N19OXPtB7wVexTPpe94fdEIG7Vdv9gCcyM0Fd7jo1v5TLgeJfXdd0kOE3Ph9arHpo9GWEA2VM8vf/HfKewaBxsr7A7E893vXCX+4C5sVq113TO/hljUqFGp1JiZm2Ox6sWjb3y3+++Gia22FqJgR4p8dRUa4acxt8TKyhKLVZ2yaSlz0TEKBUq1BjMLS6wsLdf4VjYW2/W7ZiOx1Qq3WuR1K1FpzLCwtMTacm2Yk75S5iqVeE41GnMLbTtXP6N0sV0sIKkSOeZi63ada22H2GpfVqIN2nEzx1KwBszNJFm14lmNElvtBplKm1uvEuNtZo6FpRWWlgJ4LW2qGy22urkq7q0xw9zSEistNUzafcVRphJbMR+UCsXifBA/MR7aflnxUZpUbF+bC2Jur+8fNb3YCgNLhUK+GMq22B0W2vlpucEk2ckgWzWHd5IadpIapEva5ke+idi+aRtMJrYSGmZasZXQgKVDtkNspbdm8chvnNgKxKIg1BiKSNR+sqrVWnSh+Bl6vs7UFlQfKSzcV3m2hgycOFcAdwRRSuDoDP1pEYt/+X8yuIRYtA8J5tSf/zl+F41DLP70pz/VIv30/cTubWJiIn/7t3/L4cOH9R2+JX8X/STGVYynFMzeltx0aTdcLHhTcFH1tXF0dFTLFxb/SyVXifkrqF9bgVgUoqJDCRrirxZfIaZALEql6q1ew2LcDKGF6RsT8fffdMSi0B3ho1+DWBSDZgx6UCxKMUnET+DhDPmJgRLniv/1nSuOEQ0XLwXRTqmTQdceca4Oz2jMc463tND0i79hKL9Qy7N1OBBExP/6p/imp2FmIM9WIBb/9E//lJKSEr3dJcQuPj6en//852wXYlH0sehv0U/bKbZfFWJRPOvExIQWsSjEVuozi/P8/PyIjIzE09NT71hudIC4jg41agjeUHfeViEWxVoU/8TaMoRnK9aV0AGxhrdabHVzQlxb6rgYPRBbeKJubER/CPzmstgKS0Z0shTr8tX2vKllq3uji6oA+n6i43VMWn3i/Oq13tiybWig9i/+UlupQTUvxyFkP6d+9h/Yc+kiGCi2Ah7+4x//WHKlhrNnz/J3f/d3HDlyRF8XbcnfdchNY+bDmzRALNqvyrIVboT8/Hyt2EoVDDH3RaWGrbBsV1dqMMSyXV2p4U3FyBh4u84FooOHS+07qfNEF38sIlSkfnFIvbapjxNf/EJ3xDrSVh4R8PAdnq3+bpcWjaD/OtuzQaa/HZsdYdwG2ZvdU5y947PdAdG8Oou+cT7bHbHVLxQ7Yqu/j970iB2x3RHb32qxFeFfWr+quZWWwPVqNM2moV+60DGVGnMR+mW1Nn9560K/NGh0YUci9EuUzbFc29ZNQ79YOl9bIlmc+3pojGSxFaE+SgUKkUe+Tqjc9li2Gm34mSCnqc3Ml8rMSC/7bLxluxRyJsbb0gqrVWXopQjxG4mtNsRKiQqzxVA3A8K+RNtMGY2wuIYWtCAXbQikCJ98hd61HhtBX59JirNdCotTLCgWy39bWW6Y6LFt0QgaNaI9ajMLrKxEaODGg/XbY9mq5Ex0VvHF5/cYDrrIj6+cxsFmbTD0hmIrkiJ6m8i+8Rl3G1+yKyqT7394gSB7qzU54cKqFkIopZLrZkkNL1tK+PST69SOO3Lq4vt8LyMSx1WLfTOx1YikiKYSbtwthdgPuBZ3AA/btRNAqtiqRp9TfPtjPi54gn1oAlfeu0xskPuaZ378+LG2uq7wEer7CT+cqK77D//wD5J9tur5MZoLbvPJl48Ycgnh4vvf4vxRf5yspCmQsWKrkY/zpPg2vy7qJyzj27wXHajv8db83XixVbMw2U/RF9epmXTj3I/e5ZiLPYZUxDOd2CoZeVLGjY8+prRnAfeTF/j+u8mE7XZcNlxMG/qlZPxZJZ/893uoolK4cjURXzPWjbneHrHVMDPQwsOPbtHmdozLV5M47OogLV33m1LKXDi4125SaZif6qUpL4/iynpGQ97hT6/FSqN+aQOpp2nIuU9Vv4IDB3cx1vmUHr80/kVCII7WiwkHG1m2KvkEA/39yM13Ebx3pZDexum6zyh6+Ih+i90c8FTT2TWK8/lrZEpI1xVB5/Mvn1FeUERRdTuOyd/lW2eOsMveCLFVinTdAvJrR/A/HoK6o5VBx/2cTz6znEVlcstWo2bycSlZZa3M+R4hQNFJ87g759LiObzLRVJig3FiK2e4u5XKuw8oHFRwOPm7fD8xaFvEVj0nY6C1lC+zyhhS+5L2R9/mhJsjhsTGmExsZS+oK6+gccKeIE85j0vacU9MJzn2CK5LeTebi62aiakXDMrleLoF4Gm58gqRYtkqR/toqM7ni+v1eCem8tYHaQSai9zM138bpetOjY0spusuIRYd3bzwcnPE2kJauu7qO2nmZ2iresCt+7XM+UXw1rfSCXd3MlxsNUpmXzyl5YUc973B7PF0wsqQLBaDZqbhBxueQSayoSaHaMq/Qa4iQjr1awlEk3MjnyH7A1xKCaSjOJ/r7T78+Idn2KUHsSif6KSqrJxJ25NcSJKCWKzgy8I23I6lkuY3RX5BMXVemfzkrJ9exKJW9EWs8MgAZVlf8mx3Am/FGCm2WsRiNhUz+/luxjGmGrO532VGzPntB9GU9sxw6OJlAoZryMp6RmBmOgkmRiwKOtRsRzW3Cmow2zbq1+JLW6OYobu6hLLmMYKvXSLS9WsitholSpUatcaK2aFG7n9agMXJ85yPO4qHHrFVqxVMzg7R0FNJ1cw0RwLjOO3mj4u1jfZLSYrYqlVqlPKXlP/yJr0+B4i9fN4gsVUMd1F89zO+KH3MlFyFmZ0rx1M/4FrySXZLBNGskSoNqBXjtGTlUTFqRdTlJMLcDBVbDYqJHvI+/pynDodJu5hMsKu1wa4jwyVU+hkGi624tHpqiKY84xCL924VIxOIxWR/2osLuFlnyw//YBPEomqeyf52KisrKK9vZsbmEAlnY4g4FsIuVztt6q8u9Gu5zPYSYvELgVg8cYmLvhNaxGKhTSL/S4Y+xOJK582PDlB+/wZtbyK2ryIWW/K4/nie0+cyOBHosmzNm9KNsAax+O5FfF808PBhM56p6SSH+H8DEYtLY6iZo6uimNLGka+X2C5+wqGa7KfyUS6lQ/Ykpp0nIlBfpQYRVz7N04EacjvLqZ0VPNt4MvacJNTZTRpicalrVAvDlPyP6/R67zdYbLXp5yqV9oWhQYNI+hb7L5ZL6dA6q1y46USykKSwNfUUzQ9yKB+2NFBszVGrFpDLxmkrK6DguTmnziUSvd9nDcdEuiSa7kjjxNZYnu3cEjzc4SCXBTy8KI8b7d78yx8lbmzZasX2KRUVFZQ3tDBjfVArtpHhQmzt1xdbtYLpjnJuFrZpEYvp/pPkCXi4exo/PbdHkmUrunx+dJDy+9ffTGxlfVTlP6R89iAfCsu2KYe7XRpizmUQsW2IxTnaBcC8e5ZDb10mYLCO7Jxn7MlI5cxBU8LDFyfu9iMWdQtmnq7yoq+B2GpAOUbdo0KqHg/hcyKR6D02dFU+onHcgdC4BE4E+6yBJG3uRlDS2VdDpWyKsH0xHDEEsbgFYquaGqK1pozytj7mFGrMrBwIiogj9th+3OwtJVG/ZgfaKS8soH3GldDEM5wItKUrK89wsVXNM/akkE9ymxmZtyM89QKJR/fgoivHYjrtNPjK2ye2Sz7b6rs3qZ1yJPH0QfoqH1HhksZPUvbivNQ5G/lsDXIjaMviPCX/bjGT3keJDpBTVfoYkj7knQMCsbjoe908GmGLxFY1yZOSXAqaFZy4EI2yOo8m5W6SM1IJcl7xU5vUstWoGG/M4051F3bHznNkto6sJxacu5BEmL+rCX22O2K72APiO1nOyIt+BsfncHSxY/RxHeWdKo6nnOVEkM8y9lO3gjcXWw3z8mmm1SrsbZywN18BLElxI4h7vIllq1mYZWx4kMHx6WWfrbOXL7s9nLGRilicmWBooJ8JhQ3ufr54Oipoe5BruNiq5xhtvsXP/98ynOPe5ffeisHH0Voy6MhgxXyDEwwUW1F64gmFWfe4X1TDC40PUTFnSb2cTrjPCuN942gEFWPPasjNyaO+fw63oAiSL6Vz1NNu2eTfSGw1qgVmZ2ZQmtnj4rSyzbFRNIJKPkVvXTH388vpmbdn/4lELqdG4WlrsbwRsKHYqlWMd9WTc+82WVVtyGwDiT2XzuW349ljsxImIy0aQc3sYDslWQ8oaB/FzvsA8eeTiQnZjS6Iw+QbZGhQyl5QW5hDbvlT5px2E3E2jaRjQbi9Uj9uo7lk1AaZYpYXrWXcuZNF8eNeLL1COZt5iZS4Y+y2X2875vW7GxuNsDAzQnvZA768/4i2wQWsD8fyzoU0zkfsfa30y0bPbKoNMtVIBzk3PuLTyn6cXN1wdfMhMuUiieHBuFovGgKmi0bQMD3wlNLsL7mbU8uYjRd+0al8mBHPYT+31168po9G0KCYHaPqwcfcy66kS2aOz6kUPricSkSgx7o1xF6t1CDW+suRGSyc3PBwsnuNzvcG+rilpxoottLuvUP92qF+SZsp+o8yVmz1X1n/EaYSW/13NqXYSrn7yjGmF1vD2qN1S83Pa1O4RbruVqcCG94a6WfsiO3MjBauYgz1S5plq38wTG/Z6m+DviOMsmz1XVTC33fEdieD7NVp8o0TW4FYFJ/o4u1h6G+7QTQC7iAy0ZajESQ2WJ/PVt9lBGKx9j/+xQpi8VAwUT/7P/C/eNFg6pcA0fzkJz8xCLEoQDTbiVgUO9BiPrwp3ERfv67+uwChiMX1VSEW8/LyGBsbk2xBibkvEItRUVF4e3sb8qhrjtW5EYxBLOpANIbiTddrrDEgIJ0FJ+aLqRCLOvzrbyqIxsXFZRFEo1KpNEJsxT9j0INbgVgU15AinjrEohBbQxGLYjIIoRbPaMxzTjQ30/CLv2EwvxDkCzgKxOKfCcRiusFi+/TpU/7kT/7EIMTiX//1X28rYlGHzNtOsf2qEItCeITICuSlcCdIXdRCaITYHj9+/I0Ri0LoxPUMQSyKdovzxBiJ9fCmY7UaYSophGvJ32xqxKJYu9uN+zT6zbnqRNEvYi65u7svjo+gfuksW2OQem9q2a7GkG02WcREXI1YlCLOqztsqxCLgzn5Wp6t/aFgTv6HRcSioTxbEY1giGUrEIv/9b/+V8npum8yUVZbKttt2a62rLSWwDZlBIlnFmhFkT5tiGUrRGCrEIvGwMNFu4XLR/SVcI29aX/pvix08bJSrqezykVfiDUpVaSlzlFdvwjLXepLUOq1TXnc6vhjkZm7g1g0oLd3fLYGdJaRh+74bHd8tt94n+0OYlG/OuyIrf4+etMjdsR2R2x3xHaTVbQT+rUT+vWmIqs7f0dsd8T2t1ZsNSo5U/1PKCmuZso3hitxIdhaSUQsomZ2oIPa8jLq+6ZwCYrgTFI0AXYrrNGNkhpEFo4WLiLysFf57TYsZa5RMT/xgoaycprmvEg+d4pAt7XYto2jETQoZC9prymnpKkHpfs+os7EExHgtgZsIc2y1aCcGKK5soiyJ4NY7zrEqdgoDvu5rknkMGUGmZisoqz75PMnVJXVMLX7OAmnw/BayUPRq43GhX6pmRt+Tn15KdWdYzjtDSMm5hQHvOwlZ/gYLbZKOZO9jykpraRzypxdYaeJizzAbgfp3C+TxdlqFIz3PKasqJT2UQUOgRGcjT9OkJfDcsKNvqSGxbWwWB5+NYtOagaZRjXHcFs1xeWNdE5o2BNxhoRTofg4Wa+5nqnjbOXjfTSXFlHVNYbl7kPExZ9mv5cjr0jKmvm5aeiXRo1aSyJbqxN6J/g2HGBgnK2GmdGnlN28TVH9MxSnvsufXYsxALE4S1PuXUqezxNy0J/RjhaeB73NH8T64mC9KNgbia1aIWPk5UuU5p747l4EuIjf+mIrslImaHt0h1uF5fTbRfMvfnSJY/5rM2Q2EluNSsFwfQH3K5/hGHQY+5FWOq2O8J0rsbhaWy7fW5LYqqbpqi4gt/wFPtHHoK2JYZeDpKQmELCEbDR9nK0G5chTCu7n8LCkDY+Ei7x3MYVgZ2ksW/HARomtfILHZXnkt81x7Pgu+hu7kXuHkZFxCi9Lafc2Vmznxp5TnfWAJ+b+BDvN09A5yMH4t7gQ7id5WZlMbMe7KMjKoVrmxalgM54UPcXjbCbJcdIRi9Mzw4woFnB12oWrhdXyM0kVW+VAIx9/novcez+R/goqysfYn55OfKg/dqts5CDrWwAAIABJREFUJ1OLbV/RF3xUN0PkkV2MPe9iftcpMhOO4rVEAVxvsDYWWw1MD/C4awxrL3/2eLtgtZSaL3nQTXiggWILauUcsv5uGosfUmYZxR++FS1NbDUqVPIh8m/m0m+9j8zze+ksyed2byA//vA0PvaLTM6NxHZh8jl1NdXIrMNJjg/WI7bCklMxNz7I07oi7jaZcem9VMIkiq1KMc1jAY/pVxJ1ORWbx48obJJz4sMrhDsuouzET5LYzgxQU5BF2UQA72VGIKvPIafPkriUDMJ2LZZPN73YgkYxz/jgC2oLHvLMbj8pqckmF1vlxAAV+fdptTrKlYSD9D26Q9WEI/GXLnFYB27VM7mNE1sN432N5N6uwvZ4PNEBCrLuFGG2L56rKceQatCbTGyV80xNyZjDHktZGw8/K8Qi6jzJcWGSEItTc8O09NXSMDPLwYBTHHf1xcVKOmJRO+cU0wyPzWBhbY35RAs377az6+x5Eg/vYXUm9Xpiqxzvp64om9z6TqYFiMbGiZCYdNKjD+PhaCUJRLM47HNUffYJFRZ7yTx7iLHSAmrGXThzIYFQ9xWQ+qtTZH2x1aCY7Kfs7l3arYI4cz6BYDebbwBi0Vjq13QPd28VMy0Qiyn+tBcVcLPWlh/8YSp7HRc/714TW+EOmBqmp72J8up6ZDZHSUmKYPdub5xsLVGuh1hcNntldNcX8GnpHOnvpEgUWw2qhXHqHmTRMG5L4vtpWDUWk1/5gsAP3ueMh+3y578ksZ3ooSzvPhWE87spR5C15nG9dZ7TSRmc2Ls9iMXl7pieoDHrBjVqf85vg9gujPRSkn2HHu84rsSEMlR8nYI+M6IyrxK5a+ULYTO9NVZsRzrLufugDf/Ys0TvU5H9WQ4zPhFcuBSNK+tXJXi1HSYT26UbaeYmaS29z90WOTHp6cQc9EHXK+u7ETTI5WNUdjzgxrNSamblHPCN51pICnFevjiYmUni2a5+zvnRbloK71E2vYeklARCdzmvgYibzrLVAOMU/PIGzzyPkJ4QylRxPo/6NURdPE+k99p2rGnzmnRdAStXoZyfpac8m+sNMiKTUzl3xPdrJbQ6bRNhrSKcTnJ1XbWRYque6+PBjULGnUO4lBzAs6J8bjx2449+N2nZl/aa2KrmGOtsIL+whNKGVuZsDhB3Np74mOMEeDisj1h8Y7GdojH7IbXDlsS/m4ZVcxGF1aMc/O47RLkYKLZTvVrEYpk8hB+khzHZnMvtZypikjKIDFjMztsOy1bcR7HNYqsY7aMi9x7trlFa3/5A4Q2KhyyJvniVcM8VUpUpxHa0u4YH9xrxOp3I6UAlD6/nofA7xVuZJ3GQ+Km4dWKrAUF/q66hsXMUz8OnCPe1ob/2ERU9SvyjzhB7eA8uS6403ZxYvwaZBrVmgWfPq6kQiMWgOI7ZOS3vY2zmRlDMjfO8qZq659O47TvKyQBzGktLqX5hwemUJCKDdmH7SqG29cRWNT1KZ2sDDd2DyJUazCzt8A+JJOJgAM620hCLWhIaMoo/+pwWp0NknA1loriAsiErYi6eJcxTIjxcLWeys4b7pa30jSwQGJvKueNBeNituFYkDrfJDzPYjSDAwYrxF9TnikoNx/i9S6dxc7RZs+GxfjSCBrVigsq792iecSIuOogX1SWU2pzhxxmHcF2iT23sRuimpqKSSZtI0hMP6HUjgBr13CQddfl8VjZH2tUUjgV6rfHhbOSzVSvn6SnPIufxCAdiz2DXXU7tS08ufJCs3czTeRslWbYLY7SW5lH41Izo1OMsNBTSKPciKTWV/a6Ldsy2iK2oPDE5Qn3Wl9Rp/DiXksIB97VFBjebbcb4bDUzwzQUZlEx7knymb10F5XRaRFA6uUkAlc7Bje5sbGW7fRQOyV38xjbE0GE5wLFpU24R6ZzJSZ42Q2kb3VtrdhO8bS2juauMTyD9+M42Ulp40v2xiQQF7YPRxsrLC1WNrs23yBTMzn9ksGFBbycd+NuKc1nq5yb4HlzLY19Mzj7eGH1ooXWCXsOxCdyPNBT2wYLc4ECX/mtJ7bq6TG6njTS1POSeZUGc0tbfA9GEL7fX+tSXB28vzk8XEnrg4+5PehEavQ+Rptq6bYIJi3lFP7OttLK4qhmGa67zl/9YxWOxzP54XtJBLrafe2sWiMsWzXT3bXc/vQjPrlfwnPNbs6kXOKD73+LGH/75RHaGLGoZLi1mJtf3KCwYwafo/G89733Oe5lt7z7uJHYiiiImelpVOYOuDiteN3W3yBTI5/upfLWp/zzR3epHNIQEp/Gux/+Hm+Fe2K99PbeMBpBo2Zm8AkFtz7nVmk7mt1HSHn3Ay4fD8RmlcNdktiiYqavlazPP+bLuhfY74kk8523ST4WgO3SRoTpxVbDTFcdtz77Ff/zXhnDeHIy5Rrf/+EFTvq6SRIfY8QWtYKxjmrufHGdvNYhXEISufzO25w56M4SSVCf3mm5COKfyFwzJBNJMz9FX10uv7qRRcuYBftiM3n/YgJHvKWzPrZObNc+pnKwhev/+N/4f3I7cHbzwM3Tn/hr3+NSzNHlCBF90QgbdZzUDbLZ9iL+29/9HTmdclzd3PHcF0bKu98i+ag/jquMQtO5ERafYPJ5NXd//SkFT4ax3HeSt997l7gDXthbbozgXA+xOPhyGgtnd7yc7TGwgLPeObhVBxho2WpQyWcYGxlmbGoOJRbYO7ri4e2F86oKu5vF2YrzJ8ZGGZ9RYOPkjreX6xoB2zj0a/1H3rC6rkqOTBSlG51iXgVWDk64e/rg4SDyxRevtWl1XdUCMxOjjEzMoLZxwtPTQ+sjXv3Wlya2oFHKkY2PMDw5h4W9Cx4ebjjZrPgsTS+2oJqfZmx0mNGpOVRYYOfkhpe3O47Wa59po4lllNiKEkoLc0yOjzA6Jcda8EY93HGQWNFXtMVYsRVfYMr5aUZGRplWmGHv6omni8Pyi1bKAjKV2GoW5pgYfcnLyTnEZDS3sMHZyxt3J/s1RocpS5mr52W8fPmSyTmFiJPC0tYBV09PXO3XbiqZWmzFV6RsdJix6QXM7V3w9HDD3tpiU6D9N476tbqcuJSJufqYN01qEE5kIaKCjKPvJwTzTahf4jkFEMJYxGLtz/4jQ9n5qORy7A/tJ+ovfsaeS5eMYiOIUuYFBQX6Hlmb7y5Kmf/93//9trARRIMEK+P1ast6m/rGB+gW+1fBLhVim5ubq2UjSLWqRR/5+fkRHR39xtQv8exiM8VQ4tnU1JQ2716cJ4VlsNkg6dgUYn1IBT2tdiOYgvqlewmJOfGbxEYQ/fzaBpmO+iWEyBgREmKrIw8ZCocRAyUmmA7Ppm+16qhEYjEYSu4S99AVizT0XNGu8eZmGn/+1wzmPkItl+NwMIjj//7f45eZYbDYtrW18e/+3b+jqKhI3yNrF9CZM2f4m7/5G0JDQ/UevxUH6ChOYjzfdAEb0h7x0hX/bGxsJGMODbn+ZscKEI0YD/G/VEi1mL9CbLeC+qVbB4Y8u07oxBiJ8950rHT9L9aH1BeObg3rKHFbLYi6Nm0FaGer5oqU64h+EW0XYyIMSdGfWuqX+GwUKmys2IqJIn7Giq0YKCn3FoIp7iUWg6GCKc4VImKMUC+L7V/9fEVsDwW/kdj+23/7bw0S2//8n//zN15sdS9TQwRHysSXcoywaAsLC7ViK1UwdGJ74sSJN0YsvqnYGrr21uuTNxVbQ/GQUsZFtEnMi+1+8Utp22bH6F5CYi4t82yF2O6AaPR3rVSfrb4rbYfPVl8b9P3dWJ+tvuvq+7vRPlt9F5bwd1P5bCXc2oQ1yKTcfeUYU/tsDWvN4tHfSJ+tsT66N/XZrvYX6/sM2pCNIGEU37RSw47YSujkNzxkR2x3QDSvTqEdsV3VIztiu0P9ekONXT59R2x3xPa3V2w1KuRTw3R29DDvvJejQd6vwR42FltB0xqjr6uDntFZHHwCOXgwEGfLtcHcW2PZalDNT/Giu5v+BQcO7N+DxxJ/QTd4m4Z+qZXMjQ3S1TOImc8Bgna78GrVb6mWrWZ+moGeZzzrH8fSbTf7gvexy9lmObxlW9wIYuNx8iXdXc+Zc/Jnf+BuHAxIsjHWjaCcHae/q4POoWnsvALYHxSIp4O0VF3dJ6MxcbbiXPXCNAMdnQwrbPALCcbd2lJSTLFufpjOjaBmfmKIrvZnDMpU2HgFcijYHw/7tckJpgz90lL0FmT0dnbSJ3fkUHCglmvw6m873AgC/DTe30F79wumFFb4BB0gOMAHhw1gRdth2WpUC/Q/fcyAXI25hR1u7l747nJ/LcPOEKPC4DhbuaDqFDzkdlYpsvDv8OffOSMNRKPF/Mnprsglu7SRKY0lZjaO7Dn/HpcOumO71LGbJTVMy2SozBxwdVkEuIjfRm4E1cI0LxqLuXXnAfXqMP7wX1wlUiKIRsRoLoz2UJX7kLuFrbhk/B7fP3eUXUuULt29JYmtRs7w4yqys0rp0VhjpbbC/8QZUmKP4bHI3tmGDDINKpFiXZTLl3dL0Zy8xIfvpJkcRINylt7GEh4+amDKTMOCxo2Q6LMknw7GUSKNyVjLViOf4eXTCj7/7AGdBPL2H3+fU26OSAcsoq09lpOTw/j4uORoBF1ZnE1Dv2Zf0lCUQ1Z1D1iqmJpzJe7yJRIiApchMKZOatAop+ipLSPr9l2KLCP5ow+vEhP0eqil6cVWzcJkP0W37lI7PIf59Aizu0+QmZlGxG6RoPA6Hc70YqtGIRvg1n//JZ1ubqhGFvA+FEVm6gl8Xom1N6HYgmJ+jBetLdRXFNPilsiPr0ikfon0Wfkohbce0qnxJe3sPrpK83g4dYyfvhexnMu8kdgqZC9obWpi2jqEuJOBesVWrZAz9vwpdTWllPS6cPX9NIkgGu1bAYVshI7Hj6korWAmLJOrsUeME9u5lzQUZlP8wo3MiyeZrc2haNSRhNR0DnuukM5MzbNVz47R0/6MyqJiRnzCSE8zPfVLPTVIVcFD6pVBXD57gJ6CbJrm3Um6nM5+R1OyEYRVK2dyoJ2qskraX1py4ntXiXT9mojt/AS9vf2Mm3ngYz1Awcd5qE+eJyUhHM9VRsfGlq2a2blxJpVKHB08cDJfmyAjquvqi7PVqGYY7O6jvTybB2PeXLmYRtQ+aWKrmhigsfwRhS09zCrUYOPIoZNJJB0/hJuDIdQv7ffH4hdo3yg4OqFsvMfNbiuOn7tAXJALlkaIrVo+zWBTKQV1z3ipsGNfeBi7ZoaYcttL2OFAlN0ttA0p2e2lpqO5jZ6ROVz3RRJ/yIWOtlae9U5gbTFOVXE7bqcjcJwB7/2RxB00o7X2MS8mFnAPOkyI9SQTLvsIDvSmu/IRE66hJO9RUNOrxn9/KIHeDmteFgZatlo7DPXUS5ryrpO9EM7vX5YotgKxOPOce18WMeVydJH6VVzA9XoHfvcPkglcgjq/LrZC+9TMjXVQVV7BhM1xMpNCsNQW/9vYsl00e42hfi3puEajdSNU3L9B2+4E3ooxUmwnBfXrARXqMH4n9SiyljxuPpETLahfgc7bZNkuPtOCbJzG7JvUbiP1qzTnLl2eMbwdG8pg0Q0evTAjOvMqET7SXAnGWraLXwxzdFcUUdo4SvC1S18fsdWC8LUNZLDhAb/O6SIk5RLnwvdgu2TIbWzZChCNgs6+OmpnZITuieKIRBDNq1aYaMOL0s/5pyYNyWlCbBfn4+rfepatRrnAzNQ4E9PzqMRzmFtg7+SGq8iAs1gkj4lxE266zdkIK3fSjHVTdOOf+L+ynnPkre/wg7cS8HOwXEMg0x2tz7KV9Vbz8f/3CPvTUexjgOqOaVyY4IX1ftJjQ5E/KaR+yhLz8Ukc9hzkyH43HpdVYubqTk9dE2ahUWSc9qDsRiWOMUeYa+1D4+6JbX8bU4GniN6toa7+MY4LYwy4hnE8bDcN128j84skc5+MqhlfTp05T5i3Nauzjo0QWzCW+iXE9v6tIiadj/BWcgDtxfncbHTk934/Gf+NxFYxzVBrKV/ez6O0uZ15m31EJyZxIT2BYB9n1FuOWFyZAPOjg5Tfv/6GYvucyrwHlKmO8qO0o0y15PLlkwWiz2VwYs/2iu32U796Kc2+R6fn6SWxvc6jF+ZEX7hKhLfpxRbm6SoXYjvyFYutBjQLjA0OMTwxh73HLrwczZloryS3ogPl3hOkxoaxy3GlSsL6YisSfiZpfP6Iux1l1M3Osd/vDG8HnyHS3Rt7PYhFkRo7NTzES9kCti5e7PZ05mXFDf6pUW2Y2CrmmBwZ5uXUDCptVQRLnNy98XZzwtpSIA/1i61ydorhl4NaH62LlweOlmaoBc+i+iFZnVZEJqUTe8hzXfi3PrEdb7zL39zqJ/3tC5yw7uJXOU04ejoz3juHz4HdqAa7sfF0oamolD65Db7eTsyr7Th8wI/e/jGCohK5FGHNg4+KsIs5wnh1G7O2KkafThJ84TLph8zJ/zIXmbmK8Skb9viZ0dkqw8HVFnOlAusDkSQlx+NnLapFrHqhCANuWxCLWjfCMIVfZtFl5qd1I/SU5HFvIoyfvh+p140gn+ikqqycSduTXEg6qNeN8MaWrYjn2wqxnRuivjCHkgFPLl88znR9DoUv7TiTksFhrxWGr6ndCFpDf5sRi8KNUJP/kHrNAS4n7KdbuBRmXTn7ViaHnEzrRlicIF8XsVWDYoDcTz7lbmk3e1PeIclPSWVJPbZHkshMisDVai1ta3OfrZKOXoFYnORYUBxHbVfgOpuBaOYne6m5/Qlf1I0SEHOR72VGMVd/i382UGyVIz2UPrzJrYonyLTwcBfCz7/DO2cj8XayliS2smc13Pz8I+rGPYjMiGG3uR2BBw+xT97M/7j7FK/jZ0k5tQ/7dagyesW25T5/+0UP565e5KRlF58UtOB65ASOLXlUzSqBIDLjPCgoaMXvZBKXEw+jnJ7GbOwx//SgmYBjcaQdhTu/WiW2djDxdISA9LfIOGROwZ0CZD7B2LW1MDDdh3rPCTwXOil+ak9SejKXzh3VQupfLVlkgNhqkI/10lxRRFZWNo2q/byVcZ7omJPsc13ZydwIsSh2HbsrssiqaGbWwh4zc1v8k97l4iE3vRtkqrkxent6mLP0J3S/lx6x1aCUj/O8sZKcB1nkPFUQlZrK+aQkwnwdlv1Am1G/pgc7qSkp4GFOMS/cwslISebsmcN4W61AMqRukL18IjbIyumzssdmQYNveDzJceG4b+MGmXy0j8bKEh48yKWDXcSlXCb1zBECXOzX/VR79XPSqGgE5QzPG0rILm5m3sqMeYUze0+eJeV0EM6vcFM32mgw1o2gnJ+i/0klufezqHo2g+fZNC7FneZEkLfkiISt3iAT7jCt92Cii5zPP+Lzehn7jxwkwNuboIhThO3bjS5QQx9i8f9n772j6sryO98POeckRJKEBAIkoSwkISEkIUAIpUpdXT0dxuPwZuznsGyP22+en3vGHrv9ZvpN9x/vrfXi2O6uru6qklQKRQ4ig0CIKJQQOYcLl3TzW/vCFSAB95wrLl2u4qzF6mrdfc7ZZ+/f/p59fvv3++xRRQ9dqlmCfbexxWFx2c8c9ctg0BtdGIbZcSOT9n7OHbJf6DhyOpWLKSeJ2irAUIu9sdoCmelZXpUUQJ0FwpOUma2ohN7oS9GiUnRS8Okdmqfs8NBOMOEZxdm0NA5FrLytjTmxnR1+Qt4nX9Lh4IqzdoZZt3BOJp/G//lN/o9bD+HIR/zb1Ah6Cu5QM6jDLcAHBwcv9m13pqS2gx3xb4qt2mcrQXPttE044OOgY0LrTHxyKt6NN/k/89o49p3rBHZV8EmTOx98+C6XDoW+YdIy3QgG1Io+2pqbeNw5hAoX/EN3sOfAPsI9zYntvL9XPTnIi8etPB2YwTM0ioP7duLpsN6hXwa06gl62pppau1kVA0eQWFE7z1IzJZFp/WaiMWhTlqaG3nWP4HO1p2QyBjiD0XjtyRMTZLYiqeenaDzaTNNL0dwDNhGbFw0od6LvE7rh34ZUI/386SlkebOYdQ44R8WRfz+aEI8XdYkLJksxiKxxYBmaoSOthZauydwD40iLjaKILe1qU5LrdRSsdWplPQ/a6LxyUtGZwzYeIcSvy+O2IiA35jYmp5LPzXCs9Z6Gl6OAnbYu3gSsecAu8MDJYrtaq+m+cgWSQtkc+N0PG6h+UU3ozN6vALD2B2/3+iaW8IwN6aziz4wwXDMJRnN+8rNuxGWPoGYhI2+bKWh7QWjaiciYvYRtzPUSIdbaac6c2JrpOz1PKXheTcTWie27owhKjwA+8lOGpp7sA+PIybMFztFJ82PX9A7ocIrJIq4MFf6Bifx8NtCuC90POvHPsgX1bACvbM3ga7TPH/ykqEpHb5hO4mJ2obd8FMePJ0gYl8kzope2scc2B61kzCfNzdfkim2q3fy0l82kxo2kxqkWYr5UpaKrfkrmy+x3jNb83dc7t+zbpyttNpshNhKq8mStZRl2+JIc0fJvYc1yq8ptmLm5+n55gqluYq8jdiKa4ukhn8JiMWxhgbq/vpHDOQVYVCpcNm9k6M/+msiMjPBQUbGANDa2oocxOKZM2f42c9+tolYNGeMb/H7UsSiVOqXsP2vE2JRwHCE6G8iFt/CkJacuipiUbzVBDNS7iEMTnSQOMTnh5xj6SeI2BTN3CFeCCZMoiBDyTnehoUr7jPe1ET9f/obBgqK0c+pcYuO5NBf/QfCMjJkIxbb2tr4oz/6IyNlytwhPuWSkpL4r//1vxIbG2uu+Lr8Ll6Aol/d3NzeGtsnp0JisAs7tAYX1Vw9BO2rqKjIyLOVS/06cuQIAQGLawvm7vX672IciOcWkw6p4VOmawiXj6jveiAIRfuLP0HYkoNYFHU3hX5JfVFJbSNTuwibkNovUq9t7XJCq8Q4EpPYZYhFMcDkCpiorAklJv7bkvNF54oKSUHEiYwdYZCi4lKNwdSgJu6uOE8qGHlpZyhaWmj6+x/TL8RWpcE9ajsHfvhDtgqerb200CbT9Uw827KyMrP9LcQ2MTHRyLPdvXu32fLrUUBOn6zH/UzXEANW9K81UH3m6ikyxwTPVsxw5QxqE8/Wz8/P3C3W/F08t7Bv8exy7m9iSctFjq5UGdH+4k+MDzmiabIXuXWX0mCmOq0Hr1fK/dazjOhT0Zfe3t7G9jTybDcRi+abWOoCmbkrWX+BzFwNzP9u2QKZ+euaK7Hps90E0bxuI+YWyMzZ1G/q980Fsulp48xBCqj89U7aFFvrm+2m2G6K7abYrjHO3maBbDU2wmq32+TZxllf8YDNma20VW9JIBoJPWZtEI2EKhiLbEYjSG0p8+Xkz2wN+vkddscUaJ18CPJ1X5aSJm65ltga9FrmJhWMTWlx8/fFy3kxRVGcu25iK2Ays0rGxsaZ1trh5u1r3F11aSy92d11J8YZm5hB7+iGr5/vW+yuq2ZKMWrc2dbWxRMfX2/cnRZ3td0IN4Jo91mlgrHxSTR2Lnj7+eHp4risPdYyF4vF1rBwX6UGFy9ffN3lLWK+zcxWYPKUov91dngG+BqzkVaK21ztua0a+qXXMD0+gkJjj4e3sK3lscdWFdsFWxgdn0Rr74Knrx9eq9jCRomtXqQAj44zZ+eKt68nLmvsR/6NcSNoZoZ5UVXA7Xv3Gd/zLf7y26fwWJpyspbYGvQoe1spybpD7kM1p37/+1yNi2DpUtKqiEW9mrmZGXQ2rri7LaRerYpYNKCdHuVJeT551S2M653x276flKupRHnYvxKY1ZMadCg7myjOL6CuS4mNqxdRJ9O5cjxq2X72ktwIBg2K9gYKvsyncVyNo3MAsafPcvZwNF4LD259sTWgGnpOeUEepY+HsXF2Y+vBs2Sc3EOwx2Jbrr/Y6pgafEHNlze41TzFwcs/4PtJkeanAEtKWCq2Bs0c4y/r+eLTezzVhpL5P36HQ18VxKLgJHQ2U/bpP1M0s4Oz73zExVifNwhRq8fZio0DZ5nT63F0dMXJZjHly3xSg4G5wRdUFuZT+WIYjY0j/geTyTwZT7jnmy/CjRBbkYTQ01jEZ7/KZyj0KB98dJF4X/dVX4xriq1mmvGJOWxcPYyTCYkkT1k2aWlhmTNbA6qZYV7W1fGotobnW1L4w2sSqV9GcqGeye7H1NY9oLZujNiP3iE9VprYaqYHeNrayrRDFEf3L6bCrehGMGiZ6m0iJ/cBhm3HORU6S0VZPSP73+e78d44LUxvVxNbvXaWl2U5FD9Xsuf8WVyel1DW4cKFjy6yQ3TgQmtLElvVMI0l+ZR1upFy6SizDwuoVHiRlJbKbt/5WFxri63BoGXwQQH5Tf34J6axa7KO7AeTHMlI4XCEv/XSdQ0axgc7eVpWSsnLMbYmXOejU9tl2arFYquaYaSjmdKyWjonXUn4wbsc/KogFg0zDHa0034/h/tKX/acuUJ6nByx1dE/9IQns9NsD95DhOMi39ms2BrUdNSVUFI/wI4L6WzpL+XXD6ZJTkvl2K43bWElsdVNDtFWX03N0x5mtAZsHVzZtu8Ex/fuwNvFXnYGmV49S++TGooKHjLsFsH5d1LY5+shW2wFNrKnuoiaYSeijh0nJnAxNV+W0VmpsEyxNUoDuolBmopuki8HsbjwAAIgPtbZQs6nVXhdyiDVrNiCXqdlemQesTjhvIBYtLfH1tYG7UrUL52GiWcV3Ch/SuCBDNK3KigsLqXS/Tx/emE7Lgv5iCuLrQGdeoKGvBzqRxw49W4qDs2lFD8YZudH73Hc2xkTQF6S2E50UVWUQ7UmbpH69URNwtmLHAyfjyO2utjqp3lSmEt1l5o91zMJGXhEbs5jtqSmkRwdgoOEb2tL3QgiF3+u/QG3iuqwiUnnWyc3RmyN7izdDB01ZVQ2fQURi3od6uZsPq5XEnAwVbLYCuoO0i6pAAAgAElEQVRXS2852S8qeSSoX1tPcXnHCfb5+ONihvplNDbdNM3lBdQ8N3Di2jl8R+v5xa0n7LtwgVP7wnn9O2clsdXPih1QnvO8fxS1zoCNvTMB4buICgvE1dFOttjO95WC1uwCqkYcOHo5mb0+csTWgHCTjT+t4UZ2Hc57TpGeuA/f11wzVtJQyZe1QGwtRCyaqmT8hGoh+9eV0sRWPUlvfT4//yyL8scvUTmFcTjpAh+8k05cqM/KiEXhq3tazo2KZ/gdyuSSUWxLKHE6w5+n7zQahDhWF9tx6rNzaRx35vT7qTg0lVJUM8C2D98n0Vem2Co6qS7Mosqwb55n21rIjdY5EgRiMWIe1mx9sZ3icX4uD3p0xL+bSXDfI/JymvG/kMa53aFWFVvxfHMva7hVUAsbLLZfHerXApBerUKt0WPn6ISjvQ3a1ix+8VBJwAHpYiu+UqbmRmnuekCNUknctpMc8dqCu4OjkflgdmarU9JUVkBNux2nr57FZ/wRv/yshdjUVBLjI97YyWJFN4JBj1atQqXVzXN5scFePJODvfGzXQobwaDTolar0OptcXByxMF2ihYhtsP28sTWFrSzCga6u3hUUUO3RyypyQfZ7ucmyz8vWTHfouBXX2wRBK9pRnufUF1Ty6RTPGnJe/DwcDOyM1ec2eq1THU95G5hIy5RZzgbpqSkpIbnO67wu8eCXhHGVnUjaKZpK86molvN4YwUHNtKqWjVk/DdS8S6OclzI8wMUF+SR8VQMNcy9jP1qIDCAScSU9LYEzgPq7C62BrUdJbnUfJ0jPCUDHaM1pNbOkBsRgrHJFKwLJ3Zboqtcd4GmkFKv7hDXm0X4UnXyDy5B5+uPNliOz/WtfQOPqZpeppdIfuIdFrM0jQrtoZZnlffp7xZQdylNIIGKvi4eIiTaWkc373lDUjPSmKrHeumtjib7IfPmFYbsHHyJO5UBhdP7CHAXRpicaqjgew7N2mc8Ofw1csk7fakO7dQvthqphio+ZS/+7gOu/AjvP/RVfaH+rzVXmFvoadrnipbbLXTY/Q8aaQs/x7Vmt18mHGa6Kgd+LkuhsasGo1g0DE51EHLg3LyshrxSD7PhYRj7Ar2xnHBj7raAplmaoCnbW1MO+zkaLwZny16VBO9PMjNp3HMBj8vUEzaE3vlfRICHV/N5FZdINNpGW4rJau0AY1HCE7T/UwFJfDhxUN4OSw+pyQ3gmGWnoYKCu4/Rr89DLv+PmzDD5ByNoGghfUIa4ut2OZnuqOWrPsP6LMJIthmhH7HaDLOH2OHv6ukGYBFYqvXMj02wLOaIm6XNWIXmcw7F44QtsXfSHSScljqsxWr2+MDz3lQUEhV2wRb0zM4GxfFDn8PST5qUTerRSPo5lAM9vKs9Da3Wqbwjz3D5aS9hAaK9YT5VrFeNIKByfaHFN2vYtBzGx7jHfS4RZF5PpHdAYu+X1PfWH+BzIDYwmqos5HSu/nUj9mzNzWV5L1RBHg4Y7eAbVxqK8sWyGzE+kwdn91rwTM+mZRDkXg4SrMtKfa3nmXkia1Ap420U1dZSU1bN7M2Aj0YR0JSItGm3QvXiEYw6DX0tlZTWVFN+4gKW99Qdh1M5PyBCNwXRGy9Qr+MYT89T6msruXFlDNRh46TtDd8Gfl99dAvA9rZcToaH1DV2IEuYBdHTxwlOmB5mJsksRXtMT3Ck/oqKpr7cAyN4fixQ0QGLIqc1cVW1EE7RU9rPVW1rUy6h3Lo+HFit/q+GtzmjMoisdXOMfSigbLKhzzpV2DvHsTuIydI2B9NgGn/FzM3tlRsRf91NlRQVttCv9KATeBOEhMTOBYdsiz6Za3bW01sVRN0tT6kuPIRfUoNju5bOJCUzOHoMDwW+EXWE1sjRZ6etkeUP2hmyi2c/QnHiAvzxXmFpfuNEFvt3ATN5XnUNL1gbM4G14h9nD19nOhgy3i25mz5N/W7PLGVWMvNpIZNxKJEUzFbzFKxNXthCQWsJrYS7m1VsZVw/42b2cqozELRb0ycrZSm2RTbTbGVYidSymyK7Wa67ut28rUT2+npaWOq3tsgFsXbWSD55BxLVzK/6ojFscZG6v/mbxnMK0KvUuMavYPDf/VXhF7KwFYGz9bkRpCLWPzJT37yjUEsysUMyrG51cqKmW1xcbERsSiVeGXi2X6dEItCBwSBTyoZzzSGReqy6DepbSe1z0R9BFVMaIscGprU61uz3FLE4ivql/DRTUxMyMYWmpz7wh8qUIBysYfifHGu6DApnSuMW3SqaHS5nSrOFfcS58k9V9RzsrWVlp/8b/QXlqBXqfDYtZ19f/anBKemgkzE4tOnT/nhD39IRUWF2b4W7Xry5En+5m/+hujoaLPl16OAnD5Zj/uZrmHqX9E/Gz2wFAoFlZWVxoUyKdvBmOocGhpKfHw8Pj4+b9UUos3F84txIOf+ItFHlDcO5hUWmORUyjRGxDiW0/4mezEyW9+yDq/XV9RJ/FmiLXKe3RplRbuIF5dALL7i2QrE4m9ipwaTE1nKTg2irBBaQT8XBimFf7u0AcXziecU51pC/Vq6U4MQW9fo+Z0awi9nyoaHm3bXFTMpc4cw3o3cqcG0aCnaWnxtrPfgWet5TZ+MYhaz0YPL0p0ahNgePXqUwMBAc1256u+m2aEYB6b9v6RczGzol5SLLCkjZpHiz/RlIaXvl36dWgP6bkpjFjZhySRJZhOsW/GlfngxjjZ5tjKaVmo0grlLbkQ0grk6mPvdomgEcxeV8Pumz3bTZ/u6mXztfLab8HDzSrAptubb6G1LbIrtpth+g8XWYEQsKhSTaB29CPB2fbVf/FI/mxBrcby+wGZELE5NMjGlwdVXoOUclgXVr1ecrcgj1M5NMT6uYFZni6unD76eoq6LXbcWYlEkAmhmp5mYnAI3H7zdF9N0TVeQKrYi5ndaMc741By2zu54eQvE4mJyxMbMbA3o5maYmBD95oGPlzsOi7Aos5po6cxWr5ljSqFAMaPG3tUDH28vXGTc2GKxNaJAZ4z9P6O1wcnTGx9311fJM2Yf2JpJDeLmeg0zE2NMauxw8/Ix2sPSUHzrhn6JMTzD+OgEBldPvIUtrJIHYO04W71WZRwbwj7E2Ji3D+FrXr2HvjEzW71qkp5Hhfzi41sMx/4rfvS9M0YW59Jj9dAvA7MjL6m++xm/uj/O6T/+Xd7bt00SYlGIn1arwYDYL2zxfqvBw/VzE7yszOHjz7+kbcqNuLPX+N77yWxdAqdYK6lBNz3O84ocPr5ZilPq7/GvU/ayxXW5BUgTWz0zPa3k/vpjbtZ14RpxiIvvvcP5+HBcFsRuI8TWoJ6m52ERv/rlHcbirvJb30oj0lN6po1FYmvQMPa8jruffk5e8wBeMae59t41Tkf7S+IxCJuyVGyFnfY/LOLnn9+jedSW0FOZfDszib0B0jcwtV6crY7ZoeeU/OJ/54vhUC58+FtkyqJ+CWa0Fq3BgJ2tQIYu9qMUn61BM0N3Qz7/93+7jcPZa3zn+xlE2LJiZp21xXays46sX35CbusgttuP8N4H75MYFbAMZSprZqvXMKfSYWPvgKMQbSlv1Q0qIzOpwcDcVD9PKyqprXtIT8RF/vh6gnSxNegZb2+gvLKSusZp9n//fTLMUr/mm0s7M0T78+fM2m8nPjb4VfOsjFjUMTXQSkF2JbPB+zm2VUVtzWOmE97nw5jFlMjVebZ6VKOdPKx6QFXdY+xPvMN7J+MsE1v1GK3l+ZQ8syUh5RCqhlIeqQJITk0hynseaGt1sRULico+WmofUVpehyYqgcz0FKuLrWF62MiFqBn35fypHXSWV9JhG0pKZjLhpjeNGUO3TGwNKAefUXavCEXYAQ4EzlFS0YhvfBrXT+z8zafrGmboe/qY1oJ7VKi2cvD8dcnUr/nm0jE0+oL22VlCg6IJdZhnbJhsSalUGhdfxOLUSgta2rF+HrdUk3WrDvejp0h/74IssdXPKOh62sLjnhFUWkH9ciJo5x72bN9qnKEvXSBbO2RPR1vWJ9wb9OBswnZGG+t4abedCylHCfd0kY1YRD/LUFM1dYO2ROw7wK5A8fX21ZFbmWJr7M55xGLhTfI18fzuZek8W+PXk07FuEAsfiYVsTjfWCpFOw8qq5hwPkxGctTaYisQi88ruVn2FP/96aSHTFBUXEq1Zwp/krLt1Wfs2m4EA7Oj/VRl3+Jp8GmuHLdQbCe7qS7KoUoVww/S9jDZXMCdZzoj9etA2Pwsy+piO38TVMpxmvK/4KE+lHMXzltdbDVjPVTmf8lz76NcTdzNQMlNSgfsSbh0nXh/advMWCq2o511ZN9rJOBYEgnbdeTcKGRu6xGuXjyEaHUpQ9B6M1sDBp0OVUsWv6yfkoVY1GgnedpfR/6LKh7MzrA7JJGM8MPEePniLAWxuGBvOtUQFf90k+7AXZy4fE6W2OqmRnjRXM+j9gHmjIhFV8JiDnJwdziezlJ5tgIXNkXZx5/R4hlN+pndTJQVUj7gQMKls8T7y0EsGpUFZccjbt26j2ZnAhfPHiXQxe5fMjx8XuP0ykGaCm6QZwHPFrmIRc0UQ48r+SKrkIrmZ8w5bedYUjLpF06xc4vnqojFyQXEYsChy2RsHaewqIT7zkn8RfouXNZELC5OteZGB6jKusGTtxHbiU6qC7KoZB//JsWEWFSRcDZtwxCLpifSTClozL1J3QaJrXqkm4q8u7wMPMG147EMlt2guMeGoxnXORAkbat3S8V2pL2ae9lthJ44w7HtOvI+zWcmaD+XMo8xD7Y0f6yv2BrQaTRojeJkj71AA1qAWNTpVAwpO6h9WU3d9DQxESdJDIgkyNkVsdGSFDeCcW6sHqb8v9+gO3CnbLEVLj2d2OJcr59HLBpjeu2xN8b1SkMsikkbjFP8zzd57h9L2ulYJssKud8Lxy6dY3+g56pfIMt8trY26FRTjA320VhRwWNDKMnJx4gJ9pL8BWPeEtanhAUz2w0WW4Me9cwE/Z2tVD+oRekUz4Uze/Hz88bF0X4VxKKGqY5abhe14BF3npSQSYpKKmndeol/lxiM88ICzZozW+EvXA+xne6jrjiPCkUEH16MZ7Ixn9xuO06cS2Nf8Dwab0Nmtkb+yMaKrU7Rx4PCbFqd9nHldBTdRbepUbhy8vIV4rytO7Md724g724tbodOkRCuJveL+7D9FNcvxL/BbF1tKK2f2ArEYj+Fv/qMe1UdbEv5Fu+eicevO99ixGJnbwN1U0piIo4Q47yYpbkRYqsd6aAy9za3a56gVOuwcfYmPvk615P2E+gpDbE43+azVP/6E2rtd3DxTDRj5SXUj3uQeOkU0VK3xRGIxerP+YdPH2IIiOPqt9/hyHbh85Xy7bI+Iir1KjLFVqxoTzHc0UZV/l3KNTF859IptoVvwWvJ6vrqiEU9M4p+njdUkXO3AY9zF0g9HE+Ynzv2C76V1aIRNMpeWpuaUTruJvFwxNpuBPTMjXdSmV3Ec40nYb56+vpnCU3/gOStzq9W4Vf32RrQzEzQ86yVkpxs2gOOkZl0lNjt/rjY2rz6BJW0QKafoqOunKKqLjz2RGLT8Zwp/xhSziey1WXeIDZCbHVzSgY6X1CZc49mw1bOpKRzMNIPD6fl0SCrGY5FC2QqBU+qiyh+PMXOaD/6n/ajDz1AesoBAqyMWJwb76E+L4smnR8hrlqe9yrZffoiF/YES3IhiHZYP7EVnaxlbnqaGZUWeycnDLMT9Nfc5fMmJX5xZ8k8GUWg92KEiLloBJ1OjUYskNkJZKi8BTIRpTPS/5iCf75Ln+8ODl1K5dAWPzxfiwwSbbDiAplOy9zcNDNzWvRihmpjh5OzK67OjsZ91KT7bA10Vdzkk4cKYrb7oxgYgLCjpJ6MJXDJPoOv2+SymS1qJl+W8483GvE4mMKVxFi8v2I7NJjqL1Ns9cz0tlKck0Ve7TOUNp5E7jtO+pUM9m9ZdNKvJrZiS5z2mjyysnJo6Z3Fbssu9idl8l5SFF6Oi4tFS7PXljr4RWXFsfTfVt3KXDvH6PN6snILaZ1wI/5MKldO7F4GFV5NbA16HeMvHpKXdY/Sll7mHALZe+IsmdeT2O68uCuuJLEVn2wTfdTdzybrQSeuOw5zISWJvaGLn0lWF1uDwdhvRTn3yK17wTTu7NifRMaVJPYGSfvcskhs0TM7/JIHRTnkNwzgv+cUKSln2O0vTeBFX1vmRhCNrmKis5mcnHyaxxzYdSKFlKPRbFljEL8+qNdVbJdefG6UpzXF3MwupX1UjZNvOEmXr3P20C58Flis5sR2tZei+ZmtAWVfG2U5tymoeYbS3hPf2NN8O/M0caG+b3x6WzsaYU7RxaP8LylsGcQp8jDpF5LYFbB6KJrJJkzcFmMGmcGAXmiDjc0bYahSZ50bUU6m2Eqr0ib1a5P6Jc1SzJeyWGzNX9psCauJrdk7WxMeLuHmS4pYW2zl1Wa+9DcmzlZK42yU2Io3hZidisa3lI0g6GbiXBEmI/d4NbM1Ur9UuO42sRG+XmIr2lm0k2AjeHp6bjgbQfSvSI7ZSDaCeGYTG2F8fFxyDr5oIxMbISgoSK5JvSr/tjNbAY0R7AApLIO1Kmmp2ApeiYn6td79Jq4tqF/CJv6lsRFMdX+DjSA+0cXgknu8jdiKe8mB4AixfRsQjRARR0dHy0A0jY3U/fWPFhCLiyCasMxLskA04plbW1v5gz/4AyPSz9xhAtH89Kc/JS4uzlzxdfndlL4tBXu5LjdcuIgJhCIHxrJe97dEbE2IxWPHjhEQEGBxVUxiKxdEI24o4myF2K4WZyunUiacoRzE5VKfrTVBNEJs5ZDI5Dy3tcoKrRJ9apo82Oj1eoPw0YlOE0Ik9xAGZ8K8yT3fNFsV13ByWtika40KmO4l3nBy36DiXPGGFOdKwTm+Xg2FQCz+w/9Kf+F9I8/WfdcO4v/9n7M1LVWW2IpnFojFv/iLv6CsrMxsc5sQi3/3d3/H7t27zZZfjwKiP0V7if5829mSnPqI2ZG4t+gfMbA28t5iRlteXs7o6Kis+5oQi35+fnIedVnZpePA9OxSLyZsWhxy0YwrXV+0v5jQmBCLUtr/beou5RlFfUS9NtoWpdRtrTKmdhH1FojFTeqXjBaVukBm7pJWXyAzVwEJv1u2QCbhwmaKbPpsN0E0r5vIps92SYu8jRthtdCv1cbkqtEIEsa5uThbc5fYFFtzLfT2v2+K7abYboqtmU/71ahf5obfptgWmWsi4ydtcnIyP/vZzzbMZ7s5s5WWhGFaIBM+2/WAhwuXgPB7SnVzmQ/9MmteywpYukAmXpJiMiPH1yu1Zpsz282Z7dc2GkF07abYboqt1C1upCc1SJXX5eW+MWKrUysZaK0mK7sExc4M/ofLR3BzXA5GXT2DzMDceDcN9/PIrZ/m8HfeJSVqqyTEosGgQ6fRorexN6LTTMdqbgTBkJ3sa+N+Th4PZiP48P0UYoK8lmUPrUX9EsH4tfcLKGnuRecTztGzqZzdE4LjEoqQJDeCQcfswAvK83IpfzGMc8Aujp5NJmF3yMYiFjUz9LfUkJtdyuTOZK6lnyTMTXpKo0Via9AYoUOlBcU87BzHNWwfp84mc3iHr9URi4KbPD30gvt3snk8F8DZ711lj6crcpZ7rRdnq2NmuIO6Lz+lZCKY42lXSdrpacy+Mh3mQr90Og06RAaZA0tBglJntnqVghfVBeRXNNI9qSdo3xkunktgh78bdkvMwvozWwO6WQWNRV9SWPeE4WkDocdSyDh7nAhPhxVBMtYXWwPa2XGKf/VLmrR22OrdCIvaT9KJWHwdLcc2ykxqMDA9/oLae3nUtj5nIvY6f/audMSiyMwaarzP3aJSnnQ6cfJ3vkVGrDSerXZujJ7OTlR2oUTvXAypWVls59Ntn1XkkV9dS6fNPr733YvsDfWRJLYGrYre6lyym4fZeeI07p2lVIwE8+63zhG8JKVRkthqFTwuy+N+q5bDl06ifVBIg3YL59MvEOk5/5Ky/gKZAe3oc8oLyymubsPjyDmupFuf+sXsKI/u51Ax5EXq+UjaiyvpsNtG+tUkQp2kkcst9dnqpxV01RfwWWEDSodwUn/vWxzycZfMRRD9YjWxNUzyvLaKmrtZNLnFcDL9XZmIRT1j4130qOcI8ttOkP1i1I5UsdUNNPN5di0ukftICJ3m7o1WAs6lkrxvG25LumYlsTVo5pgYH2FscgatHrC1x907AH8fNxztbGWk64pW1jI73kFlSRtOMYfYMVTCJ81q9iZd5Ey076s0/qVzW7Niq9ehVo4zrFAyp7fD3dsbJ90cWgdXPN2d0c9MMaUy4OJkQDmpZEalw9HdBz93e2amp5iankU31U32zSpcE+LQPOvFMTSe86d2YTs9xaxaj5O7Fx62GjQOrri6ODGrGEFj74G/i56JWQPObu64OC1mm5rG+apxtqYg9mWTeIMW1dgATcVfUKw7IBuxqFPPMNzRRP7NOnwyM0iVyLNVK15SW13NhNNB0s+YQSzOP5nxjdn+6D43HqhJfydFstjq1JM0F+RQO2TD8eupOLXcp7hugtjvvMNRL2dM82pJYqvs4UFRLpUzu/hu+j4mGvP5st3A8fNp7A/ZQMSiXseMYpSGgjs02YRvEGKxl6qCLJ56HORa4m76Sm5RMeLI8Yxr7PWT9lluqdgK0dFrlLyoLqe6dZxdH1zmgPdXRGzRo9WomWvM5ldNMwQdSpMstlrtDN2jj6noqObh9AxRYSdJDo4jws0DJ4mIReN4XoBsg4A2VXKreIBtyedJjN6Ks5mZrUCsttaVU/mkh1mNARzciDyQSOK+SLxdHWSKrRiqenRTY3S21VNSWM5I0EHS0s8TG+i6bJZt0iFzYqsae0nFrXs0TGjQarTYB0UQPNvPoE8sKSfjULeU8KBPT4CriqGRSUSgnBpP9kf50/qgmm6NB7sj7KkvfYpPwn5cJrT4bosikm4edU9hLzTQ0ZtdtsMM+O3n0L4wGm7+itHgBD6MnqGox5U9CUnEh7ote1nInNnOP+6GIha1M4y+qCevqITKxjZmnHZy8swpkhKPEOHvbsTWrZpBplHS8aiYX1fMkiZZbA3o1OPUZ+fSMO5M0gepODSWUVTTR8S3PuCU3+L2OJLEVtFJVWEWVcTzb1LiULYWcqN1joTkdA5tm4f9WX9mO99vG039EojF8ry7dAae5OrxmEXE4sXrHNhiTcTiq2HJy6pSKhpHiHw/8ysktqLT9ahbvpRJ/RIZkzN0jbRQ8rKaBwKxGJbI+a172e7uKU9sF5pI8byW/LxiJkISSEk6TJiX87KvP+u7ERYqMjPOy5YaCgsrGPLbz8WLKewJFi6NN11d5sRW8TiPn/7qGcevZXDQvp1P7z/B3c2GQYUHB/ZvR931kBF7d3of1jNo40lYsBt9PaOE79qJon+UsONnuXrMnfyPS3E9Hsd47RNmXO2ZftZPwLlM0nfZUnS3EJVuikHDVuJ2ufP4fiu2ASFs85hmxDeGxLNniXS3Wfay+OqLrV7D7Pggz9oeUVX3iCmnPZxLPkBE2Fa8XB1XRiy+cuhaIrag00zRnJ9F7QAcv56GY0sJpQ+V7P3uVQ54ypzZTvVQW5xHpTKSjy7uY7KxgKwOAyfOXSR+69cbsagd76WmIJs29wNGeHhv8S0qR504nnmVvb7WndnOm8DcV0RsBWJxkJKbt8it6SLs7DtcSdyLb1eeTLE1GbaW9p6H1Cgn2bv9OHESEYuqyV4e5dzkbsMYIYfPcznOhsqyJvpdd5J69gjb/T14nUy4kthqx7p5UHiP7LrnTArEopMXe09ncunkXgI8pCEWlS8fkXX7Bo0KH/anJRETGERIoC9uAxX8Y04nQYfPcu5QOK52b7qbzInteMNt/u7eEJnXMjjq+JJ/zm3AbUcktLYw4uWKYdKe+L2+lJY04RYey4l94djYOePHMHfKnxGxP5G0vTbc+0UpLiaxddIy9FTJ7suXSdttR9GtfMY9fNF3DmHvrGBYtxUfhzFe9NkTe/IU6ecP4WW7HFIvW2yFv0Y50EFtwRfc1+zhB5dOEBTgjcuSXlprgUw9O05P20NybtbimZbGhfjd+Lk5vaL1rBb6pZ7souFhPZOOezl3Yof5BTK9BpX43Kku4mbtLOevpHAwKhx34eBeeFmuSv3SqemrLyTrYQcBu+Nx6W/iuX4X714/RcASP4ykma1OyfMa4YYYJfzkXgyPH9LnsoNzKWcId98ony0YNCoUg708yL1Do2ErySmpxG11w9lemuhZtEA2N0ZzeQFlHTYcPhRMV/0TFD4xXLx4jC2vLaouc1Ut+T8WuxH0WlTTozwuu09lyxjhVzM4HrIFXxfpxLF19dkaVCiGRxhTqnD28sXTwYCy4Ut+1aDEf995Mg6F4+nm+GomtPYCmQG1ZpYZnR5nR1ecbRcFaS2frdglZWp0hNFpDfb6CRoKCmlnKwdPJ7DDzxMvTw9cHe2Xbba4ss9WxaRilDHlDLoFn62btx/+Xm44SPTZClTr6MgwUxqwtxmmKq8B28gD7LF5RlbLLLGJqZzZG4yTBWI72VnFP/1jJUGnTrLLppeqJwp2HD/Dlie3+EVtB/qIdH47JYja27koQ+I5eWwX030DuDpOk1/TwY74k6TugbtLxHbO0wu77udoohM5GWqgrrYV9z2n8GnOJavxKdsvZBA0XMenLe68/85VrpyMfIOgJlNs9Ux3N5J7+xa3y5sYx5e9R85w+YPrHNnq8mqIrCy2BvR6Fc/L73Hr5m3q2iexj9jDsdT3+O65WLydzCAWjRs+ajHY2OGwRCBWXiDTo57upS7nDjdul/Jk0kDovuOkXf+ItDi/VzusrrXho0rRTX3hl9wre4w2JJ7UK5dIjAxc9uaXJLYYUI92UpnzBbdrBGLxCOkZFzga6fcqCu8B6tsAACAASURBVMPqbgQBkuluIufO53xR1ooSL6KPpfHut86zf4v3Kx/0aoIn/t0isUXHdN8TSrLukNvQj9/eZC5eSiF+y8q+uJXub6nYqpVDNBff5PN793k2osM28ggfXL/KpWM7cVjrQZf8tq5iu/SesyO0lufyya1cWofmcPXfReqHH5F2dDd+C2td5qIRVnsEqQtksx21fPzzf6LshRJHJ1e8wmJJvnyNpJituC7x8GyEG8GgUtJafJsb+VV0zThzIOUaV88fJdhtufBL9dnqZsfpqsrmi/Im+lSuxJ5MMzJynXtL+PizWhyPv8O1hG3wopTbOVW0jMwQvDeJzIO+1Lf2ErwznuORNpRm1+O0dwfKx51ovcOJ8hymqLCajjENW/eeJD3tNM6Ps/l/crtIeP8cvl0PyX/hQnJ6Cscjfd7oIpliO+9r0un0Rn6koMva2thia7d8r5+1MshERII4X9wYG1ts7Gyxf+3NvBrPdiUDWz2DzIBep0OnNxi37rCxtcHW1m5ZeM3aGWTi5aBHL17dxme0fYOVKU1s5xfrxLV0ej02trbGeizdh87qYmt0DJv6TeCeBfdz5WdabRBbJramZ5/vBxtj+wu+gUS1exueLaL/9cZ2X6AgG+10aXiVuVpYTWwxYBD2IMaBsRI282NoCZje2mI7bw869PMVWNjaRtjl8s7ZCLGdN09hI0IXRFuIMWIrf8PHJR06f72F1hXjTbTtwhjgtf8violxKSbReuNwF+ND7JeoFwI3v4MPNtjYzNvU/E5A8+NHnCDuY/xvg9BF3hjfpmrJF1tzFioW0PR6I7lLHIJuI+fYzCDbzCBbai+Wzmzl2NxqZa0ntuZrZ3WxNV8FY4mNEluJ1TEWM+ezlXOtjSy7qtiKmYzAD0ohb71eYROJS/y73PNN54qKiXPNUYZMVChLyF3iXJEOKTJjpKZDLn1WRXMzTT/+ByP1y6BS4xq1gwM//Au2pqVh6yD1Y3U+GkFQv/7sz/5MMvUrMTGRH//4xxtG/RLtZCKxmeuT9TRg8fUhvl4EKWmj2aVjY2PG/pBL/QoJCeHgwYO8LfVrKWlNDkpQCKToo/WgfpnaX1zLSKmS8Fki7NnSukuxHVEn8SdsQk67SLm2NcuY2kXozSvql06nMwihFQNMAIjlHmJQirePOCyBcpvAw1JmxaLRhXGJB5Ar7EJsxb3Euc7Oi9v6SH3e8aYm6v/mbxnML0I/p8Y1OpLDf/UfCMvIEHw7qZcxlmtra+MP//APKSkpMXueMPikpCR+8pOfEBMTY7b8ehSQ0yfrcT/TNYQNij+RY7/RYitEVvCFhehKvbeJZ3vkyBH8/f0tbgoxMIVdm/gCUu8vbijGrhAhYdNSxHGtSpraX1xLKsLUVHcTPHy9BVG0i4nzu97XtrjDJJ4o6m7KXzCmPwuerRyA90ozW0vdCOJa4lzRmF5e5jedflt4uLiXeGuLwSz3GGtoMMLDB/KKMKhUuETv5Oh//GsiMjNli62Ah//+7/++LHj4RoJolu7UILed3qa86TNWvPSlDva3ud/Scy2Bhy/dqWE9QDSWwMMnJyeNL4f1gIcLsRUTJznw9qVshE14+HJrlJdBJsGSN322X69tcUSXW7xAJsFe1iqy6bPdpH69bh9fO5+taRuUjd4WZ3OBbHOBbOng2hTbTbH9RoutCKvQajQYbB1wcHiTgrPmzFYwC3RatDoDdg72y8K+RKOuq9gaY3M1aA22ODrYvxHWYg4ebtBp0Wh1YOeAg/2boSjSQ7/06LQaNILaYSsW4+zfIDw9fvzY6EYoKrKe2M73mxa9qIP98vAzcxNQy2e2BvRikUunx9bewRj0Lud4G7EV5C+NRotOhOMY+1DeM1s1GkGEIRlt0wY7e4c3gCsbEo1gGh962zds0tRHGxONsGAjWi160R4O8321WoTgN2dmq1Mx/rKWm599yfD2DP7dtQTcpSIWBeNnZpi24ixulo1y8HsfkBotDbG42gBdNc7WoGNu9CX379ymeCKEjz5MJy7IUxL1yyj6mlkGm8u5da8Sjr/Puyej8F9K6ACkiq1urIvyO7/ik+LHuMYkce2dSyRE+r1KJtiQOFu9jvFnD8i6lc1gxDnevZRImLv0gFdLxdagGudJ2R1+WdbHntQPeS8hQo7WGv2FFu2uq51D8fwBv/7kcx4M27H7wnu8e/YAER7m97UzVdCaYquf6qfu7j+R1e/PyYz3OLPTQxZicbVGlJrUYIz9VnaQ+9mn5I5H8N33L7I/zOONy26I2GpmeVFxh08+y6FZ4cbxd77N+6lHCXJZOdb2GyK2BuYmu2kqLKSs5hGjMe/w7987gYfz8pTP1Wa2IpB77Gk1+UXF1D42cOJ3PyIzLkISz1anUtDf24vaNpgd23xfGcVqYqudU9JVX0JeSTmPNTH84PuX2CcRsSiCk2eHXlBdfJ/Suue4n/sOH56KY4vrcnGSJLbaSV48uE/RwxFCDu7G8KKVAY9Izp07TcRGpeuKr4mJbh6WV5B/vx67/ed451IKkZ7WFlsVwy9beZCVzf0+LbEpH/G9pMVUaymqa6nYzox28CAnn3bHELZ7qmh6PsD24xfJOBC+6ozp9fpYTWwNU3S3POLBnVvU2ERyMuMDLsb5yBBbPYrJPgbUKgK8w/CzX6T0ShVbvXacJ5XV1JQUU+Wwl++/e4ljO95ckF4VsTg2wsjk9Kt0XXefAAJ8PIzZmUsXyMzv1KBHNdlHeU4Jo55hhE01UzLiybGzFzkZ6S0PsajXMtP3lJZ+Fb7bdhpBVfYSQtWk2OF6lJGd1GCEeE8M0VR0kwLNftmIRb1mjtHOFvJuVON1STpiUaVo50FlFRPOh8lINo9YFFljIg2wo6GYz6rkUL/mm1W8GGZG+6nK+YLnwae5ctxCsZ0SiMU8qqZ38p10AaLJJ+ulQCxuMIhGL4x6jMbCO9TrQzcEsShSbwQ+b+ZFLbeL67CJSedbJ7fLslvLxNbAWFc9uXfq8T52moRtWrJvFqMLS+B62gGkxp1YTWyN2W0aVE05fNIwRcDBVMmIRb1ew+TsEA2dNTyYUhIbkcgxn614O84DkqSKLYgMMgO9FTf4eQucT03l6HZPSTNb7XA7pXc/5fOKx0yodNi4eHMo9UM+OHeYLV7SQDTLbqQ3oFULSALM1t3mvzdpjGyEpCgfGWJrQKPopOCTz3jmFkPqpQvs9F4ZPi7LANexsGyxFffWTw7SVHiDPHW8bLHFoGass4XsX1dKE1vdHBO9z6ipqaLyUQszTtGcPpPAgfgYgrxcrIBYXGzd2dF+qrNu8uRtxHai08h0fQOxeDadQxFfb8SiqSXnXtZwq6AWNlBsR9qruZfdRuiJMxzdriP/03ymg/aTmXkM8wGF8zW3ntgKVdShbs7iF/VKAg5IFVuRLKDk+cBDCtqreDgzS3RoImnhB4n29MVZDs92oXN6Kz7nHxv1ssTWmOorEguM6bXiQsLvbI+9MelhXvBl70Gm16DoaiU/6z5TYYc4dyaBELeVfezL3Qi26HVq5pQKnlYWcb/LlsPJpzm2a8sbBLN11E2LLmWZ2CoHaSrYKLFVMdH3jAcPqqmqb2HaKZqkMwnE74u2utjOjQ5QlXXj7cRW2W2Eh1fNRvPd9L1MNBVw74WOhLMXORA6nzCyIT7b3wDP9jcptqNddeTcbcT32GmOb9OQ83kR2rBjXE0/xDzY0vyxfmJrAO0odQWFVLT0E3zkPGcO7MKzI9dyxGJ3LVXKSfbtOMEe58WU+LVmtuqpIZ5WFFL8dIKgPce5kBCL8uEX/JNMsdVODNBSU0pZaxczGj22ju5EHkri9IEofF3tJYntTG8bpUUFPJ3yJu7saaLsR6grrqbXfRfJpw6zO3j5FlZLe2uZ2OpmGW29zyf5TQyr3DiYdomkveF4OUqj2Zm3gvUrIV9sDQZEYzcW3CBfE8/vXD6Gl8DWLXH/rQ2iUTHS0UTOr6vwunSRC7HbcXpt76WVQDSmnRoUTge5KGWnBvEJq5qk/VExnxrh4efZG+a/DOa7ZjSCIGWN9M3PbLec5sqJPQS7L3fYS/PZTtBWUcD9Zg3704+ge1hMsy6E82kp7NiwbXHmgTAq5RgNObd4aAjh7IUUdnkt4ibNmZTFC2TC/91ew82CWmx2p/OtxB1G0IdUb7FlbgSYHmqn8sss+oMPcMBfRXllK4FHL3H1aITke6+r2OrnGOrpZWB0GregUIL9PLBpy+Lj+in891/g4l6/ZZEaa0cjiJmjkkmdDjcXT9xsF4VlLbHVaWZR9HfTp1Dj4reFsABvBqtv8E9NBs5fECQ6b0kgGoN6htHBPvrGlGiNgCEHvAJD2BrgjbO9tG1xtNPj9PX0oNA44uXjzPOyXJ7ot3HuzFG2Bbgbt9dZLfttmdjqZxlpucOP/68qvI5f4wdXThDs4fgG3tCcfW/E7zLFVs9MbwtFX97lbkkd/YZAjpxI5uL1TA5sWUx3XX2BTEV7TS53v7hNVesojlEHSLzwDh8kReHpuDZiUWzgODszg9bGBU/3xRXl1RGLAzQWfskXd4p5NGIg8nAiaVc/4Fy0Dw4LO9qtKrZ6HWMv6si+c4vsmidMOW/j5PmLXHsviW1O9q86UpLYome2/xmlOV9S8HgQ5+AYzly4wIndwZi24bL6zNZgYLb3MflZX3D7fj1jBh/2JGZw/XoSe4O8JBmmRWKrmaa3uZwvbmVR8rgb+4BYzmZeIfXUAUKWbnS1hqVbKrZ61RSDrRXczivjucKekINJZCQfYZef1HmtFd0Is6M8rSnm81tf8rB/FvctcWR88B7nDu3Cx3H+NWTt0C/9ZC8PCrO5k1fCowEdu/YnkvHuVU7s2rLBiEUN00PNfPzf/j+q+lW4e7vjtv0QmZkpHIrwX7bB6qsvpbk5YyqzSOe3s7NBp5piZHQaO3dvfDxcVtxKZyPE1Nw9ZIqtcNjq0Ah/jZEaPI+GsxeQCkkz23nsoYjRFbGPAlNm9PUsialbrzhbsTCjF/G8Gh3GmtrO19N+ySx6rZmtKZZYvLlf+aRErO6SFpUmtia8oYBnGEC0l73dsu0+rC62JoTdQr8ZEYt2dsbYyteReqsZjEViazQXDVrtAmJRYOkWfHtLEZNrGamlYmsULBFXvBC7aWsnfIry8I7rN7N97QlNsebGui2MA2Gbon4LRa0ttsY9+kTs9wLu1IgfFeP4ta+OjQj9EovuYoFMaILRAyzGqv3yWPRV3Qh2Xz13wWr2LF9szcn3JmKR8Mub6boSzERSkbcRW0k3WKOQ1cRWQsWsLrYS6iCKbITYSqzKq2JfuzhbAR4RvlO5JC3TJ5AJ8yb3fGFkJpyfFDjM22ASxbkmYpjAtck9BGKx8e9/zEDBffTisyYqkv1/+ReEpKdjI4P6JZ75yZMnRsRiaWmp2WoIX9apU6f4h3/4hw1DLIp2EvWUgr00+wAyCnwVEItCdKXSpUQbhYaGrhtiUdioXLykECNhI+K8t6V+ifYX41FcSyoIaOkYFvYite2kmoVwHYp22WhblFq/tWa2ou6iPZYhFoXQCkKNFMF7/eKmt7L4d7nni3NNGDIpeMe3EUwTYlFQv+S+FMSzCbF99J//joH84lc824P/4X8i9KJlYvsnf/InssT2v/yX/7JhiEUxgIUv3hJk5tsYqTBOMdgF4k8OZvBt7mk6VyAWBfJSIBalCoawX8GzPXTo0FsjFsVzC7GT++xi7AqRXQ/Eoqn9xfiQI7ZiDJv4x+vdb6Z2Edryti+T9bATOdcQ7SIOQTTcRCzKaLkVEYs/+mvCL2fKmtmKW8pFLCYnJ/PTn/6UuLg4GTW2vOg3GbEoxFaq0HzdEItCHMSfEDapgP2lcbabiMXlY24TsejoKHsGLppQ8gKZGY3biAUyy2V2/kxLF8je9r6bPttN6tfrNvS189luIhbNy8Sm2Jpvo7ctsSm2m2L7jRVbnXqaoRct1DY9Z8YpiKjDR9gb7LEspGrVpAax+KXoo63xEa29Sjy2xXH0cCx+jnavQqrWLfRLp2Gqv536R430zDgRHneAIzGhyxIo1trKXDs7QU9bIw+f9KDzDmf/wf1EBrgv2xVXstjq1Yx3PeHh417cIuM5FBW8bDvtDZnZCkbBcBetja0ofaPZHxeJj3QAloUzWwPqyUGeNT6isUOBe3g0B+L3EOLlIDmxwGKx1WuYHe6i/uEjupR2BO7ez/7oUHydluzTbeZNYJVoBM0c/U8beNjazqRjEHsOxBMbvkiAM1XJqtEImmkGnrdS2/SEGZdgog4eZHewN84rxONZOxpBMz1CR0Mdj7oU2Aft4NCBvYR4Oa8ZK/vNmNka9Ci7G8nPK6df54QTGqbtI7n8/hm2uS+u5q8stgYMujmeledR/Oglth5uaFUaXI9c4734QFzs5yNY10ds9agmeqkryOdhzwxuLnaobHzYk3mNhEDHVznTqyc1aBltqyK/pJZhW08cNEoctp3gnQsH8VzC75UmtgamBl5Qk/M5txsV7Dr1Dv/66uFlMBTri60B3WQ/DSVF3M2txubQRb59LdX61C/NFO11pRTUtuPo5cTUhA2BexJIORWL99LA7DVEz1KxVU/003w/j6q+OZxstYzq3TiSnE5ydKDkyfa6i61Bw9TAE/LvldKPI3aTE9hvP8Cp80lEutu+sb29eHaxGCT8nnL8pUqlco1tcfRMdDRRWlxBJ544zwwz5r+Hy8kniA54M+FjRbEVHFyxN5xON89GsLHB3sERR7Gnlkw2wkBdNjdKn+Hk7sz0nJagfUmkHNmFr8vqe/itKrYidnhqiO6hGRz9gozp/Hb/Yqlfei3dNdnca53i0Lk0tioayM+uIviDf8uFbYsszJXFVodeNUzxzXy6HcJJP7edl+VF3O6L5I8/Ooq/63zjrovY6rUoO+u4W9SM++4znA1RUlxSzbOIK/zeiUBjSqE4VhNbvWaatuIcKnvUHM68gGNbMaWNWo5+7yp73RxfcWiliS1o5uYY73xIYekjZgMT+NblgxsstvN83vGBfh4W5/LcOZKU1PNWF1udop/q4hya7WK4lhRFV/E96ibdOXU5kxhPacHolomtAUVvEwW3q3E8kEhCuIacu2XYRZ7inXN7kRrkt+5iq55gqPk+t5r0HD11gojhUm490RCSkMG5ne4yEIurvy/WStedH2BzPKsqoqJlkj2ZaWwZrOLnhQOcTE3leMyWV7ZtusNKYqsZfE7RrV/wy/tNTKj02Lj4cPTS9/hX6cfY6uUkiY0wf301dZ//kgoiSD8TxXhlMXUKH5IzThHl4y4bHm7QjFN/8xOqZoI5eTGVPf4uyGTVS34RW1JQVlKD2LmgveQmed16TqRdJ2S0nsKsbGxT/5B34hZZSiuKrUAzTneR9UUpE157uJISyrPSYm42uPFbv3eeCLf5b9p1EVudmomnFdyoeErgoUwytiooKCqhzCWZP0+LxGUBUrGy2BrQqRXU5+TQMObEqfdTcWwqpbhmkG3ffp9EH+dXM2OpYiueSzXUSl5OGSPeh/kgc+PF1mjaynEa827xcIMQi+qRbiry7/HS/zjXTsQwUHqT+302HLt4nf1B0j7nLRXbkZc1fJnVytbjZzi2XUfuZ/nMbjnIpUtHjdQvKWyGdRfb2XH66rK42eVN8ukT7FZW8N9rxvDdd4HM+ACJYqtHrVEyMq1AqdPj5uJHgIsnTgsPZFZsdVM0lxVQ3W7Dqavn8Bmr5+Mbj4m7cIFT8RG87llakWerVTGlGGdsahadwYCNjT2uXr74eroZU+GXRiOszrMVU2IF939+k6e+MaQlxTBZWkhJny3HLp1lf6Dnqmnkr89s57M9Z+irL+VOTT8RCUmcPRiJq710Bocl4in3HNli+3JBbBPSrhE6+oiCL3OwT/tDrsctsjBXF9tusr8oQeEVx5Xz82J7q9Gd3/m984SsJbYGLdPjQ/R0D6P3DCA4OAjvBWD5imwEnQbls3Julj/F9+AlMrZOUFhcSrlbMn92YYcksX2Um8ujUUdOv5eKgxDbB8Ps+Pa7nPB1fgU7lyW2w63kZf9mxVYzpaAx9yZ1GyS2GqPYfkm7fwJXT8QwWHKD+/12HMu4xv5AK4ttRw1ZX7ay5XgSx7bpyP8sn7mth7mccYRFRtbaw2X9xXaMwYfZfNa5ILaT5fzjg3F84lPJ3OcvUWzVDIzWk9VWQtWkin07Urmy4zAhDvPCYlZs9Qti+2JBbEcf8vHNNvZdSCUxPnzZWoJxkqBSLdtdV8S1ChDN2PAAA2NTiAx0G1t7PAO2EuzniZNEEI1gHcMEJT+/QZtPDOln5sW2rM+OY5eSiQ9cvqvK0p5aJrbomBl+SWPzU5pbO3GMOU3ayd0Eukr9fpErmZaXlyW26LUMNhRwt3aQ3afPsUXRTG7BU+K+9wNOhyya8MpuBD0G9Tjlt7N4ovXn3OmddFUUUaA5wh9d3YOPyxogGv0svU/qKSmoQ7t9PwkJR9nlN/8OXlFsDVqm+prJyalFv+0Yp0NnqCivZyT+Pb67zxcn+/lpwKpuBO0sL8pzKHo2yb5zZ3F5VkplpxspH6Wx3XWRKLQptmsbnkE5yMPiHOpmw8lI3snLogJatEGkXElhh5s13Qgw2f+Ykrv3mY06xtFgNYX5D3Dfe4Frp6KW7Qyy1hOsu9hqpxh5WskXFQpiTh4htL+cvF5HIpMyOBXmumxRaK0FMsH90OnnmR+2NnbY2S5nKqzts1XTWVtCSX0/2y6kE9xbyqd1MySnpXJ0l/8bs8mVxFY3OURbfTU1z3qY1RiwcXBl+74TJOzdgbeLNMTifLtraLr7S7LG/bl0ehcjtVU80YaRknaUCC9XaW4E3TSDtZ/yn/7fGlz3XuD7H6ayy98dB3lb3VmuoDLOlCe2GJgZfEJZbj61L0fQO3rgs+sM71yMZ8uCWIp7r0790tBbX0R2cRU9M7a4eoew7+I7JG/zwGlhwWRd3AgYEKucbaX55NY+YRIn/ML3cOFKOrs87V8Z9VrUr4muRxTkF9LUM4utqwc7EtK4diIa1wV/r3hOaWKrYqyzlZI7d/iyupUpzyjSrl8h7eg+Aj0W/dRW3fBRwJyH2qkqzuNObgndhgCOnb/KpbQj7PJ1tx71SzdLf0sVuYXV9EyrwDWc+NMpJB8IwU0iicYyNwJop0dpr84nq/YZ43M2OIXEkHLhHIfDpKLDrUH90jE71k3pnXvU9owxo3EkKiGZC8lHCHJa/slrvWgEA3MDzygvzKOyYwI9DgTsT+JS4n7CPN+cDVo7GmHkSQlffFnOgFKN1j2Ig2fSObMnFI81eLTLZra2BlSKLh61DOAUsouYcP9XWiJDBzekqEyxFYB5DbMTowyOKNDYu+EbuAVft+XbT6zFsxU4tPGREUan1Dh5+rEl0NfYOEtpRyvxbFdrjdU3fNSjnp5gaHgYpdYeL79AtvgsD91ai/ql16mYGhtheEyJ3tmTgMBAvFzsl71tpYmtDpWoR98QilkVBjsnPHwDCPb3wXnh9bsh0QizU4wMDzKsmEGHHa5efgRt8cfDafkzrdbOliY16NXTKEaGGZpU4eThS0CgP+4OUjym8zWxVGzFbgLa2UmGhkZQamxx8w0gwNsNJxkrJus+szXORIRLbJjBsUnUdm4EBATg6+H0xizOemIr6qBhRjHKwIgCrYMbfgGBeLs5rRhuZW2x1WtmmRwZYnhSha27N4EBfrg7rr6zrskmFhGL0r6QNkRNzdxEtthKqfSaW5lLqNC6iK2EiprbytzcJaSJrbmrbNxODeZrsnoJS8X2be75VmL7tje29rY4EsaBdUK/5DWMtcVWXm0WX8CbYrvQcptiu4lYtGQQrXSOxTPbdaiAVWa2Eutl1ZmtxDqIYptiK6OxJLxAV2QjCPCI+MESypMQWxNiUZCH5Bwm6pdUwpQJASdAIXIxiW9L/Rpvbqbhb/8zg/nF6FVqXKN2cOh/FtSviyATsdjW1oYc6tfp06fZpH7JsSz5ZS2hfgm7NVG/hIvA0mMp/c4S6peglK0HgvCrTP0S7SKVxmZpP6z3eSbql6en5zz1S6fTGUw8W7liKSq3UWIrDNLEsxUZNlKzbEwNKITaxLO1FLHY8Pc/ZnCBZ+sWtYMDf/lDi3m2f/qnf0pZWZnZ/jXxbH/84x9vGGLRhMxbD2yf2QdcUsCSwS7n+muVFbQvwRcWoit1UJsQiwcPHnxrxKIJNSpXbMUkSdjIeoutQCVKQRounTCJOlgDsSjG/Ubb4tvalWgXkREo2tDHx2c5YlEYulBguYcpokD8r9gnSO4hfLbi3oL5aO4QgimMSwit3BeD6DDxUhHnyuXuinqNNTZS+7/8NUPGma0K1+hIjvzoR4RnXpKNWDRFIxQXF5t7ZGNnnTlzhp/97GfExsaaLb8eBb7JiMXx8XHJgmGa2R49epTAQOmpwa/3kcmNIMaB+LqUingU1xGhX+LlIIUHbc42LEEsimuKMSnGpjURix4eHpLE39wzbuTvJjeC0FXjy0uv1xs2qV/mu2Bzgcx8G71tiU2f7XqzEeT1yKbPVl57rVV6Mxphetro67VkZrsptutniKtdaVNsN8X2ddv4ZlC/RDqgdo6JwR7auwZROXgRvCOSMJ/l2wevHo1gQDuloK+rg57xWVwCQojcEYaH/fIMmPUI/RL50irFIC9fdjGqtsc/dBuRoX44LKEArb27rpY5xTCd3UPYBG5nW6AnTq+F9EkWW5HRNtLPy94xnAMj2LHVexnww/pxtiI+WsXEQDftXQPMOXoTum07wb5uSA15tTT0y6BXMznYRfvALD6h29kWIM+t9DZia8SBdnYyqnEieNc2fBwWUZ5SXhPWiEYQceqKvk5e9g4ya+9N+LZwQvw93kgssW40ggG1cpiXT3vBP5jw8C24rBL6vFEzW+2sgr72biYcvQmLfBpY2AAAIABJREFUCMbbcfV07m+I2BqY7m2lKLeQx8OzYOeAY9Ah3r1+nJAFapcw4tUzyNR0VOeTV9HAhMEBGyd3Is69R2aUL84LKbTrlUGmVg7SVJRLSWsPOjtHHH13cPJaJvt9FrddX1VsDXrUo508KMjhXkkrXhd/m+8l72GL63KLlCa2BqaHOqjJ/jU36kbZlfw+v73RiEWxr1tfC4X5xdT1qXFxNOASeYJLZw4Q7i0tWsQisTVoUPS2UX7rc+4+n+PwlX/DbyXvlKJzr8pYKrYGIbRPqvns02xeGsK5+iff54iP+xuglbUqs+5ia9AyM9xO0Z1cHo/Pop3REbg/kXPnTxLuulEZZKCbHKS56v9n702gqtrSPM8f8zwjsyiDigIqyiCooKKCIo5vjMh8URUROdXKiOjIqSqzqqsysyuzIiNzZa3IVd21uqurKzNyiOG956zIPCuTCDIjCMg8z8Ode+0LV0GBe+6Fiy8iuGu5Xqxgn3P22fs7//Odb3/792Xy4x+X4nnuCp/8+kV2mbPqTsKtEFtBpHtZ9Yif/qyAyV3H+OQbl4hyd5K2XfftUuayCQZG57FwcsXdUXBxpW+gMcgwjWhsWBhBraSvOpsHNSOEnzqH32Q92dl17Pm13+BUgH42glo2SvHdR7Rr/Dh/Kpiux/k8mork+x8efs2v3BSxFYjF3loysp9iGXKCpIA5Sour6Nn/Ad886vFa2NcWWw2KqWHamxopf1LObGQa1xPCjRRbNfPjo3TVl1JQ04X1rpN8usWIRY1GQV95DnkNQ/icukjoxFMyy0Y5lHaO2N1e72D1VrMjo8QWJVOj/XRVlJLX3Idn9DW+fjLIIDM1XmwXmOhvo6K0ghcjlkR/dp0o1/cstopphpuKuV01x8ETx9g1UMrDLjN2nUjj1G4HyWwEtUaJQqXQQmAszK2wtrBcAd9fn40Aqulxel41kPtlCZoD0Zy5ftYgsVVODtBQUUxp4ytmlWrMrJwIPZpEUlQobvZWEqlfb8xAo5Ax1FVHSW4FPRZ+nL6RTKSb4WKrlk3woiiH6hkXDh5f5PNa/qKKrUAsthfdJKdbQ8KFRcRi7sNHWJz/HjcipCIWS5h0XaR+tZUU8GWNPd/67XPs3lTEooLJF6V8UdqKz9F0LvpNkJdfRLHdaf6tXsTiGyOYH+2nPOMWLb6JXIk3VmwXz/c+EYsa9QxNuVlUdis5+EE6vr21ZGc1sON8CslhAZJCCcaJ7eK9L3RUcDu3CvZf4JPjWyO22gur5+moKObx81FCPkp//2I7P0bv0wxuvnIjeQVi8Rzph7wkUr9k9A6V80VdNnmT88Tuvcqv7T1OoLVE6teSeavkQ5T+/U26vfaQcDnZILHVqOTMzUwzPSdDrYWHm2Pr6IKzg622Yos0xOJb71z1JPWPcigbtiL28mkjxFbJSE0+/5DZxM7jKVyK34vdMgyAQW94EzU2yLMVYttRfIvsV2qOpV4nQCu2ArH4Xa5L4tl2k3G3mEnnA1w+u5O2knwtYvE3fussAfoQixMj9PUOo3HyxNvbCxcJiMWbpS/wPJLGRS1isYhShzMSEItvRnphdICyjJubI7bvEbGoUc/SnJtJRbeSyBvp+PfVkJXViHdKCqf3/RKLLQt0lAmxHfmKiO34EmLRmdOJxwl7jVg8T/pBqTxbDQrlHFOyGeZVGmytnXGxsX/9wtSLWHwttsNLYhtquNjK55kYGWRwchaVFj1mibOHD97uTlhLRCwq56YYGuhjSmGNq68vno5ymh/lUjZsaZjYomZhtIuG1k5aGtqQBUSRnBBJoNu7VSdMpKGST2uQ2AqIRv/TTB48nyTy9Hl8x5+TlVnN7l/7Lc4G6qvUoNZWaii6k02nmR8pp4LoLM3nwUQ43//4CB5LZTBWDSOopml9ksk//30GisPnuH41negAB+1NrgqiUSuZ6anhYU4tVqEnOb1zmuLiSl7tvc63onfoDyMsDd8vj9gq6C7LpqB5GP/TaQRPPCOnZJjI9LPEmDSM8J4926+a2GrDCEXcqZJx+OQxAodKuN+hITAhjdNBjpLDCOs93VshtsqRTp5k3uFOeTNTCjXmNi4cSr7BjaQovJytJXm2021V3PniJzyd8CLh4484F+lGT1ae4WIrn6av5Mf88f9XgWP4Ob797etEeDn9EiAWNWpm+hooyCqgdUKhZWmaeR7h+rVj7HR4UzNozQUylYzOimyyyuqZNbPD3NKenadvkLbPTe8CmcguUKnUaMzMtcnAOkLf6tQvsdo6wPP8HIpbBlBbWmDtsosTV9I56G6tH7Eo7rO/naqSfB7lltLnepAL589xOjEcb0NrkGnkTPa3U5nziIelz5lyOcCl62mcPLgXD/s3DF9TIxbn++vIzSnk+aAKUS7OenccF5NMvECmWmCsq5nHuY948KQR813HuX75LFEHgnHXlRbQ4xcYG7NVLkzS01RB9sMsnrbN4nEqhcsnjnE0xPv98WzFAtnIS/Lu5dAyLUc1K8crMp4zycfZaf8mI0cMiemyETQsjPVS/zSfez/NYcBpJ+Ep6VyODWeXx7ulaFavQaZBLZ5HbQxh8WdubqHdSCG5Bplg8qpU2jCERjlPW3UOWXfyeD5uwd5zaVxNPEaot9OqMdcV2QhmauZHWigs68I++BAx+/yw+yrCbJfmdFU2wlqbGtSKOUa7W6lt6mLBdgchkYfZq63182bVb73UL/nUEO3NjbwYmMM5YA+HI0Nxsdr81C9USmZHXtHQ0EzvvA0790VwOMRrxeStl40gKtE21D/nRf8USnNHAkLCOBi1F49lfZWUjaBRMj3cSUN1Ax2j01oGsF/oAaLCBGh5MZdsa1K/5hnubKWhuZNZOy/2RYSzy9MZa4mQZaNitio5E31t1Na30DM2i7mtG7vCIjiwJxBXa2mrxMaKrUo2TX9bPfUtHYzOgZmrP5EHwzkQ6ClpQVDMy6ZnI2hTJ2UMdzZR/6KbaWsv9oeHEerjsoWpXxoWJgZoa6iluWsYmbkt9r57iD24Fz+3d4Hdps9G0KCSzdJRX0ljex/TcjNsfEI4ckjYp1g0fNdOfkVSv6SFJ7apX9vUL2mWor+VsWKr/8z6W5hCbPVfdbGF6TxbqT1YbGd6sTWsP6L1ttguG7Ntsd0WW8MfodWP2Bbb7R1kb1vGL53YCvCIiIcaA5IRYitiE+JnKAxDt2In4jkCNLHeT0f9EoMvQB2Ggmg2ArER/RqrraX6z/8PBnMKUcuXQDT/8T+y81IaZtbSC86J+xCIxe9+97sUFhbq1SkBoklKSuK//tf/Snh4uN72G22gmxMxr2I+pZCfNnpN3fHCsxKkJLGdWip1arOuLTxbAQYS1C+p5CodiCYmJmZTQDTCRteuUPvunYq5Es+uiJ+K4zY6V2LsxRyIZ0uLBJSQt6rzysUzrJu3zZoTnWcrtEnYolQa22Ze39hz6WhoYk5fg2gEYlHEbEWczlBGrO4TSIcSM+Z4cawwWiniqcM5CkMwFLG4kWPFfU42NvL8B3/FQF6hlmfruCeYqD/+d/heSMXMUlr1WN3EtbS08Ed/9EeSEYsnTpxAIBb37dtn7NwbdJyYE2EsxqAoDbrQW43FAyseLGFHW/1gTUxMaOdDiK7Ua+sQi1FRUXh4eGzk1rUvGWGjht67jiVtzLP3dod1CFNxLqkvHHEOY/suZcCEWIl+bbUtSumbvjbCloUtrUAsirejuCl93uVqJ98IYlHnRenUX1/nN+KdimPFS2UjiMXqP/tzBrLzUS/IcAgLJeZP/xM7DUQs6jzb73znO1pPSt9Ph1j80Y9+tKWIRfHgG2MP+u5nvb/rYobCizEEM7iRa+qOFR5tbm4ugmsrVWg2E7Go8+p/0RCLy79OTYVY/EX0bIVdiS9+Hbp2G7FowFMqKRtBwvm2IhtBQjfWbWJUNsJGL7qRgo+bcO3tBbLtBbJNMKPXpzBsU4PEK28vkG0vkEk0Fb3NthfIthfI3jaSX7oFsrXybAUibk6UMh8WpcztcfP2wdPB+vUmAzEw65YyXxClzIe1pcytRSlzHw9szU1QyhwNasUCEyMjTKhs8PZyx+EtbNu6pcyVopT5MEPjM6htnLSlzF3trYwoZS7yeFQsTI8zNDaDlcsOvN0cVuRVboVnq1kqXz00MoHcwh4PL2/cHFcvX72aAhrt2aqVzE2OMDgpx9Hdix3O0ihjuj4YLbbLS5nLwV5c280R269EKfMRhkYnkFk44OklSpnbbmGe7dLICrLd9BiDw2NMyTQ4eXrj5e6MreXKxGtTp34JDObE8CCjUzKwc8bL2wtnW6sVevI+xFajVjIx2M+EQoO5uRX2Dk64ujhgtWw/gV5P4a0GBnq2GuaG23mc+ZCSxl5k1u7sPHSODy8cZIftmwWh9RCL/TVFPMou4sW4AjufEGKvfMjpXc7YLN3EplC/hOAr5hlureD+7XuUyfbzO795nagAtxViufamBhXTr+ooyMyirH0ctaMHkafSuZawCLd4HdOrreXpf/pTBnMWY7b2YaHE/tmfEnh5uWerQT7RR3XOl/ys6BW7kz/lN68cxW7ZRJhebDXIh9soycok73kfantnguJSSD8Rjo/YTibhZ5zYqpgZeknl/c/5vHaKmGu/wb8+FSLham+aGCu2qrkxOspzuV/6nME5DfYhR7iQcoboAFfJ19/0MIJGhWy8h+J7dyl90cesyoEDSSlcOB2Nl83WIRa1DtFMP5VZ98ivbmNcpsJhdzzpV84S6e/KEu1UO06mFtvhulxu3cula3SeeXs/jqVeIeVoMC7L9GTrxVaNYmaIe//P/6TOyg6zOSt2Hojj4vkjeNlYrol+1GdYhomtWslAbS73qgbZn5SMr0As5rQQ8Y1vcsJPAmJRPkbp3Ue0KL04mxjCq7I8chai+f61SNzs3mxd3Qx4uEo+z2BrLRVVT6ga8uGjr6USKVFs1coFOkoeUdA2TcTZM9i1FVLS6cD5r18g2M76tRciLWarZna4n9bqAgoaBnEJPfUeEItKBipzya3rx/N4KnumnpJZNUV02jmid3muyjF923CMElvBsx3soqWkiKKOMXyP3eDXtgSxqGGqv5mi+4XM740n1m+B3JwKHCLOc+Pkvve3XVc5w3DLY+48GefAiWME9JaS1WfFnqRLnNi5EsBv6k0N6skequo6sd4RQKD9IPe/rMXt1HnOHNyNwzLndjWxVU0N0fKsnPLWXua1iEUHdh+MJz5S7Iq0lMRG0NnXcNNTasesiAi0pqG4hBazPVy6GEugy3J3ZKU16gsjCD7ueHstT563M6SwIyhiPx7zI8w5+7Mn2BdlXzudw0p2eGroanrBq7F53HYdIjrEiZ6ONjp6xzFXDfG4oAmXY4exm1DgGXKEU4ccaX/eTP+kAvegMEKtp5l2CGCnnzt99ZVMOQUT76OkcUCF585g/D3sMF+WKmeQ2GqpXyW3yepScSzl2iL1KyML64vf49r+N4UhV/VsNSpUcz08ulPEuNN+rpzbyYuSAm7VOfObv3mGnZuJWNTNjXyajpoCPn8yT+qNcxLFVoNKPkVt1iOejVpx8oMUrOqLKagcJvTrHxLvavv6zS9NbBc7IxtsJDurhBHXaD5OP7Klnq1GPUdLXibl3XIirqXj1y+oX034pqZyeq+/SRGLGo2ahY5Kbuc9xWzLEIsaRjsrefSwgR3HkjgWpCTryzwWfKO5nBaNyN6Wsll40z3b+XH6qx9xs9OZU0kJhE2W8uOqSdwPp3Ap0kMiYlHB2OQLyl7V0jynIMg3hhN++/G0XLwnqSAaUGuJXZqFSfrr87hfoyAy+QyxwV4s30m9mtiq5yfpe9lKa/8YcqUGM0sbvHbtY98ub+ytLQwSW8E8EXox2/2cnLynzO1KIDVhH57LihEY6tnODdRz71+ymdzhh7N6gj6ZHV7KEfrt93Lu+AHkjUVUj5pjL59i3twONxdrhgam2Bm4gxfVz5h2DyIhwpHKzOe4xB+EnklsfQPwnGjnlfkOdjqp6B2cwVs9TL/7IaIjfam5dZsJv2iuhczyeNyDI8fPcNDXjuVRGYPFtr3wS3J7NMRf+GBJbDMwO/s9PoiUwrPt4uGdUqZdI7hyLoAXxQXcqbblm79znp2ONtoxXT2MoNH+/2odiGYJeCHarw6iWZoexTSdNQX8/LGhYjvOs0dZPB+3JfHjFKyeF5NfMcCuTz7ipIeRYvteEYvTNOZkUdWj5tCHSzzbzDo8zqdwNmynScVWzMTW82w1jLws48GjFvwTTnEsSEX25znMex8mLT0O4Ra8H7EdY7DqIZ/3uC/xbJ/wv8pHcYs8y+XD3hLFVoNStcCsfJ55lRoba0ecrN7Y5Ppiu/gMqdFgZiZgThr6q7P42YOn+CRdIfXYftzeqv20JohGo0a9DERjJkA0ZmbSQTSvFVSNfKqf3C++pNEsiLT004R6OK4IZRgqthN19/nBnT4uXEvjqHUn/5TzHCc3O4Z6ICRiJ8reepROrjQV5vCsbx4HRytk5q7ExRxibnqBPceSSI+yJvOfi7GLD2e8qoU5WxWjrZOEpF3mwj5z8m7nMm02z/CsM3t3W9FaOYS9pzMOZguodh8m6WwigTZmK2LPBomtQCz2VT7iQcMUh86k4jf2nOzMSgI+/W3O7ZaAWFwYouBONq8sAkk9s5vOkjweDO/je5/GvH6TrSq26lk6nhVz98sCFGEnSDmfTKTP4mfG5outiPfO0lyQyeNuGUcvnsO2pZiSRjXxv36J/WJRaWn2DfJs36fYauR0Pc6mqHmMwHNpBI09I7t4gANpZ4kL9pYEZjEqjLA0Tu9DbCd668m7V4bFoeMcC5CR/aAUyz2nuJ4cgbQotQlANPIphhqLuPNMwZGTxwgaKeH2CxU749M4EyIQi29eAaYII8im+6nPe0Bmwzi+kcdI2DFNZcMg5sFHOR29D29Hm3cWplYTW+V4L8+Ks8ipfcmsXIOZjRNh8amkxB3A09GwSg3zQ+2U5+bQbBZI3IlYwv3csdazCKUvjDBR/5C/vtXN2WtpRFt18LO8BpzDIrFrekKjSqxX+3Iqxp3ivBpc9sdyNm4PqnkZtrJebha2sOvQcVIjzbi/Qmw1jLeNsTs1ndS9FhTcz2fKMxDrtjbG5APIPA7gqeqhqtOG+DNnSEs+hIPZype6YWKLmqnOajKzypl19MReOUXXTADXP0smZNlCy9qIxQVaix+S19CHm7cX8yOjqKM/4NNDntgvVR7cnAUyDSrlHOOvXlBRmMODOhkn086RcOQgAa7CoBaNes0FMpWC4eYSHpbUonDyx2amn1nvOD69GI2L1Zuqj9LEVsn85Aidz0rIKHjKuEsk166eZp+/Fw7WW0X90jDXUcnDwgp6zXzwNx+hz2ofaWfjCPZ8l/S0WqDfKLFVK5kdH6CtIp87xXWYh5ziw/OxBPh64LB8FWadlQVjF8jEouTz/IdUTNrgbqWid1LD4TNpJId56VvHeP33TQ8joGCqv4Xse4+ZcHHFaqQXpXckJ1OTCXXc2gUyxVA9P/+fP6XNMpDo+IN4O7viG7gLbxe7LVwgU9OW/Y/8nw/a2X88ngOB3nj6BhDg54Gj5VvVVZfNmj6xnR14zq1/yEYWEoq3epSOSVuiTp3B98UX/PdH9WgOfsJ3Uvxovn+PFxbehOzzRz4xh5+XBSVPXxFy+DgpEawQW5mrF86jrfQ7BBPmpuZlzziBx87h8fwOPy5u4tDH1/HtKeOf6xz42icfcjk28B07M1BsQaDrBlprePyshTk7f8KPneCQv+OKlIj1EIsLo93UV1dR2z2Ne/AhTsRH4mlj8fqzbrPEVrEwystnFZRVNdO/AG479xJ1LJEjgU7a0h3rii0alHNjdDZUU1n/CpVnMEfjotm3w2nFm1+a2MoZ72mhsrCchoEJVLauBB+MJTFKeAFbxLPVZmfM0NtUQ0VNCzMOfhyKjWO/n/s7FYPXUiKjxFa1wMjLOkrLangxOImlgxd7jx4j9uAePG2lfMgvEp7EP8HoMGgHmUrO7FAHFeVP6Zi2xD88mpj9gbgvLcRKUdzNF1tQy+fobXpKRV0bEzb+HI05QuTud7GPpvBsl9+zfKiN4uIimvrnsLCwxN4zkIjYY0QErLQJ02YjKLV867yqFmY11lhaOrPz8FFiDoXibfuGj21oGEEskI21PaOs4SWjcjt2hx/hUJg/VmPNlD5px3JfLNF7vLAYaqGiuomO8Xk8giKJCXGis3scF59A9vqY0VzTiVWgFwu9w6gcduDnME1dTRP9Uyp2BIdzNGo/Vj015D4fYW98BA4jHdQPWHMg6iB7vN6tFGGw2Eox0u1NDdubGqTYiZQ2RoutlJPraWMKsZXaLVOLrdR+mFZspfZiZTt9nq1xZzX9UdtiOzurBX0IOpGhP2merf6zmj7PVn8f9LUwyrPVd1IJf98W2+0dZIZ6thLM6r00WVNsBYhG/DOGrCNOqiMPGXO8IAbp8Gz6RkXEXcW1BEzGUMqRuIYOz2hMPyfq66n5wV8xmFeIRkf9+pM/xk9Qv6zW/gxa7Z4E9esP/uAPDKJ+/fCHPyQsLEzfEG3K3w0hsW3KBZdOIuZXR/2SCoPZrOuPj49TXFysRSxKQQuK6wrb9/Pz4+jRo3h6ehrdFXEe3XMg6HdSqWPigsKmRX+Nsem3OyzGXjf+hoRxRB/E8yX6vtnzJmxC/BP3J3VejJ6ITT5QR0N8h/olRExQewz96Xi2YiCMOV5MlJhgKYSp90n9Gq+ro/o//wUDOQUgk+OwL4Sj//E/sPPiRTBAbHXUr+9///sUFRXpHW4xromJifzt3/4t+/fv19t+MxoIWpGOZ7sZ55N6DmGcy3m2Uo/bjHZCZAVf2BCerRAYf39/BM92x44dRndD57CIexfEM0MESzhJwkY2k2drKFNXPMPi2TQF9Uvoko7za8hLyOjJ2MQDdS8hV1fXRT6wWq3W8mzFDbm4vMmflXpNYXDi4RQGI0Uwl59Xt0AmxFZce703l2gr+ihuQHi2Uvi3y6+ly0YQxxrzUhitqeHpn/4ZgwKxKF5M+0KJ+fM/ZVd6usHw8MbGRn73d39XMmLx9OnTCMRiRESE1Gkxup0YZ/EAi3kV0OOt9CaWhxG2Eh4u7lnEbHWIRalenRijgIAAYmNj8fb23tCYi3sXYitsUyqrWZdnK0RIHLdRMTImZiteysvFVurYSR0sXdFEsWhqyEtI6vlN1W47Zrsds5VkW9sx27VTkZYPoE5s4+LiNqVSg7FiK0RIiO1GX4zGiK1ucc/QKhOSDHG7BtnKYdrORtjORpD64Ohrt71AZpxnuy22+ixr6/9usGcr9jLL56aYnJpDaW6Do6srToKEsyxtcj2xFTSumakpZhZUWNo74uritGLHyObk2YqB1CBwkLNTU8yqrXBxcXoHH7ceYlHs6VfJ5piansPM3hVnO2vepvNJz0ZQo5ifZXJmAQt7Z1wdbFZsF92SbASBeZydZmpqFqWFDY4uLjjarI+yW26Oxnq2aqWM2alJpuaUWNo5rDoP65n9RsRWiwOdmmJebYGjmyDLmUvapqvrj0lSvwT5a2aKyZk5FGY2OIt5sFuJ7tRar0aj/RQ3qWerkjMzPcWMygoXZyfsrN6ta29yz1agMBdmmJyRY+ngjJMAPelJwf4VSf3SsDD+Sotmu19cz4z9Tg6dvc5HSXtxXbanek2xVSsZbnzCw3sPKH81heu+ONI++YBYL8GJXDTxzRJbjUrORGcND2/epnAulN/59jUO+0tELIpNDTNjtJXl8MX9MmzOfZvPzhzA226lFUgTWw3K2VEaCm7xT9mt7Ez+lN/YYhCNePEoJropz7zH3aJ6Zpz8iEm5zqW4feywl1YrzSixVSsYba/m0d37PH4xin1wDBfSL3EizBNrCYUDhT0YK7Zi/mf6m3nwL19QO+fDpe99g2g3BxYJHNJ+my+2ahRTg5Td/4KM8kbGLPw4cekKaYkHcV0Cyeh6Zmqx1ahlTHXX8eBnPydzPox/89kN4oLeXZ8xtdgqJgdoLnrAzwtf4p/2DT49vhcXPfup1xVblZy5BQXmVjbYWBuPQ5RmIYa1MsyzVasYrs/n7pNuguJP4jPdQl7RK2K++Rlx3g6vr7y62KpRKSYov59Bw5wrJ+OD6K0sotjyJN9PC8PF9s3W1U1BLMpm6K4ro6S8nPrpIL72axckUr+E4qtZGO6guqySsupmrI5/wIfHw/GxN0Zs1Uz1d1JXmqVFNvrsT+ZrV7aW+iXg5cPVeWQ968Yp+gx752rIqVMQf/EMUTs9TIZY1MwO86woi/JxT1KSQugoLuWlmT8pl08TaCctBmqs2KoXZhhsqSSz8Cn9Mg9Of/tDotwc36/YqmYZeVHBvaI+go7F4Nv7hJIRJ/Ylp5Hgu5JLYGqxVSvHaa16Tv2TIkrN9vDJ5QvEBUsTW/XcBN3tLbT0jCBXLVK/vIMPELbLB0cbw6hfs72NFJbW09j6Ao9TH3ItRjhu64vYmmKrXmC4voKnAxoCD0axx8tpQ7Bvw6RUf2uDxHYRsXiHrE4lx1KuEjAmEIvZ2KZ9jythEhCL8z1k3S5i1DGMy+cCaSvJ52aDG7/9G6cIMAFiUSNbpH59XmYI9Wtp0DQa5kf7efLoNi98E7kSb6zYCm8dZEON5LxHxGJrfhZlrxY4cPUyAQPPyMpqxi81lVMmRCwqRnt4nJtBu2sM146H0V90i+JBS45dusYhwQSU8DNWbNGId+YsHRWlPKkbJeSjdKJc37PYLgjEYhY3Oxw5lZjAvskS/vHpFB5RKaRFSEUsKhmffsnTngZa5uXs9jpCnM8ePAxGLGpQq6H38Zf8Y72GsykpxAa9eYZ1U7Mqz3Z6hPaGZzx7OcCCVmzt2Ln/KEfDAnG2NYxnKzoxPzFEzu1bTIUlk3bUWLHpO7IDAAAgAElEQVRVMd1Zy+07BSiC47mYHIuXnSCRSTCyLWpisNgKxGJODyRcuIH/aDV5GY+kIxZnunh4t4QpgVg8u5O2kgJuP7Plm799nkA9iEWVQoFMJgfLxc0LOr6BKahfurFfGB2gLOMmLRsUW3E+2fukfqlnaMzJpKpHxaEP0vHrrSUrqx7P86kkhwWYDLEoH+nmcfYDOr3iuRp/gMGSmxT0mBGbdp0obxOLrXYSF+goK+bx85GvhtjOj9FflcHNHjdOn0xg/8xj/lf5GG6R57h82EsiYlHN3MIQXeO9DMnVuDsHEuTirQV+6+PZatch5DJkSg3mVlbYWFnR/+RL/uG52iCxFQKpUMiQK1VaR0Is2Fha2WBtZakVN0OzEWTjQ2Td+tI4sTUH5cI0o4P91D8po0ntx6nTxwj3czEoPr8VemuQ2ArEYk/ZQzJa5zl6Ng2/sRpyHhbh/sHvcjFUj2eLCvXCILm3chmwDSYteTcvi3O5/SqQ734jAS/7xUDNqjFb1SSNxff5n//9Noqjl/j0kxvEBy5WhtgW23C9diLicy+LsyhtnyI07TKBQ9Vk53URmnaO+FBfSZULjInZqsb7qMh/RJPtIa4k7qMn/zbl43YcT79KuJtpwwiLg/IVE1vZBIN1edxusCIhMZ7g8RJ+3jCPd8xFUvY6SxTb9adbl2e7WjbCwkQnZV/8mH+pGGZ30g2+fS0Bec09fmyg2CqG2im693M+L21gSqbGzNaNoxc+5dNzsfi6WG+t2Mqn6XvyM/7yp9XgHcmH3/iYmCBP7JeVr9L7gGxRA8PEVqNi8mUlGXk1qHfsxFk+QuugCxd+PZX9rm8K+a0esxXg4nka8x9S2j6B3y4fpnt6mAy7zGdxPjgsrZCtvkCmRi5W8ydmwNYBJ0dHbJfaryW24lqTfR08K83lXo2MpEvnOHZwP15Ob1Y7165BpkE+O053SwOFWZl0eMZx6VQsESFe2C8rTiltgUysPk/QXf+ER/mVTLgc4tqVRIK93F+v/po8G0GjZqqtjMySGkadgghU99OuCOD8uQT2ejlK8gCMEVtkk7SU51PYNE3QHjcG24bQ7DxM6tkodiwhNfXZubFhBJEFMT36iur8PMqbJvFPu0jSniAC3iq2ud71N32BTCNjqreRzIfVKLx9sRt5ybhTKHHnz7LfZdEr1P1MEbMVRT8XpqeZlqmwtLRANTdJU9EdPm9ScfJMCqeOhuLhZMtynVotjCCyPOZnp5mZl6Plh5uZY+PghLO9rfaFYYhnK5scpvNFM9kZmUzvPknaqRhC/VyxX6cw54qYLXKmOh/zj7fqcDx0hvQTB7Qltr5C0YMVc6rbkCE2e2k36eh2kOl2DC03SNXCOJ1VedzMqmDKeQ8nL9/gVIgr1stmaM1sBI2GucEWSrIekd80ik/UaT5IT8TXzvL1Is3mZCMIseyjJuch9zIr6JjT4L3vKMnpH3FuvztWS31dU2zVKsZeVJJx/y6FDX0sWO3g4PFzXPvoDEG2b/oqSWw1Cwy2VvDwZw940jmM0sGTyKSLfHg2gQDXN958U1OTdgdZfn6+Pv3RJqqLHWR/93d/R3i4fs9WnFAtn+RFeR4Z2eWMuOwhOT2NuBAf7KU5mBgltqiZH+mkIvsBj6r72HH4NBdSTxHmYS35YTBWbOXTQzQV3+NuThmd42rMAg5y+colLkSHIJVaseliK77cZDO0lmfyIP8pQw77SLlwjsQDfisETveFZ8rUL/VUNxXZD7lfXEPHhBK/0COcu3aVE/t8WZ6gYupshMGabD6/n83zjmEU1n7EXLhE2pkoAh1t17SRX5HUL706oG2wvalhe1ODNEvR38pYsdV/Zv0tTCG2+q+62MIUnq3Uay9vZ2qxNaZPv5RiKzw/sRfe0N9GxVa42iI8oG8f/maxETaEWHyLjaAtZZ5+yWA2gs6zLSgo0DvcwrM9deqUQZ6t3pOu00D3tSG+dMTnz0a3gBrSF92DpYOxbNW1xT0LAI2OjSB1D76wfR0bwctLelWIt8fkqyS2QnB1IBop46+LTerIfZvNRtB5/IYCegyxO1O0XT6nK8IIAjwiPh0NxRbq3so6lJihx4sOCaEV/5WCiBMvBHEtMaGGXksHzBGQDynXensCxuvrqf2rHzKYXwwyGQ57gon643+rTakyBLEo7rW1tZU/+qM/Mgix+IMf/GDLEIu6ORFjJeWB2yxj1eH0xHWlCt5mXXtsbIzS0lKt6EoFugix9fX15ciRIxumfumwlsI2pV5f3LsOb2ro87DauOkQl2L8pYqmsGfRBzEWou+bPW+iT+LZFfe3lba4GXYl5lSMxzuIReFhGkPD0lF/dJg3QzqpmygxmOLNpe+3nPplqGDq8IzCiIyBhwvE4rO/+EsGcwu11C/HvSEc+d//PQEXLxostoJnKxCLgp+q76dDLP7N3/zNliIWxdxsBrZP3/0t//v7RCwKsTUGsSh4tpuFWBQvOUPwhmLsxKYgYSOCgrdRMdKNvziXIWKrQwmKvm+22Io+6cbFkJeQIXZnqrZiXMRz9A5icbUFMimd2GgYYTN2kEnp53psBCnHS1ogk3Aik2cjSOiDvibGLZDpO6v+v2/HbLdBNG9byS9lzHZbbNcXg22x1S+WG22xLbbbYrsttus8Rdue7XY2wkZFVnf8tthui+2vtNiKbX8atQaNmRnmZuYr8IpiYPSJrfZ4jdjl9+6xm5NnuzQ9Gg1q7bXMMDMXfV2Z6qwvjKDvPg3xbMV9iX9isN7ux5aFEbTjoc1C146HIYnfxocRNFpbEdfVzreB192o2GrUaoFJwMxAvKKwIJOlfunmYRVb0AmLqbMRVtq22Zqx3S1J/ZIwHssF91ckjKBBPtlPXXEOWeXNzNr7EXHyImmxu3CyfpMdv96mhoXxHmoLs8h6Os3Rzz4iZa8fy/PqN0ts1bJpempKycgrpWvOjuCYU1w6H4e3rcVrkVl7B5ma+eEOqgqyya99hdI9iIRzFzgT4b+CvStNbDWo5sd5UZbN7ZJ2fBIu80lyBG/22y3mVJp6U4NGMUd/QzmZGUVMhSZz/cJxdjpKl1ujxFajZKKrgaLsHCpejmG/O4rT584QHeQuiccgHjCjxVatZHaonYK7GTTMe5L8r64T6WKPHnrfCifKFGKrVs4zUF/E7exnKIJP8lFKNL5LXJDlFzed2GpQTQ1QW5JLdkUjs7Y+HDiVQvLhEHbYvsurMLXYKmdGeFmRx4OyV3if/oD06N046dl1sq7Yil1yMhXmllZYWb151jfrS2sj5zFsu65axUhjIXeKXxIYfwKfmWZyikZI+q2vc8TjTSnwtcRWgMeH64p4UFBCY6cVJ37jE9IO7F6xN39TxFajYna4hdwHRUx7HSIuQEnVk0aUp3+Nj/Y4YL3Ezl1LbDVKGb3lWTyqHyY0/iQOr4opG/Xjg4+T8bF9A3qWJrZqxjsaeZx9l6J+2Hs4ha9dOcrywummF1sNytF2HueXUlDehGN0MlcunCXE2bRiq5kfpbYwk8dDzpxPDuFlQRmvrIJIvZJIgM27oOrVDNlYsVXPTvCqJp+beTVMWu4k5bc/4ej7RiyiZmFiiKfZX5JVP4hTyGk+vXoMf+fl1rA4CqYTWwV9taXklXewIzEV39587rRakHohlZjd0hCLGsUCk6PDDE/NolID5pY4uu/Ay9UJa0tzg7brTr2s4E5mNS/7BghM+doGEYtKZrsbqO6aw2PPfvZ4u/wCIxbVSjpL75H5Uk7c+cv4j9WQm5GHw+XvcHmvPhDNohGpFHOMdDSQfasSt/Q0Ug7s2nyxVSuYai/nVlEzHodSSfWbJK+ghGqPFL53JvA1k2AtsVUppqnLyeDpkDkJ11OxaSykoGqC/b9+g1hn29eeuDSxXQyrLPQ3kJP7mDHXGD6+vMU828XYDvMTI9Tm3ec5O0k+b3qxVYz18iQvgxdOR7SIxb6i2zwetib+0jUiPaTtEzZWbIVYqRXTdFQ8pqxhnNCPvwKIxSURVU92UZRbRLM8kMtpcQaKrYqZuX5ahzvolSnxdt9DmFsAThb6qV/aB1A9S9PjfMpa5cReOYfnSBX/dP8lR86ncCIy4J2tzKsiFif7qa8ooaTxFXNKNeZWjoQeTSIxai9u9oYhFgW2dWZ0kLx7d5jZf3YDiEU1c/3NPLqVxahPFCnnEghwlF6JZCMeq9RjDfJsxcAsIhY1JFz4gIDRZ+RlZKA5+z0+jHzzVlw3ZquRM9bVwKOfP8HlkonEViVnqqWEL5+04RV9mTTfcfIKiii0TuLfXtyD/VLIY3Wx1aCSj/PsURa147YkfZyCVV0J+eV97PrkY0562GK55BBKFVsxGe8TsagzBsXMBM+zbvFUHbAlYisQi6XZ9+nyOs7V+P1vEIsXrxPl8yuIWNRNxGw3RdkFNC7sJP2i4WI7NdtD01A7XQtKfD3COOgRiLNUsVVOU1eSS3mnJaeunsZ1rJaffFHP/vPnOXl49ztwdVOHEbTPxkYQixZmqJVyZseHaSgpoGzchZPJJ4ja5S4Jii9VKDejnUFiKxCL3U/uk/Figejz6fiP1pCTUYDLte9waY80zxZjxFY9Q8ezUu7eLEARdpyUc8lE+ix+eq1K/VIrmOmo4E5BE86R50kJmCK/oJRar4t8J8lfkmfbkJNJ5YCG+GspWDcWU/RsmoO/fo0oZxuDPdtfVbFVjvdSkZtBs8MRrp7cS2/BXZ6M2pCQfpUId9N6tosPx1cMsbgpYrv+Yy8e6Onpae1GglWr66rnaBaebcsCR6+cY8dQJf+c0Ul0SirHI/zfwW2uJrbK8R5qinPIqX3JjEKNmY0zB46d51zcATwdtxixqJxjqDaD/3GvlllrP5KuXeX4Pl8cV6mnthmCuZFzGCi2KsZaS7lf0Ix7+GE8ZjsorVVx/jevcdBNf8xW1MJSyqbob63h0ZeVuFxM5fzBfTgvKzy4asxWFMmbnWZsbBKNnTOuLi7YLwVeV0csqpkbaaf4YSH99ruJ8JXTVN+L0/mvc3GXvf6YrUpOX3UuD6u78Ak/ikN/NY2KPXx0I5Edorjl0ohL82w1qJRypl7VkJX1mFHXo3xwOQ53Wxssl9VdM/kCmVLB9OgATzPvUqvx4/T5FA542WK1DspuuWEZtUC2MEZ9SQ7FXZbEH/Ojs6KRUZf9pF2Kw0cXONdjvUaHEdQqlLIJmksLKasfY9f1S8T5eOJsQF2qzV8gE5kZSmQjL8jLKqZpwY+0tBOEeLm+JtHphsN0MVsVQ/VPyC9rwPpQIl79lRQOOXMh9SxRAYuM6OW/VRGLwpOcmmBybmEpZmuBvZMrLo722vvQ9V1KKXO1fIGx/m5y7t1lKvQUafEReDtbY7lOjboVC2SaBcZbc/i7f6jA5dgVvnY+ih0O7xbQ3IhIbtaxhomt8CRnhmgty+VeYS2zjruIPn+VcxHe2C97k6y9QCajvSKLh/cfUN02jdXucGKSr/Bx0j5crBc/KzdlgUyLFJxlsLGcB1mFtM7Yc+D4ea6dOYSz1ZsKq+tlI8gmunlWlE12RRtq7/0kXUjlRKj36xCC6KsksRWIxbYqMn9+j6LWPuSOfkQnX+JGchz+S5XtTL5AJtCWvU3kPbrLg8eNTOHCvthzXLmWRKS3i6TPLaPEVqNipq+FkpxMipqGcNuXwNnzZzjo5/AOUnAtgzZWbOUzwzSXPOBOVgntw0osQmO4ln6B1CPBkmDpoj+bL7YK5kbbyfviFtkVzQyrbNl34iI3Lp7lgK+DyXm2r4V8dpj6sjweFD1j1mE3sedSSQwPxGWVF6CpwwiDtXncepBFZUsPcvtdHE+7zMXThwlcKpO1ml2szEYwR6OUMzMnx9zaDjublVzgzRLKzTiPwWIr5aL68mzXO8dmia2UfurLs9V3Dkliq+8kSy8YU3u2ErqxbhOjxHajF91I6tcmXHvzxVZ6p0zn2Urvg2hparE1rDeLrX9F8mylDc222G7vIJNmKfpbGevZ6j+z/hbbYrsttvqtRHqLNT1b4ckIQzeGhiXEVrwRxc/Q45fj2fQRx0Rb4Z2KaxmDSdRRv8Sxgmpk6G+sro6av/wvWuqXRibHcW8wR/79n2hLsBiKWGxubub3f//3JVO/Tp48yV//9V9z4MABQ7ttcPvlc7LV1C8RkxeUJ0F0k0qdMvgGVzlA3LOgfhUVFWkRi1LJVcL2BfUrOjp6w4hFYdeCTyJsU+r1xa0IWp+gfYkx2wzql5gDbZFVS0tJ59N55TqerSF9lzJ3wh7EsyvG5ReJ+qV7jsQ9vqZ+qVQqjeDZikkzRoS2SmxFp3WIRWEIhvZ1o2IreLY1/+UHDOQWgEyB494gov79nxBw4QJYSS2+shinFojFP/iDPzBIbH/4wx9uGWJRxyfdDGyflAdK10Y86OKfKbio+vohxFYgLw3l2QqxPXr06IbFdjlK0BDB2myxFf0wFLEo+iB0wBSIRWEP4tk1lPOrb7634u/iORLPu+DZatnQuhpk4oYEUdzQ30bDCLpKDS4u7+5oebsv61bX1dNxcX8C5yhu2lAPXJx6rLaWp3/25wxk56NZkGEfFkrMn/0nAtPTDfZsRcz2O9/5DoZUavjRj34kuQaZoXP4dnvx8n0flRp0MUPBNt5Kz1bcvwgj5OXlaT1cqWInxmizKjWIexdCJ77wpN67eJDFV6nw+FZN/TLQEEQfjKnUIL6KpWQjGNgdbXNdpQZHR8dfOM9W9F1olqSCj1IGZ6Niu82zXX+UjSn4KGXe1muzvUAmLS9YJ7ZxcXH8spTFEQKhE3wpYQlDUr+MscvtBbJlo7YtttsLZMY8RKsds71Ato1YfNsufmXEVjU/wav6CoorW5ix9yM8IYn4EA9ppcxFjHV+nFe1VTxpmib0XBLRAR4moX4JmMx4Zz2ljyvpmLUhOCqB0zF7sbd4gxZcL/VLwDZGOxp4UtmMWXgSiQcCcH4LGSU19UujmmegpZri6i5cIo5z5vCuFXvQTZ5nK6xVrWSqu4XKsmomfKJIjAtnh61pQTSIUuaj3Twve0xl2yhOQYeIj48mdIedpNxe3SejeLjEJ6PUT2ntw6mUMd3bQklpBS+nzPA5GM/xQ6H4OEjnfpkkG0GtZLK7gZKKJmS+EZw6ug93u3fj+yZN/dIomeptoTCzCrOwKI4lHMTDbJGt8PbP1KlfsokeGh+XUNExhqXfPo4nxBGyw5H1NoCtL7Ya1GqB81wbG7lZjoCh5zEsz1ajZvJlBfezq7HcGYqLfICGTgcufesS+5xtXl97PerXYE0uNzOyqe9x4uzvfsblcBNQv8RDPt7Fk4xs2lXuBHua0/VqCp+0TznnZ/N6Itfe1KBirqee7AeZFNcN4Jv+Tb6eGI6P/UpzlCa2Ksbb68m79zNy+yw4lHCVz65uMfVLZG2MvaD4UQ4ZJc24nUjjo/TzJqd+IZukuSyP/OZp9kd609vYi9onkoup0XjoABN6LNZYz3ZhrJun2Rk0aHzZ5ThPY+co+5KucDHST/Izsvliq2ZhvJ+y+//MvZohPCMv8Nn1BANBNOt3X+92XbExaaCN0oIH/Ox+K8Gp6XzwtVR2mbPqC9DUYttTcpOfVE8TuW8HY73dyP1iSTsZzo51Xopri60GZgdo6RzH0tOPQC8XrNbZiSbZEDapoUFiK7Ya9pRn8LB5hiPJF/CfeE72oyf4fPhvSAl6s5C2dhhBg2x6lFettRQ+asLnWjqpJqF+KZnprOJufh0OB5I56z9NYeETWgIv8zvHfbBd2ie7tmerQbUwx3B3J+X52fQFn+VagrFiC4qFecY7q8ktqWXB6xifvAfql0Y+z9hAH9UFWbTbh3JuC6hfqok+yvMyabA+wNXEfXQXPKBq0oGT6ensd5UWAzVObDWM9zwn914ltkdOEBeoIOt+MWZBJ7h+9uAKlvB6z9Hmi634wFAw299MQVE5r8xCuXrJUBDNxsVWLVtgcryTkp9kMrYrgsSryQaJrXKsl+riLHJq2rVsBHNrZ8ISUkk9Fo6no5UB23UXqPz8p5RZ7CYtaS+jTwqpHnch8VIiYW6Oa8LtVxdbDYqpXsofPKTFYjcnzyYS4mYreafiJunpuqcxTGx/gahfky0lfPGkDR+DqV9vxmthdICyjJs0+yZyNd54sRVn3KZ+bSX1S8PIyzIePGohIOEUcUEqsj/PYcb7MJfS43DV1qrQ/zOF2GqvuiHqlwa5YoqR2QmmVGoc7TzYYeeMzdINSfFsRRdU8mFK//4m3V6hJFw2TGz1jZy0BTJRP2Ocgn+8RZtnOKmJ+5kqyaewV0PspWSivJzXDDW9s11Xo0Ypm+NVWTZfPJvg8NkUzkb4f6WEVoyZYWKrVtJVfIfMLiVx569qEYs5GTnYXvouV8NMSP3SyBjuaKKyvBGVXxiHDkUQ6LoYe1s19UulYKb9CTeLW/A4fJEL/oJnW0y5y1l+LzkIu6U94Pq2626L7ZvHyphsBOVoD09yH9LmGsvV42H0F92iZNCSuLTrHNphWs92pKuKzAf1eB5LJH6XksybeSj8Y7hyMRoHfWqx9PevptgqGZ9u52lPPW1zSgJ9jhDrvQcPS4k826V724jYqmbG6Gx+zvOuIWRKNWZWdvjvPcyhUH+cbKXybIXYTlP8L1/Q6BzGhaQwJksKeDxgRXz6KSI9naR5tmo5Ux1PyXzSRPewjIBjZ0k+GoLHKnFwidNusmYGia1YZBmuy+duWS97TpzCZ7KBR/mviPnWZ8T7vDHhTefZahYY7myhqqIJtd8+DkaGs3M9sRWVGgYayc4oRxZwhISd85SX1jET9wmfHnDBxmLRDdgWWyn+3aLtGSO2mtlhnhVkUjHlQ9rpYNryi2jFn5Sryey2M22lhumBVkrv5zARHEu0t4zCgme4RF3gWkLIigXZrQ4jbNyz3XgYYaOerWp2jM6Wehq6BllQajCzFGJ7kMiQAJxsLQwII6hofPgv3Bly5dKJUIafVdBOECkpMQSuUr1Cd+crPFvVLEPVN/nz//EE55h0vvXxWXa7frXCB7p+Gya2aFgY7aQq5yGZVa0s2Pmx9/hlbpzai7uN/hpkGrWMlxWZ3Lt1i8Kn/dgcjOfMhQ/5OGnvJlO/NCjnJ3hZlsud3HK65bYERyVx4/Ip/B0sX3+erCm2ahVj7U95dPcm94vqGHMIJfnCZW58mESQrYGIRc0CQy+qePiTL8l49oI5pxDOXv+AD04fw991cRXa5NkIgvrV10jug9vczC5jQOPJ0TPX+PCDJCK9TEj9UssZeVFF1sNsqrsnsAs4TFLqRU6EeWJrLk3ojYvZgnp+ku5n+dzKLadrygKviONcSjlJpM+7GMG15GvzPVsFs6Pt5P/8c27nV9GtcCb2wnU+upRCuK/9FlG/NEz3NVOc8QVf3nnCqL03u5Ku8K30JCIC3N75dDf1AtlEZwUPbz/iefcEZr5hnLmYTsIebxzWSUdYIbbmoJgbpatnEit3b/w9nLCUaFsmc2HXOLGBYssij3N2ivHJGVQWtji5ueMsGK/Lnp21Cz6qWZiZZGJigjm5+Pywxd7FDU9nOyyWTrBp1C8Rx1mYZXxiknmVBfbOrrg72a0w6PUWyMSxE+PjTM3L0ZhZYe/kgpu78wqRkJaNoEaxMMPE6ATTMiUac0scRF+cRb2mxUEzudhqkZNzTE6MMzGzgBoLbByccXN3wV5iUTxjPFtxb2rFAjOCfTqrwNLeGVdXZ+wkZiKI440VWzRqVPJ5JsYnmFOaYevkiquTnUE1qTZfbDWolaJ+1xhTszKUmGHj6IK7q+trPvNyL0i3U0psKBC7HKX8pMRsxbhMTYwxKWzBzAILO2d2uDtjv4Q5XX4dU4utWiVjbkKwceWY2Tri5uqMrR6b/JXJs5Uy4dubGrY3NUixEyltjBZbKSfX02bzxVZ6p0yaZyu9G9uIRQPGSl9Tgz1bfSfUejNqtZY5IH4iGd2Q36Z5thIuqi9mq+8U0jxbfWfZGs9Wfy/Wb2GsZ7vR626L7fYOsrdt6JfOsxXgEd2eaEMfGG012YUF7S4OQwEvOgyZEEJ9Qi3air3o4lriM0tg4KTs3dbdz0apXwKx+Ow//4UWsYhMhv2+EI7+h/9AgJGIxd/7vd/TIv30/cQ9JiYm8jd/8zdbilgUY70ZcBN997f87wLEYih1ypDzr9dW0L4KCwu1IBqpKD8dYjEmJmbD1C/xCa+DuUgF4eicFdHfzSC06cZfELYMCWWYkvq1nIYmdV42yyY2ch6dton/CsSimFMt9UuIrfhnKLZQ59mKARE/Q48XHRHH6vBs+m5Ox7MVWzmFQRjyE+Kho34Z2k9xHR1icTCvSCu2DntDOPIn/w6/CxcMpn4JxOIf/uEfGoxYDAsLM+SWjW6rQ8NtBiPVkE6I+dXxVKUKjiHnX6/tcsSi1GsLm9pMxKKO2yr1+uJ+dI6Ooc7HamNhDE9Y97lsasTiZrxMNstWpJ5HPEfCWRKIRS0feDli0dn5Tf6s1BMKgxNvNvHT552+fU5Dwgii7ds8W0M9W/FCEW9sfaDy1e59tKZGi1gczM5HrfVsQ4nVIRatpe/BF/fR2NhoNGLRkHuWOofL24n+iXESD49Aw5n6esuvrftkFIhFrSewRdsvxT0bg1gUY+Tv709sbCze3t7GDLf2GB0TWodYNMSr1FXXFV+VG/X8jFkg033Z6uDhBjEtJIyY0BYxLkJbDHkJSTi1SZvoXkLbiEW7N9WBpY74dsxW6kgZ3247Zrsds33ben7pYrbi81q8mYzxbLcXyLazEYyX15VHbovtttj+yoqttkR4Wx0VtW3M2noTFhPHQb+VicTria1aPsNAawM17bMEHjvCAW/XFYnUhoQRxCSsWalB5NnOjvKi7jmt867ERB/A761dKevm2c5P0N1Uy9OmbpRuu4iKPsKeHY4r8nQle7ZqORBp9z0AACAASURBVGNdzTxt7MEh9DAx+/y2HLGoUczS11rH07o2pm29iTgazT4/N2yl7Zo1ageZmB+Nco7B9jqq2ibxO3CUI0EeBumw8WKrQeBA22tq6Jq3Z198FP521pJ3j4lOmiT1S6Nibugl1c9fIvcM5eiBXbjYWL4zJiZP/dLImexqpKqmic5xDTsPxhB9IAg3uzebdkSnjAkjSGMjLN6ybOwV9VVVNPVPYe4RRHT0EYK8BGJx7U0vW+HZqpXztFY8pn1WhYWVI95+u9kb7IPDEsTKICNeamxY6pdGzXT3c3KyS+lX22CjUTBjEcyVj06z2+lNjHK9TQ3jLyrJepRBSQMkfedfcTXCFIhFUMlm6H5WyP3MXOo1kfzWt69yOMBtxX7rtcRWbNwYayojp7iKYXNnrBXTmO9K4KOUIzhbvVEnaWKrZqb/JeWZX3K3boI9Jz/gW+8BsTjX9YzcgjJezNvjajHDvFskF8/EsNvDXhKUxajUL42c0e4mnty5TWangqj0f803T4UYZKfGiq1GNstAYylf3Mmjh0DSv/cZMW6OGLKEuvliq0E+M0p93k2+LGnFdn8q//rGcQJW2ZpqarFVjb0kJyOL9kkNLrZy+qfcOXbpPDEh3q+hNmuKrXBkRG04lQqNQByYmWFhaYWVpaXWGZEutmq6yzPIqO7Gxtac4ZEZPCLPcPHkAbyNQizqTEtsHlGgUKpQa8ywsLLEXKNGIzZwWJiDWoVKDebmGlRK8b81mFtYYWVhhkqlRKVWopju5/7ff8GAnxeqwTncQ2O4cPYQ7uJwDZhbWGBhplk8p7kZKqVCu2HJylyDUrX097deGIaJrVpJd+UjHjbOcORMKn4TteRkluH70b/h/G4JiEXNImKx58Vz8h814HvtMimmQCxqFxhUzI8N8qKmiId1Zlz68DyRksRWg1oxT1PBI8p6ZESnp2DTUkDRcyVxn10lwuGNdyRNbHWIxWfkldQw/x4Qixq1nK7H2RS/GGfX+UvsHntKZkEvYWnnSQj2keTtGSW2qJHPzzDaUEFGRRN2By/x6YmgrRFblZKFqWGaK55Q83Ke/Z9eIcr1fYvtImJxbqCFgkKBWAzhyntALGq/OOTTDI/NYWFni+V8O/c+f4rzybOcPhiE0zJsxWqerWKwjfzb/8JPiuqYXFBhZudGzKVv8I3UOHxdbQwQWw3y2WnmVJbYzHWTnVlAr8thrp09jI/j2q9FfZ6tSjZF3+M7/Pj+E9oWXIlOTSZoooNx70hOxochr39CZaecPbvVVOYV86xjEv+YdD6K30FtZSlVz/uwsZried0AO45F423lQnB4LMd3TZF5O5fG/gV2xZ4mwX6YYc9IDu/fRf2jnzLkFc+vh8nJbpITfPgYEYEuWCxxWLRjrtFoEwfE4p7eGmQalZKXRTfJ7taQkHod/9Fn5GZkYpHyXW6EvynOuF4YQaMRn9T1ZP68DJdLaSYTW+0TrZim81kBP38yT+qNc5LFViWfoCYzk9oxG05+lIJ1XTH5FYMEfe0jjrvZotttKlVstR7CUCPZmSWMuEbzcfoRli/HmXq7rkY9Q1NuFpXdSg7eSMevv4aszAZ2nE8lOSwAKwmYAuPEVmtizL+s5HZeFWb7L/DJ8a0R20XjnqezvITHz0cI+Sj9KyG2WrsUiMWsAhplO0m/aCjPVsHIRDMlnVU0zCgICUjgdEAEXgZSv8S8CK9UPt5HS3kWpcPuHEtOJNLfjeVBjdXEVlRBmZkYZ2xmXuvlYS62w7vj7myPlYW5AWKrZT0y3/ecL356l6cTTiRevcHZQ7twtl47vqVPbKe7yvmnf3yCe2wMu836KG+bxM18jj6znZyO24estZTmeWuU/f0onL3Z5e9IV3Mn7gE+dDe0Yh0WTWq0MyW3KnGMj2C+qQeNmxvWfS9ZCIomxldDzbNm7JXjDDiEcSjCk7p7ucz7hJMUMEOdaidxicmEe1ghHOnX/rbhYnuLnG41x1KvEzAixPYRlqn/G9fDTYlYVDIzPkxv9xAaZ098fH1wXQo2rltdV4htTQE/f2yk2I7acGJJbAsqhwj++ockCLFdGj2DxHa4kexH70tsZ2nOy6LilYJIIbZ9NWRnNeKdksrpff4mFltY6Kjgdm4VbLHYwgIdZcVfTbHNLqBxwRixXf/DYD02gohDTgz20T8px87VCz8XM9oe53C/apCoi5c5GbEL+7c0blWxlc8xNjzA4PgsSo0GM3NLnD398PFwxsbSELHVoFiQoTS3wHK2l9y7GbywCCUt/ThBLmuHt/SJ7XjtXf7ywRBXrqURbd3JP2TV4OTtzsTLCdyCvVEO9eDi40Z1Xh4t42o83R3A3oeYA4F0D06xNzaRSwctePDPxdjFhzNe1cKcjYKh1ln2X04nNcyCvFs5TFjB5Cj4+6jpbFPh4mLG/JwK5/Boks8l4GNl9s56lGTPViAWB2tyuPd0iLCkZHzH68nKbSH8G98k0f/NttxNRyyq5+lrqaYg9ymqoCjij8US6rH4mbH5Yis+9eZpL8kkv22Kg8lnsG8r5nGnI2e/nkqwvdXrAfyFEVuNgv7KXHLq+tlxPJW9U8/Iqpwh5tIZjuzylFQPzHjPdlts35HHDcHDjRdbxdwIbRXFPG6fwjMoFL+FLuoGzNkZe5K4vT6repOria1qaojmZ2WUt/Yyr1RjbuVA0MEEjkUE42ovlWerfXppLyvhucyF2PAddOXnUT3lSfLVJMI8DK3U8GZcJlqy+dFPWom/lsZRyw5uFbXicSgO16ZsioZnUNlGcj3Rg6JHFTgfTCQt8QDzI8OYz/XwRWErQYeOkxIB95eJ7by9JTNt/ew4c4kLeywozChiPuAAjs1PaR3uwibsODvmW8ltsSflYgqXTx94Z33AoDCC+PSYG2yhNDOT0tYBVNYueEWc56MLB/G2e/PxsXYNMjmvagp4dO8OeY+7sI1O5HzqNS7HBeO09NmwOdkIGhTzQzSVZHPndibFnUoOnTlP2uVrnAh2wVIfz1atYrK7htxHWVR3zoCjG2GJl7ieIApGvvkukCa2C4x01JH35S0elDcy47KP1A9ukJ4QhY/zFiEW0SAbFgX+MilsGMLcwZGd0SlcOh6B37KFzfUeY6PEVjnPYHMlGffu8rCiFcuAWK7cuMKpuHC8TcyzVcyO0laZw507GTztmMc54TyfXDjH6cjAFZ/J693z5i+QKZmb6KLszi1uZpfTqXDl+KUbXD+fxB6vlUQ6Uy+QLXSW8//+X/835cM27Ny9kx1+wcScSuZo0A6WPcomzkZQ0V32gM8znjAqUyGzcOPQ6UtcSAjD035typk+z1Y23kHpl3eoGJlBIVfjsCuKc2eP49Z+m//203LMj3+D30kJZrTkHjn1/cxZ2eLkFUJiuBPFlZ2riq3CPZBAs04qX4yhUSrBdSdJqRdwqv2C/3a/hYRvXsero5Sf1Tnw4dc+Ii3K9x3TMlBsQaOSMzs2RM/AKAorJ3b4B+DlaL0iJWrtbAQVM6MD9Pb1MzGnxMLOCVevAHZ5O79O9dgssRUoO/HJ1NM/ypwK/n/23gSqru288/wxz/M8SQghCYQmNEsIDUgCCc16k59f7NhO7CTVtuM4ValKVapipyqpstPJsr26q7urV1XbjuP4TZqeBuZZAiQEiFGgARDzPF7ufE+vfeEikIB77oWLnv24XlrPa7HP2fvs4X++8+3v+20Xb39CwqMI9XaZaeuip+vqlIwO9NLdN4rB3Y+w8DD83J3m7NzLE1uxUTNM14tOBhRqJEdX/ILCiAwNnMHq2dpna/RfGrSMD/bS3TOI2tmL0PBwAjzlQ5atEluDjsnRfjo7exlWqLFzcsc/NJzwkADcZIacWRuNYEQZ9nXR1TuAQgt2bj6ER0QQ7r+wxfTq6lh+sTWg00zQ+6KD3uFxNJIDngGhRIWH4v1KyJWtxVY/OUxHezsDE1pjVp6TmzeB4REEebkxO7rJ1qFfetUY/V1d9I4qsfPwIyI8HD+PuXry6riYE1sjBnakl86+ESYNjvgGhhIc4Im9cojOrmHs/cMJ8XPHYXKQrp4BRlS6KbeKnzOjY6op/KiHHUN9o9h7u6MdnwQnd7ycNPT1DjCukfDwDSQ0JBD7iV7a+lT4RQTgPDnKgMKBgJAgo1a8+rNYbOVsJa8mNawmNciZJ3LKWCu2cu5trszyi625GuduptiKZyu/FbaPs7WkLaay5sTWmnuuxDULiq3IhReWnwhRsPS3VLEVTmRRt5zstUV9tmYabrJsrWUjDD16NMVGyCmYYSPs+cF/Ys25cxaDaBobG/nud79LQUGB2e4WlsjRo0f5yU9+QkJCgtnyy1FAzAeRUbjSbARhWYl/gl2x3Dn25vplqWyE4OBgc1Us+HeTZSvmtyXPLq4TXyGCibAchDZT/wvOghGcIoNNYRIVEyVuufkFppeQYCMslf1g9QBZceHsMRXaZmR96PV6SaTrigVmKUnL+Mkq4mnVamNzrKFpiWstoX6ZEIuWtnW5qF99+UVIag2eG9eT+JeC+nXKIrEV/WQp9evQoUP8+Mc/ZqWpX9aMpxXzcuaSN039KikpQaAW5S5qMW/DwsLYvXs3gYGBS3l04xoSc1TMa0sEa7mpXybqmtyXnUlUTCAaS9oup8NEe0z9Ikf85dxzpcrMpn4JI28GsWiyKCxtiOnNthSerehMQXoy9zNRvwROTvyz5LcsPNv//F+MPFshth6bYtj9H/+KiLNnsXN8PQVzobaJ/hJi+73vfc8inu0//uM/Eh8fb8kjW13WxCddDmvJkkaYeKrCslruRWuuHSaerfiv3LpN1C8htkFBQeaqWNSync1tlVu/uKEwlKxZe/M1Rgib0AHxkv28iK2pX1Z6Llo9mLMuFC9Csd59fETCwzTPdhVEY75r5W2Qmb/PSmyQmW/F4iWs2iBbaqVLOYNsGepe9dmu+myXYRrN3GJ1g0yhMFrElp4oIXpwVWyXcyrOf6/VDbJV6terM+N3boNs1bI1LySrYmu+j5ZaYlVsV8X2Cyu2Ii96tK+Dlhe9qJ18CF0XQ5SfiNd8mWC/KBtBxL/2dNLep8I/dh0R3nPT8pYnzlYMj2Qkf/W2t9OjcScmJgJf17mxb4vG2Rp0qEb6ae/oh6C1rAn2eQ1HKFtsJR2KgW5aOodwCVnL+rDXsZIiGuHb3/42+fn5ZvVJ+OOOHTvGz372M9nRCJJezUhPB60dvSidfIiKXkeorztOs3K3F6vYWjeCqHdMzJc+JX4R0awNtOwAUKvF1qBHMz5Ia2sbg0o7vCPWEB0aiIfcB7YVYlHAeUb7aW3vR+8VTHREAG6Orwcd2zrOVqwPNAq6XrTSpfEgJjoS/3liQ20eZ6scobuthY4BBYj+WLeGIK/F47+/IJathKKrgYLMPBoGVNg5OOEcspO3Lx0gfNZALYZYHHleSfbtm+TVGEj5029wyVaIRTGRaoq5cTODasM2/uRbl0iURf0yZgCgGWzjQV4Wtwrr8Un/Jr9/bAuh7nOJLfLEVmKyr5XyzI+5+nCA2KPv8s2Lu1cURCMWlqqznoKcAiq6Nbg5S7itP8i5I4lE+bqaFXdRwDqx1TLc8ZjS65/y2RM1ey7+4YohFrXjfTTfzSG3oRuNXo/aO5IjJ9M4FCOfp7v8PlsJrWKYhoJP+TC/EZeE0/zBW4feCGJR0o/RVllK9me3KHZI5F995TL7Y17CpEyTwtZi2/XgNp9kV6K1s2dc70zswVOkH9iEv5uVGWTqUXoGJ3Hw8sXfmLQjg7IkawUsvZBlPluDjq7KbG5WD7Ll2AnCR+rIzq5lw+99k6ORMtgIIgaw5zm1NQ8pv9vF+i9d4rStEItaFYNtzVQ9vMe9dl8ufylNJvXLGLuGdqyPZw0NlJfdZ2LrGd46mGC12CqHB2iru0t+dRuua5P50vkVpn5JWjrLcshv7CP0SDqxoxVklA6x48xJ9kYH2xCxqGN8sMdI3spv6iJgzyU+WBHEosRoVwP5N0swxCexL1JNdmYprnHHefto/BtM1xXgFQU9j++TX1bHiNc23jpnKfVL8FR1aPVadAZwEAaPg+MM32IxEM1suZD0Crpb2nlSlk3mcAgXz6axd508sdWP9lB/v4SSxhdMag3YOXsSu/MIhxNjjZlT8nm2MNLSSNOYE7FBBqoLinjisJEzp/cS6e26IGd5IcvWoB7mSXEuVeM+bE06yKYgdxx/W8VWIBafFV4hp8PAwVNvEzFYSd6dDOxTv8dbW2xI/VrkpWIWRGMxYvFlZcrBbsruXKUp7DAXD1grtlP3+9wgFt8+R1hnNVlZ9QSvCGLxTYBoJAZa7nP7TiPhB46wb52erE9ymQxN5OzZvfgK3rUMQ2X5LdvpSifaKRLUL6sQi2o6+8r5tC6bwlEVuzdc4Msbk4hyniJMyRVb0+N33vuEX9RInEgTYvv64a7zUr8EFnF8jFGliIefQiy6eXrj7SFSfe0sElth2Ij/TbRUcCvzPrpNJzhzINZ4YsRCv/nFVsdAdQG/zKwnIukU5/ZvxM3RTtY4y5gKy1LEIstWiG1L0VWy2oXYTvNsbwvE4p9yWSbPFiPPtp6Mj0rl82yFz3NkgK6OfgwCsRgSjI/NEIsv+1U12EPZnSs8Xg6xfdOIxdxM7rcLxOJ5IroeGcU2JC2NY5tszbN9M2I7aBTbBkIPHGF/tJ6sT3NRhe7i/Nk9yM2JtJnYLon6JU6UnmRUNcGk3oCriw++Lu4zmMzFEYuCF9FN75gGV8ECCPKhv/wqv6gxWCa2GiXDA730jSjQGSSjO9ErIIQQf0sRi4K1oma06wmFeaX0e67n2NF9rPX3mGFGz6dyc8QWPcrBdhqaWmhqeIo6IpGUpK2s8ZN3AsmyqKjMm1gktgKx2P0wi1u1I2w9lkr4UA3ZmVVEf/AtUtbKOKnBuG9lhdjqx2kuzeRXP7+FZnsab106x57IqYQHs5atxTzb30GxlbS0l2ZT8LifiJSzrB+qJOteP9vOnGDPOlu6Eab6cuV5thIjYm/hRgl225LYG64mJ6MUp40pvJWyec75b4utk8+n2C6+shcTW/VoOxU3fsMnlQNEJZ3jq+l7UVd/ZrHY6gZauZdxjevljxkXbgQXH3Ycf5vLRxMJ8Xa2yLKd7H5M0a1bPPXZQerxA8T6u5tFfs4RW804XXd/yV/+z/t4JpzgD//gLbaEeMne+JWpk8tSzDKxlQxMdNVTkFVA07AGB3tH7AJ3cfnSPqI8Xjq0F0Ysaul58pC7eZnk5D/F48AxTqac4HBCJO7TqKH5oxEkJIMB3dThPsbMC9PxPvOLrYROPURrdTk5GVnkNmvZk5rKiZQUtkV4Gj91xG/BaATxnN3PeFCST0buXbp8tpGeeoJjR7YQ4uQw82kia4NM0jDS/YyK7Axu3X3EuE8CZy+fIXnbRgI8pj6VbJ7UIAjx3XXk5hbwqEePp7OES/R+0o8kssaWG2R6NUNtjdzLucOtskbs1yZx6dwJdm5eh7+rvDAIa6MRxAZZU0kmeU39xjOhtJ7hHDqZSlKMv+yFs/xiq0c93kNdYTafZZfyTBPA0bNnOHFgN2v8XMRRXjM/m0QjSBIGvc7o67VTj9BSX01B1k3uPNOzNzmN9LRk4iJ8cTFzLI749J+6jzimYepn7+BoPN9LPIJ8n62Ohhv/g59erSZgUwLrwsJYtyWRHVuiCXCZS9ibPWhzxNZOj3LgCUVlrbjFbGf3pnDcLYg4kT0ZlqGgZWIrzvbSKhluf8KjpheoXQOJ2bKd2ABX46Fnpt+CYivpGGh7TEN9Iz2jWuy8g4iM3UpibDBui4rtwk+6kNjqNWN0NjdQ//gFQ1rwDIpkQ8IONoW4z7R1MbFV9LfzuKGOpz2j6Ow9CV+3ia07NhDgNDWhxE+e2OoY72+jsbqB1qEJ9M6ehK+PZ/vGdfhOcwZtLrZiAehV9Lc9obGpDYVbEBsTNrMmwAtneZpnXTSCQcNI5zNqG57QOazA3tWPqI2b2RwbhY+zHK8pWCu24itMNdxNY8NjuhQOBK+PI25tyAw3Wc7asYXYahQDNFfX8rRzAIXBgYC1cWzfvIlQb2fbi+2sh5ZUI7Q1NdLQ0sGQUsI7MJKNW7cQE+w9Z07YNhpBT3djBVWP21AaHLF3cCdkQxzxsZH4zXPisKn5X5DQLzlTVBy2aDDmZ4ufIPNY8lu+OFvztS4WZ2v+apliK+NGKyG2MpqxaBHrQr+WWusSxHbpVdvmKHOZ7bKJZSuz7tnFbCu2VjRoOoVbtEtoiyXMCOtqW76rFrVshdUoB3P4anOWKrYmxKIcnN9yIBatTdedQSxm5xsRi26bYtn7w78m6tw57J0WjhN8tb9MYvud73zHIsTiT3/6U9lJDUudMm8SsSgsGQElkgtCWeqzmq43IRYFiEZu3SYQzd69e3lTiMXx8XGjCC0HqMVaxKIYM2HMmNCMyzUm4j6/7YhFAdKZQSwaDAZJLC5hnVqD1BMTzoRYtJQ5YMIzinuIybLYT5QVdDAhzgJXJlB0liDXTNQvsZAsbado13BtLVX/9b/Rm1cIai2eG9eR+O//PRHppy1CLJqoX3/+53+OQPqZ+4lnTE5OnkEsWvLM5u690N9N2EsxH1aiPlM7xMtUTE5Rr8AcrmTdQ0NDRgqbJYhFMZYmxOJSqV+iz02CJdeCM1lPoq8sXQ/zjb2JuibuZSnPVqxhS2hhcuemaJNY9ys9F+W2b6FyJm0Tf/f395/qT5PYChGzRoREJ4sOET9rxNrE8TQntuL+YjKK8kJsLUUsvirUlnamENvqv/07evIEYlGL56YYdv6H/0Bk+mmw0LIViEUhtmJxm/sJwTl8+DB///d/v2KIRWFNyHkBmmu7pX8XYiv+mcTW0uuXUt4asRV9FB4ebuTZLlVsZz+7XLEVzyvWrUlsl/L84lrTy84ktnLuZ3KB2JJnK9b9b5vYir4zGaECsTgjtqsgGvPTStYGmfnb2D4aQUYbzBVZ9dnKOzRNCExkZCT79u1bFjeCMFqE0SGMCTk/S5MazN1z1Wdrrofk/93iaAQ5t16qz1YIvelYHHOfjW/SZ7sqtnJmw9LKWB2NsLRqjVcvfzSC/EatbpAt3Fer0Qiz+mZVbFcPfJQvK4uXXBXbVcv21RnyxRFbyYBWOUpvzwBa9yAjenB2jK3omMXEVq8cZ6Cvh/5xDS4+QUSEB+Hm8DKHedlCvwS5a3yYnp5exrQOeAeHER7oPScNcLHQL3EU9thAHz2DYxhcfQgJDcHfw9mKo8yNQa4oRwfpGRjHyS+EcHGs8qwZtCKhXwKuI45a7htA7RZAaJDfa8jIxWTPajeCQYtiuJ/uYRWegWGE+rpZpMNWi62Yp5Oj9HT3MqoBz8BQYzqpKZ5bTiNsZ9lKaBQj9HX3MKI04OQTaDze3WtWbKlNLVu9lgkxJn2DaB09CQgNJcDLdV5oy4q4ESQ9k8P99IhjwrUO+IaGERrog8us2P3Z4/WFEVudcoDnZTl8fC2L4S2/x19/5Qhe05wCU4csmkFWXcitjDwaB9V4RMaRdOldjq0RgdRTQe7LI7YSuskhmooz+aywgj6NK+EJBzn39iliPR1xmI6nXzipQc/4i1ry79yhuGkAyTuYxBMXuXxwo/HFYPrJcyNIqEe7qM76lH8ubGHd8Q/440srj1g0KEd4UpbHlSs5TG6/wNfeTWO9t7zEAvG81omtHkXfc8pvfsSHlSPsvfxH/EFKrBydmyljrdjqJ4douZ/L9fyHdE1KeG7ay7nTJ9gd8TrZaqEG2Uxs1SM0l+dyNeMevQotBt/NXHj3PAc3h+MyPSS2E1sJdd9z7mXdJreuDbWDN2sOneLioR1Eeb1+hp/txVas1UHuf/YRGQ+eMjyuJnDvKd6+cJL4ANeZTFHZYiu4EeNq7Fw98HR1nvd6iybgMha20GcroVb00VJZSXXFfZ6GnuRPL+2TKbYGDJph7t64Q5MumJOH19NWmke2ejffv7R1hvKzLGIrwDWddWRk3UeK3k9ypIp7JVX073iHr24XFt3i6boGnZKWkiwKno6RcCIF92eFlLS4c/KDdNa7Oc9YpfLE1oCiv5vmhwUUNPTiE3uU91cYsSh4toaJPppq6yktuY9i7S7ST52wvdhKWkZ62mi6W0RRyxBh+9/i95LXWTR9rRNbibGexxR9Vohy4wH2hqvIzbmPx5ZU3kre9AYRi9OPPjnAk+Zn9NqFEuMzSMmHeeh2n+Dkke0EOb40OkzxpMu6QSapaXtYRGFVLzGppwntLubDBwpSTqWxb0Pga1yC+cRWP9ZHU1U59590otRJ2Dm5E73tAAe2xODj5mhBuq7xOxiNYojG6maIWM+avkJ+XqVk86F0jscF4jjLuDFNnAUtW/0k7eX53B9wZtPe/WwK9sRpAevYokm4TIUtFFuj7Yl+rJfavKvkaLbzR+dliq2kRz/ZQeb1Ioa94jl/MoonxQVcrfPmW99KIcrDZfksW72Wsaf3+LSkmeDEM5yOGCEvv5gyrxP8+cl1uE3nqM5v2UroNaM8ys6kasCJQ++k4VxXRMH9ATZ88A77fcXn1lTvyxPbqbJvErE43bGox0eozblGpSGS46krILamPPmWB1zLq8Au/jRfSloZsR1orSDzdh1BRuqXjqxP81CG7+ZC+m4j9UuOTW8zy1YyYBBoQb2B3sdFXMtuYs2RUxzbGYOHWctWy9DYU+6/qKFpUkt02B4Ohm0i0HHqmcxGI+gnqL+bR/kziYMXjhMwWMWvrjexLTWV5G1reNW2nU9sDZOjdD5voqlrEI1ews7RlZDoODatCcHDxcFCsTVKipG1YNCO8yz7CjnDAew9cZKdYR44zJNO/prYir6UtAw1V3Aj8yHOmw+RlryNANeXHJNl0ssl3cYKsQXDeC+1uVfItlRsJ9q4daOECd+tXDgZaRTb4e84AgAAIABJREFU65WufONPUonyXE6x1TDeVMKV0qcE7j7PmbBh8gqKKHQ+wr9N34C781QYz8JiO0xVRhaPhl058l4aTrUl5Jd3sfZL75EcYKXYvkHEommGaCdGqMm6ysMVFFtR95ugfg08L+NWRhORB48aebbZH+egDNnBmXP7kOtIsJnYGm0WA5q2+3x04y4D4ft569Reojxfhnct7EYQiTxqJrUq1AYJZyc3PBxfHiNjVmx149SW5FLe6sjRi8fwHXrEv3xSR0JqKkk7oplahS9/tncjTNelV9BamsU/l7xgc0o66bticZnHqjXOJ5XKGK9qTNe1t0OvUTDc1UZZQQkvPBNIP7GLaL/FE6KWpJpWXryCYmvAoO6n4HoW7Q5rSDsWTevdPG71x/Gn7+8mcPpYnXndCAYFLdV3uXm1EN2mJE6eOMaW0KmNlnlDvww6Jl5UcjOvBteNR0iJnKC4uJxnMRf41r4QXKehNwv5bA1aBY8LM7n3Qs2u9JO4NhVR0iBx4Ktn2ezhYqEbYdqyXRVbWEHLdqSzjrzPSnHYnsT+CA3Zt+/huOEIl45veU1QFlo7yye2BtD2U3Yng/zqTiIPnGRfsI7q+1VowraTfGgXEd6uTE/LmS8827gRlDwtL+Ru3Qibz6QR0lPKbwr7SUo7xf74kNdO7ZhPbHXDnVTfzSXvUQsKrQFcvIjff5KTezcT4CHvpAbFizpyM2/RMBbA9tSjhE8087Cml4BtB0nato5Aj9f9x6ZxmiO2OgW9Dz7lx7+pxD5yJ2996Tw7ovxnXIVW6qJNLrNYbHWKITqbaynJuU25bhPvpx9h44ZoAtxfBn0vtEFm0Kt5UnSL/MYu/IJDmBwcwLDzbd7fEYi703JukBlQjXZSkZlDzYg9gT4wMmpP3IX3OBjkPDOpFxJbyaBjoKGY23cfofOKwEXRjSJ4H19K342P08vnlOdG0KMc66e16i538isY8dnOxUtH2RQejMe0O2MlohF0imHanzRQmJnBYymMw6np7IsPx99tboTFQrPMqg0ygw7FUA9PKwq4XlyD/fpjvHNyD1FhAbibfDFmprV1PlvQjHRRk3eLB2Nu+Dvp6BiV2JFyhuNxwbIX0vKJ7dwqpbEXFFy/QsYT2JmUSEygL4FR6wgP8MZlenrZboPMwOizKvKLSun3icFruIV2t42cPXmI+KDXI0Vsb9nqUQ21cP1//RMNjjEkJW7ALyCYtWsjCTCeIfb6cM1FLGpRdDzk41v1eG5P4dTu9XjKJMrJngjLVNBCsZVQD7bx6MF9Kps7mMCDyJjN7E7aR6zfyzfRwqFfEqrBduqrKqnrnMA3OoGD+6Z8KybXzLJskImvNJ2Gsa4nPKh4xAulC+u27ubgljVzwkkWDv0SO6TDtNVX8rCxA11ANDt372JjsNec3U15Yiswg81UFD+gsWcEvasv67buIWlHHIEryLNVD7bzqKKMiuZOVJI7obHb2Z+0lWhfD7OwZjHXrBJbvYqBlnrKHjziSc8Ijh4hbNy5l91bYglwleM1XQL1y6BB0dPCg4pq2sYdCN+cyM64tQQsctzKq2vKVmJrGOuh5kEJpU292Dk44+Luy4bdB9keG4HXtCfBdmILaCbobK6h/FETCrcIEnbtYnPk/Nag7cVWh3qsnXt3imgemARHR1xCY9m3dycbQkWo5uvz5FWfrSR84IKta2f/WhjqMunkstzGQrGVV+dqUsNqUoO8mWK+lLWWrfk7my9hK7E1X/NLAPdquq4Zy9ZBXhq1nD63dZnfarEVjRfWqViQInfcUuiNybIV18qB3rw6GPNZtnt++APWnrdcbBsaGhCIxfz8fLNjLlKYjx07hkAsbtmyxWz5pRYQ/WxCLAo0nLkU6qXWN/v6NyW24pkF7SsnJ4fh4WHZ3FQTG0EgFkNCQqzuCptatha0ylrLVsBwTCAauXhKuc0S9xYvod8Znq1YXOKhrBEhYdmKRSJ+ll5vwjOKgRIM08UW9qtiaylSToit4DCIyWBpO8WzDQnE4t/+Hb25gvqlxmPjenb9lUAspmPvvLCD/9VJJZ7j8ePHfP/736e4uNjsnHuV+mVr8TMt/NnUL1vXaeoEE+JPvEgF+Wql6hXPLKhfhYWFxv8Kipac32zq11J4tiZyntgAtoQJa3LDifYuBxVL9L8QXBMqUU7/m9a/rcR2NnpS7rjIGTtblzGtI/FfPz+/l9Qv4aMTQiQEzNKfuJnoEDEwll4vrhUDLAZMDt5RCKYoLwTTUsTibKvY0naKPhmuq6P6v/43+vKLkNQaPDbGsPMv/x3hpy3n2TY3N/Ov//W/tohn+6Mf/Yi4uDhLh8eq8mI8xdhY+kKzqrJZF5nGV9RrCWZwqfUax3d42PjyExauHJER18wW28DAQKubYVoHQrAsfXZh6Fiz9uZrrKn/xdqSa6HOfjmLNbzcgijaJP6t9Fy0ejCnLzSNqeiPOWI7m7xlaSVL8dmKuiyp2wQAt9aNIOoS18oR9lf7wXhSww9+SO/0SQ3um2LZ8zc/YO25cxbxbMV9hRvh29/+tuyTGkxuhISEBEuHx6rys90IVt3AyotMn7Fv6qSG3Nxco2UrV2hmuxGWYtmaDBaTz1Zu/aKbxUkNYkEvx0kNon4h3mJ9WIJ5NJ3UINqw3C/J39aTGsTYmFwg4hQa45eagIev8mzNq4O8aATz91mJ0C/zrVi8hFXRCEutdDqAXSwu4Z+zRHCWoepVxOI07Fr0vxBNS05qsPWxOL9zZ5CJt/SbOINslWe7uFSYNsh+9rOfrdgZZKtiK2/XexUebslR5ta9Er8w1C/jmfE6NQrFJHpHd3w8xJlUczttMTeCpFMzKc430+hxdHHH08sdp1k3WK44W9FOvVbJxIQCjcEeF3dPvNxd5uTEL3q6roh00CiZnFSDqyeerk6vEYTkW7YGdColE0oN9q4eeL2SSLBSlq1Bq2JyYhKdkzue7nMzlsxNe2vFVsQ7KycVKFQ67MV4e7jjIjOhQbRpKdEIIjlFpVCgNjjg5uVhJMvJi+6d6g3bhX6JualCMaFArZWM/eLl4Y7zrH6xbTSChEGrZmJ8EsnFHQ8P1wXhPNZGI1hk2Yp9GuUEE5NKtGKteoi1On9Cg2lO2NyylQwoJ8ZQ6SWwd8TJyQV3owZYMoPmrioLQ78k9KpR2quLuHo9m+H4d/iL95LwNKW9TN97QbGVdPQ3lJKRkcOjLgXeMTtIuXyRfSEeM3Se5RFbCb1ylJb7edzMKeWF2o3onUe4cP4oUW4OM6K5aFLDxKARSXg9swLn41/j947EE+w2t6Plia2EdmKA+qIbfFjwjKij7/L19B3MztVZCbGV1OO0VRXz2fVcxuLT+fKlFNZ5yZ84VomtQcPg0yqy7mRT+WIE18htpJw6RVJcEM4yJ621YivpRVJLIxkfXadOFcqZ/+0DEn09ZKfq2lRstRO0VhZy43YBraNaHEITufjWafbGBjOdSDkDc7FFnK2YCy9qCvnV/8zB9XA673wplUh75k1usb3YSugnB3lw+woZFU0MTugI35/OW+lHifVzsRyxaM5qkPV3kdQ0wJ3/9T+pMjhjr3NnbfweTqVsJ9DF0aIX9uzqLBZb5VgH9YXFVNbU0r3uLN+/vF82YlHSjlL62S3qlP6kHFpPe3keBfaH+f7ZTfi4OhrbtSxiK+lR9DSQfeceqsjdJEVqKL/7iLED7/NBvM9MSuTCPFsDqr6nlN+9z4PqJzgnv8O7SQmEulsjtgZGO55RXZJBUYuS8M3H+fKFXSsrtsLKH31BVdlDiktrsNucZGS72pxnq+insjCT8pFgTh/fQEtBEU+lcNIuprDmFQbyQmvAWrE1KMfpbizjTmEV/bogjvzhO+zy8/x8iO14F9WVNbTbr2FbmILSjwsw7D1B6pEdBNoasSh4IgPt1D66x52bNfjtP8Lpd1JZa4HYGpRjdLU84Um3ifrlQtCaTWxcI1LQLaV+6VGPdVFb1YZT9CaCX+TwmwYd246c4chGPxznQSSacyOIF62it5Wmtl7Gdc4ERkXirRlH7e5PaIgv0lAPveMGfLygv6OLwQktHkFrWB/ixmBfD31DE0iqLvIyqvHcvxX7jhG8oneQsjeM0Y4uhif1eAVHEOKoROXqT4CfF0PtT1G6hbDRx0DHiAGvwCACPOee9m2h2IolYUA/2jeFWNRailjsJOt6IYNecZw/sYanJflcrfflj755jMhlRiyOPivlanETgTvSSY8YJa+gmHLvk3z/ZDRuTlMxk4u6EQwGJod6KMu4RnPYYS4esFZsxQtkCrGYk1XCgO9u3ju3c2XFduotZjy5oibn+oohFrVDHdzLvc0zn71cSoqnu/gKxT2O7D97ie2CCSjjZ63YTmH7JmkVabG1g6x/9xyJvp8TsRVrSG8AHBh+dpcrNyoJTj7F8T0b8ZoO513YjaBjZPw5DzvraZ7UsjYkkX0hG/CXi1icNmj06j7u/fIq7cEbOHj+uEViqx8f4GldJdXPe1AZebZuRMXvZlfcGrwt5tlOTQJJMcDj8nw+y3mIIe4wF88cY6O/m1WWrbK/mdzf3OKZgxtOOiWT7kGEqnro8UngVPIW1HX53O8FfwclYyoJF3cnRkb0bFwfSEP5ffqcQ0jc5EpVfiO+B7bj1K/COyqGSNUz6ocd8XXSMay2J9pugJ6AHezeHkX1Jx8yGL6fL21SUNDjzY6DKeyIdJ/zsrBCbJeGWLx9o4Qx3y1cOBHJ05JCrlW58o0/TmXNoohFCZ1WjUqpAUdnY3yd0zShYl7ql/iEbL7LlXtPCNp1jjPhI+TmF1HsepR/ezoWt0URiy8VQDXYQ9mdKzxeotiKO6q/gNQvzUA797Jv0RJ8gEsHNtNbcoWCDjv2nrlMYoiNxdY4jCpayoq5VzPwORBbAxqlCrVWj4OLq/HrStXdSEFBGS1OMaQeP0Bs0EtOxcJia0Ch6qNtqINejQ5/n2jWe4fiOQtgI0K/RFjRYqFfek0/d39+hfbgWIvFFoMerUaNSqszGhJi08bJ2RUX56l9DVPbhTGzUEKGpNca/fE6gz1Ors44ahX0tjZyv6iIJ/YxpKSlkRjlNS/rwJxlO9KQyT9+/Jwjl86Q6NTCh/mNeHk70TfgTNzWNeja61C4e9Fyv4IeyYvIMA8G+5Ws2xjNQOcga/Yf48Ied7J+XYz7gQSGK5qYdLNn7Ekf4SfPcXqjPfk381AalPRrA9gY40pTaRtOgYGEuCiZCNvK4ZQjRLvbzQHprJzYoseg6iH3ah49rus5e3Itz4ty+bQ1ku997RDB7lMZV/O6EfQj1OR8zM/+/jeoD7zFH3z9KxyNEQjohRCLWsZbH3C9oBG/LamcjBglv+guj0LO8p3kMHmWrViqq2I78+axxmerH+7ifl4Gje47uJi8iY78a5QPuXDg/CW2+Mnb3bfasv08ia1kAE0bV/+v/4dfZTex6Z1v87W9PlTl5DAQvIczZ5KJ8nR+bWHaBLE4PaJLEVttdxNZH/+cX+Q/YkSlx97NnwMXv8kfnE8i0tdFltiO1Bfx8//xf1DcH8qRr73NgbVRrI8IxXe0kl9+1ozf9mRO7onBfTZ3crrt5sR2+NEN/uutPs5fOsNe51b+Kasa943xONU9oNXNBbtxbw7u9if33lPWbU8i7cBGHOzscRxq4OcZNURtS+LUFjtu/nMxbiaxddHS16wg7vw5Tsc5kHctl0HfEByftqNz7GPINZZAu15q2pzZc+QIp08mIrZEZjseLRRbCZ1yjN5n9UaLpVQXz5fPJLM+JhK/WT64+TfIJCSdkoaC25Q8GyYsKpTx7k7G487xlb1heEx/2s/vszWgVowzMjKO5OqFt7cX7tPl5z/K3IBqqI2y7AKale5E+En09mmIOv0OR8PdmL50YTeC+OSeGKLtcR2FWZm0BO3j7NF9bF0fgqfFZ5DpUY0P0V5bSkb+A4Z9tnPp4hFiQwJmRH8lNsjEhmHn82buZtymXgrnSOpp9mwMwcfVSZbD3xqxRT1Kc3k+BY1jrF3vR9/zfuyidpB2IpEg006QGVeCtWIrImbG+1upKMinvGGEyDPCB7iOKP+5h20uVv2yRiNIWiZGRxmf1ODEJI3F2WQ2KNm8bydxUaEEhUcQ4ufFNHXThhtkYg2P09teR86vbtHpv46d6afYFxmMr/vruM35NshEhMnkxBhjk2oEbAt7B9w8vPH2cDMeYyPHstVrlIyPjqDUgZ2+l3t3ShkNiCZGaudBjys7j6ZxKD545mzC2eNkTmwnOiv5+J8Kcdy8mQipj8d9dmw+dISQ5mv8orgZw8YLfOtkGPV3Mul0iyIhYQ2a0UlCfHXk3m8hRgjwFl6K7cMmVN7+uPc/ZzhgE1sD4cmzbkJ2HcW37g5XHjSx6dx5Qrrv83GdJ+++c5nzB6JfW1cWiq0BRUcdubduklnRzDg+bNh+gPS3L7Ir1HWmPxaORpCY7GmiJPsO+Y1DhOxI4Z3zyYS5OdoAsahm6OlDbt3OonbUg8SUs1xOjsN1lsN9QZ+tQc/gkwdk3LxBQX0XasdAth9K5cK7KcS4vmyrrGgESUlv8wNufXiT0tYBdO6BbDuSzjsnDxLp+9Kab2xsNGaQWQKikR9nKzHZXk/O7evcfvCUSbxYv/MY599KYXuIj+0QixhQ9rdwP+c2GVVdBG0/xulTx4gLkCfwRkeASmX8Z2lSg2a8j4bim9zIKaV12IBd5DYunD/L6T3reXkewuJKv6xiO6sq3cBziu58wpXyVsAJV58Q9p59i5M7N+E3nR1vu9AvifGOBgruXCGn/AljDj74bznKVy4eY2uUvyx4uDlXuxyxnX0PSavkWVkm17NLaFV4sufUedKTdxDgaj+vIWBObA2aCfqq87leVEWn2pOth1I5tmc9zj0VXLtZhcueM6QmrsGp/T43s+9R0z1O+LajpCcGUN/cRVD0ZnauteNBQT3OcVFMPO3E4B3Jet9hinJLeTagISrxEGnH9uP8tIBf53ex60ISPp013Gt1ZX/KYRKjvF/rJgvFdmqjxSAZkAwSkp2dMQdbpAbONpcXTdc1XS/wk3b22L+y27gs0QjTjynuJRkMYq9k3rrMxdmK5xBnRQmf1HzPKUtsp10joh2me9nb2WM3K+ZzJSzbOeOGnbF+YztkRn9ZZdlOOYaMY2C0gOaZK+YWrrViO1Xv9Fw1DqF4ZnuL4iRtJbbGAzjFvBR9Mv17tW22E9t51jDTa3ieuWD70K+pDphh0i6wVi2xbE33M2rU7PsJ7TEYwDQPXtEisRZEvxvnivj/RkbulKVuYmOIdk5JwtQaFscbTd3SeALcy7/N05dmxVbk8Fr6Ww42gnAP+PiYPy3q88JG0KvVuMfFsveHP2DNuXPYOcm1n6Z611I2wtGjR5Fv2Vo6gq+XX2UjyNvQ+11jIwixFf9M6bpyZtJsy3aVjTC3xxZkI5gAFHI6eM5ngSQZP/1Ep1uKLhTXiME1IRbN1f0mxXa4tpbK//K39BkRixo8NsWw6z/+FRFnzmDnKG9xmp5PIBb/7M/+jKKiInOPbHzLHj58mH/4h38gPj7ebPnlKCDG00Rik0vAWo56xUtXzAexq73cQBNz7TMhFoWFK7duE/Vrz549BAUFmatiwb+b1oGliEVxQ/FiFO21lO88X2NmIy7lsilsLbaiTaZIh5Wci1YP5vSFpjEVc8TX1/clYlEMmPhnzYCZmLSiIyy9XjRIdKYQW3NCLcqKTheLURCJLMUkLhdisTdvWmyNiMW/JOL0Kews5Nk2NTVZhFg8dOgQP/7xj1dEbE1jIsZ1ORiplkxaITbinxhbo7tKrt/DkkrmKSue2RrEorguPDycXbt2LYvYinVgYvnKfSRhPZkQi0vtL9H3Yj2aEIty7mcSW9N8kfuikvt8ok1i7a70XJTbvoXKmdaR6MPXEIurIJrFu1euz9bcIK2Iz9ZcI8z83Xqf7dIqtt5nu7R6xdW289mab5tNfbbmq58psVI+WwuaNPco89VjcQxGJq34iV1kS37LuUFmrt5FN8jMXQysiq2MTlpikVWx1Ri/8CxhycpJapA7LKtiK7enzJczu0G2ilhcuBNXxdb8BFtqiVWxXRXbV+eQudCvpc45W11vsdiKxISRlmpu38lneG0q3zi9E3dTJPZ0KxeOszUw0d5AUfYdSp4M4781mQsXjhPj8TJ7ZtksW0mPcqCFezk5lE2E8fbFFDYGeclELEpoRjqpKcomo7QJdUg8J8+kczA2iNl0QLliK2kVvKgu4LPCJwTsO2WM95192NBKuBFEeuTwsypyMwsZXJPMuRP7iPCQGfdl7VHm6Jnofsq97AwK6nrwiT9IWloK28I85s15n2+SWy22OiXDz6q5fTuLumFHog+c5PShbazxehkPbm5R2cyNIGkYePKQjM8yqO3R4BWXzKX0ZOLDvObEm9syg0zSKeh+VMDNrFIa+g1sTD7DuZTdRPrMxZDa2rJVDjznfsZN8hp7cVqbSHr6SbaE+TCdUT/vEC0qtsbwLoFFFKGN8ue3ubmwHH+3UGwllCOtVGZlc+9hPaNb3ubfvnNQJvVLcHAnqMm+Q1mnjs3x4Qw8raclIp0/OrwGz+neXS6xFZluz+/nkll8j6fSNr7x9bNsi/STJbaCGtRTlU/Ww1Z8NiTg1l/PM2kDb186TNAsxJo8sTUw+uIxpVnXyGnVsnHPWb6y0tQvJPTDbZQXFJFTXIvr7pO8dfak7alfqmHq7+VR1KJjx44wOmueogiI59Tp/YTYOINscrCVB5nZPHNZQ6yPikdNXaw7eJYziVGyMuZs6rMd6+B+8V0ejfuwOUxLfXEz/odPcSIpAd9ZjANbiq2+/zE3M+6h8olkU+AkZeWDxKSmkRwfidussy0XyiBTjI++zCCzs8fV0xdfT/kZZFPiJdFW+Ckf16vZmRDGUOszJgJ3cOrINkIEMWsBhVtQbCU96r5n1Lcr8FqznnVBXjh+jgTXQrEVQb861INd1BbcoMCwkz8+v0+e2EpTbISca3n0usYa2QjP7uZz9VkY3/n9Q4R6LMJGWOS1Mn+67lRwsl4xwvPqAq4+1HD6rVS2yhJbAXaeoD43kwc9EvsupeHaWEjhw3G2fvUtdnm5zGTZyBNbQZ/SM9lVR05eGSP+e94M9UuvQzEywKPcW9TZr+F4qu0Ri7rhTsryMnjsvoPLgo1QeIOyQRcOnr3IFn9bshEkhtqryf6sEu89yeyP1pFxvRBD1AEup81lCS9msdjOshXhbBp0kguagVrufFSE457jHE/aQsAKiS0GDQqlDns7A6reaq7feULI4RMc3hyFhxmx1Q2+oCz7M25VNDGuNmDn6sPWoxe5eHg7wV7OstJ1hdCCkrIPP6TSNZbTRzcxcjef8gF3Dp09RoK/p4ViK6EZbiP/0+s894jjxKljrPd1lv0FtRyWq7l7WCy24oaG8V5qc6+QrbEQsTjRxq0bJUz4buXCyUieFBcYqV9f++NUohelfi38GAuJrfEK7Tit1QV8dE/JqbdOyhdbzTBVGVk8GnblyHtpONWWkF/exdr33yPZ33XGlSBXbEVTvrjUr5u0Bidx8UD8S+pX+mUSQ+XFIVvnRpAYeF7OrYzHRB48yr51erI/zkERsoMz5/bhK7KKzK0Mm0cjSBjGeqkoyqKow4Ujp06SGO0/c2LCwtEIehTKHp4MtNGt1hPkt56NvuF4OUw9k7jOkg0yRedj7hdk0ewUz7GUg8QGviSPGeetWm3c/X/1DDJRj/hn+k1lXU316uw424WPYRfXDlPwT1d5GpjAqcPxjJXkUdgJe88eJzHYe8E08rmWrT1GgphilCf38shukdiTcoykjSFzwD4yhtvmRVZWbJWdZF8rZMBzE+dORPGsOJ+rjwP5V394lLDFLFvDJO0NFeRklKGL2U1y8kHigqZ8b7YR2zFqcrKo7LMn6a00nOuLKawYZvNXLrPbx9Viy/aLKra6oQ7KcjN44rObC0mb6C68yt0+ZyPPdlugbS3bwbaHZN6qIWDfYfZHa8m6ko8mch+XTu/CXeayWj7LVgLdAJV5hZQ2dBO6+ziHYtx4Xp5P9ZCHEZKyZ30I7rKOxdExruikofcZrWod4f5xbA1cg48MsdUo+mi+l0/Rk1GCN+/naKw9lSX3qZ/w52jqYRIi/WdAOKYumk9s9aM91D8o4W5jO5NaA3bOnsTuPEzyjg34uTtaILYK7v76Y2q9NpJ+JI6RuwWU9zpz4OxREgLn7q/MHrI5YqtXMtRYxIe5dfQrXdmedo4jW9fg+8rpMTKH3KbFLBZb41tkoIOq3GvkabfyB+cOEOjrPnOsjdHyFeDt10K/JCTtOBV3blI14syenevoeVTBI58U/tXJGLynO2den62kZbi7jabGVgyBa4hdH0Ow55RltLAbQY9OMUhzRT6flqtIvXSCHTFhuM5Cti0U+iXOSXvxIJvs2h7W7NyHe0cFtWMRnH83hXDXl8diyLNsha9ay1jHI7Ky7jHos4t3LuzFz9lphtW5MhtkOiYGe6nMuk61FEFKaqrxheU0Dwl/vhlnVZzt5AA1xdmU9nmRvD+K1rJKutxiSDubTJTrrG/VRaa4dZYtKPqeUXYnm66gzWwJ0HC/opmQPemc3xstC7wjmrSsYmtQ0N78hJbuMbxDg9C21XG3YYQNB5PZGxdlPBPOxclx5rPXFnG2evU4fS1PeNqvxN3TmZH6CpqUfiQcSmJzhD/e7m44O87lnMwntuKkhu4Xz3jeM4JWnNHl6EJQ1HrWRwThbtFJDXqacz7kSpszR3euZbCxlh73eE4dTyTcy1WeG8GgZLD2Jv/7Lyvw2pXOVy4kES5cfXI+XWwqra/f3DKxlQyMt97n6q/+iV9n3aeXYPYePcsH3/wqh9d4zNx94WgEPcNPy7n+0UfcqRskYvdpvv71y8Smb3Y8AAAgAElEQVT7vfw0X54NMgOq8TbuXfk1v/jnO1QNScTsO8G7X/sT3k4MmTlYb7FjcZQDzyj57CM+zqlFu2Y3lz94n1MJ4XPESZbYSgo6agr49X//BTdrWlF7reXI27/PH18+SUzgVEyCzcVWkph4XsGVX/9//DLzIcP4k3j8Xb72zfMciAx4jfS0bGIr6Rhre8Ttj37DjYp2Anee5t33LrM/WmxcyJvp1oqtpJmgt66Qf/qX6zzsdyTuxFt8kH6ADf5y7drlFNu5z6rrquPqL/87/3d2E85uXngHRHHsg2/y1uFtTH+w2RCxONWWySfF/J8/+wnZjydw9fAkICaR9A9+n9Pbo5i2Y4zlbB2NMNFVQ9avf8XN6i6c45L58pffZu9af1wXUctX3QgCpzmhUBsPznR3ef1gVnkzzfalLBNbYbUaTwWdQKHSYMABJxc3vLy9cJ21ehYD0YiOUYpUYLUeR1d3vL085iy85RFbAeMRfpwJJhQqtAZwcHbFw8sbDxeHmTfm4sfi6FCJU2GVaiRHVzw8PXF1mvvWlyW2GNCpVUyMj6PU6JHsHXEVJ/16uM2cNmFzsRWCLk5TnRhnQqVBQtDxPfDy8phj6S823ayybEW9xtN1J5hQ6XB08cDD0x0XC8wOa8XWdAr0xPgEKr0dzu4eeLq5zHum1ULPvXyW7Ss16AUPdpwxcfKIkcDmiJuYm65zQyBtGY0gaVWMjY2hFIsDOxycnHH39MLN+aV1vRJiO+VvnWBCrcVenPrs5Y6zw/xoRVMvfmHibOXo/1KoX8sltnLauZpBJqeXpspYK7bya5i/pNViu9SKl9WNYHljbOFGsLwVtrdsrWnT75zYCgiNEKOVRiyaTO2VQiyK5xSpkOagN/NNiqFHj3j4N/+Z3ux8DKppxOIP/hNRFiIWTZbtd7/7XQoKCszOP7HrKxCLP/nJT0hISDBbfjkKmBCLYj7IgZEsR53iHqaF5eHhYaQkreRPWLZ5eXkI+pdcmIowNCIiIti7dy/BwcFWN3e22Fr67CIaQUB7FjuDTG7DTIhFEVVgScqwgOGYYFJy+05um0wWv0ABiOf8bfqJfhHaJjJzRb/YGQwGSVgyYoFZStISDy4mnCAFiZ+l1C9xrWiMHMKUmJAmwphYiIJMZMlvNjHM0mtFPSN1dTz60Y/pmaZ+eW6IIfEv/x1hp09hbwHPVjxDc3Mzf/EXf0FJSYnZRxBiJ6hfP/rRj4iLizNbfqkFRD+L8RT/FfNhJcVWjJGYD2J83gT1S4zH4OCg7EUt+kiIbWJiIoGBgVZ3vbiPEDoxN0SfyxUs03VijESfLXWsTNQ1IbRijcm5n6kN4r+iDXLbLrezRJuEkJvmhNzr3nQ50zoS/TGH+rVUy1YouPiJt7IlP5NlKxaZHC7Dm+TZCp9t1Q//hp6cAgwCsLxpPXv++q+JOn/OIrE1Wbbf+c53KCwsNNtdb8qyFQtfWBNyFpzZh5BZwBp4tcxbmy32ebBshbBYAu4WD/V5sGyF9SnW5io8fO40E/0ixlR8Ic5YtiJ0axWxuPh6lLdBZnZN2z4awXwTzJZY9dnKiws2ndSwb9++ZXMjrFK/Xhcs8RIWL/7ltprNLoQlFLA4GkFOXasbZOctOhZnJaIR5IzbYmVWxXZVbC1xI5gs24UzyKyfkb9zG2Srlq35ybBq2Zrvo6WWWI1GWEUsvjqHvjhiq9cw3tVEcXE5o2EHuXQozhh/Ovu3sGVrQNn7nId3i3nQOorfpt2cSNlPuA2OMhenXmpGu6guLeXRZCAnUvYS7echi/olnkVkkQ09r+VueQMkHOPIlih8Xtl/ky22eiXdTQ8pfNCC99ZkTuyMZvatVsKyNWhGaa0uo6CsjlGPSPYcPsrOdcFzUkRtYdkaNGO015aSXzfEur0pHIkPsUh/rRdbCc1EH3VFJTRPerHz9BFiPFxm2ANyGmGzOFt0jL5o4G5+IQ19Ojxj93AyeScxge4z89PmoV/iVFhFDxXFhVRMhJJ6ZD+xwW6vdYutkxqmKpRQDrTyIK+UTu91HDiUSLTnwihMc2Ir+s54IracQV7BMha6ESQmh1t4cPsWRQ8aUSa+z1++ZwFiUa+kIe82Jc/HWbM2mJHOFgY3XuAb+yLwmGbiLlecrU45yrN7mXxWcJcWp1186xvnZCMWESzcrkbyM7IpetRBUPrX+eBwAqHuc4dPntgaGGltoOj2x2S3Gkg4eJHfv7iL2dPa5mIrGVA8KSez+BGDPuuJktppUkdwOvUgG4IXzkGfPQ+tciNIarqfVFJ89TNKBp1IPPP7fP1IjEXT21qxNUyO0l6Vy7/cLmPYOYbz3/09dvt5zuEIm2uIzcR29AX38vK4P+hBXLiBpxUdhKec4fjBOHym7RZbi61BO0BNXh53C+5S5b2HP3zvHPtjXj/Nel6xlQzodTp0puPY7exwcHDEUYQyTR8HbokbwaAcp67oUz68XQOx+3j7g3R2+MtkI8w+FkdEJ4130vxiDJeQSCIDvXD6bUYs6nVKxrvaqC3OoNRxL39yQSZiEQMGVS9513LodF5H+vFont/N50bHWr73e/sJcl9mxKJej2qkl6aqIm7X2nH2HbmIxak3rUE9SX9HG+V52XSuO86lg9aKrYRWpWakrZK8kmomg/bzpfM7V1RsJUlNa0k2xU9HiDl1jrUDD8nMb2fDmTSS1ofKsvasElv0aJSTDDWUc/t+I25bz/L+oXXmNG7O360VW0mvRz3eR0N5KdXPlWx+/wKJvp8TsdWJ7K1xlHbuOE40k/VhIfZ7jnNCIBanMzEXFlsJrU7BiHIMhUHC3dkHX1dPnKftAHGdLOqXpGFidIK20pt80uLG6dOp7F0nT2x1Q+1U5N8ho/IpExoDdi7eJCSf5UzSFoI85SIWZw2zXo9itIOq7GJqJ71IupjCVj9LxVZCN95F2Wc3eewQTfKJo8T6f74YCRZatlMdtBTE4u0bJYzPQixerXTl63/yeUIsvpwEqsEeyu5c4XHYYS4esFZsp+73JhGLkmGchpwsKjoMbH/nHGGd1WRn1hGQmsaJuCjkcLytE9upZ1e13OdabgXEn+ZLSSsjtlNfpypayou5VzPA+nfPfX7EdnqKSapRGu9lcLNOxf5TpziwMQQn098kyZjQIeKb50YjaOgdesSdphLKx9Rsiz7B+ZhdhDtNfTbLFtvpejrvfcovagycSEtj7zpvmW6Eqfh244kI0z87e3scphMMTC8K03HjspJRpDHq7uRQ1u/I3vPHLBBbeySDAZ1GQVtZDteqR9mWkkrK1vDPFTjcOB0lCRESK8ZUduiX1WKr7CDzWhFDXnGcNyEWG/z4428eI9zjJZRFbM6Z4myNMZ2Smv62JqoePEYftpEtWzYT5TtlCS8/YvF3UWwnac7LpOyFmoRL54noqSY7q4nwU6kc2Rjxuyu2qGgp+zyIrQT6MZ5UP6KxbRj/jTtICHOmu7KQu8/VhO0+TPLWtfjMOl5qMTeChGDJGgT+ATu7qePdTQ6uxcRWpxqhs6Gams5JfNfGszN+DSMPrlkstgbFEG3N9dS19aPWG7BzdCN8w1a2xoTj6SoPsage6KCupopOpSfRO7azIdSBZ5m5loutQcNoWxU5ZY950T1JxP4THN+9ngA302vLog8pmxZeObEVbgTtKOWf3aJO5cexpFjaywoodEzme2c24es6FVozr89WiG3rYx7eb0QfvoltWxNWxfbYMX72s5/JStcVp2v0VeaSWd2B796TxI1XkfVIy8EzKexY4y8LOfhbadl+3sS2qpr61iEC1sfiNdJCaf0gsYeOkrQ1GvdX4Dy28NnqlCO011dR06nALzqBXZutF9uWx3XUtfWi1ktGsY3YuI2t6yONp7bIsWzVA+3UVVfSrvIkOnEHm4xim2e52Oon6av8hL/5f8vw2nOeP3zvONG+rr8DiEUMKLubKM68xY28e7QaIjh67Dhp506xNfjl7uFC0QiSQUdf/V0ycgpo7NfhHRnH4QsX2BfmMYMuXJ4NMgnNZA/1RVncuJFLeZee+KRjpJ+/zOFYvxna1oIgGoOe4ZZH5N65we3iGoY8NnAsLZ0LF5NYa+kZZJKKgefVZH9yjYzKJ0x6ryflwiUuHt5NmPfU29fmG2RIaIZaKM3NIr+yDb1XABsPnuLU3jiC3OXxBqwSW90k3Q3l3Lpxk5zqFhzCdnD64gWOH9hKmLu8nHZrfbZaxQDNZZlc+yyb2g417juP8d6ZVFK2R898qpszY2y1Qabvf0LGxz/n16XdBIaGERAQwo6TZzm8dR2+085XW4jt7Oc1jHdTVZTLrcxs7nbo2brnGOcun2PPehGh8rKk7aMRJHSTwzzI+pDPbhXTPGJHZPIZPjifZjQE5uMtz4lGsAetop/nbUM4BUYQFeQtm9FsbvyX++8WW7ZTiMVxJpQCsWiPs6s7nt7euFmAWJwU3AUjYtEDb2+POZ+xyyO2LxGL4xNKNAbBNxaIRR/jwZKmDcqFqV8SeoFFnBhDodIh2Tni4u6Bt48HzrN2N+VFI0jo1JNMjE0wqdFNIRY9PPH2cF9RxKKIsFArFUxMKNE7OOPh5YXbLFi1uYllldhKBrSqScYnJox4STsHJ9w8vPAUeEl5Wmv0W4p/IltIlu/P5PM06FBPjiPGX6sHnFyMfjJPN2fZIUG2EltxoOjk+BhjSu00YtEBNzE33VYOsYhBi1iHE5NKNHpwdHY1rmP3FUYsGo0Ng57J8REmJlXoDHY4uLjj7e1pxD3OF75lLvTL3Fx+U3+3WGzlNHQ1g2w1g0zOPJFTxlqxlXNvc2VsJbbm6jV97diSZyunDaKM7S1buS2ZtZeiUhnb9TuTrmtC6smBwbzaXSI/3HQsjqWIRiHUJgyZj4/PotAT8aaYDaIRqYGW/MTmmmintYjFwepqHv7gh/TOBtH88AesOXcOewsIZOI5GhoaECAaSxCLP/3pT9myZYslj2xVWdG+2YjFlcTamcTWhBlcKQiOeGYhtrm5uUbEolyrWsx9Qf0SbISQEMsSOGYPzlLdCKKfRJ8tdaxMVuSrBz4uNpFMa1j0hSVoRrmTU+iDEFvTjr7c6950OZNlOwdEo9frJbG4rEUsipuKzhADbg2iUYRGmAbKXAeJcqK8WAxyeZume4prRTutwTOKe4zU11MjEIu5hUbqlxGx+O//HeGnT2NnIXu1qamJf/Nv/s3nErEonlX0sQn3t1KCJ+qdjVhcaejI8PAwxcXFFiMWw8PD2bVrFwEBAeam74J/F2vIhBIUa8gS0RQCae3ae7VBov/F2AucodwXzlLaLqfDZvfLSs5FOW0zV0b0pRjL1xCLYtCsgWqb3sqiYkutTXGNqFcIoRw841IEU1wr6hKTyJqXwnBtLdV/+3f05BYgqTS4b4ph11/9FZFnz1gsto8fP+bP/uzPKCoqMjdexoV0+PBh/uEf/oH4+Hiz5ZejgOgnIbbWzIel1C8Wlpiggou80mIrLFrxpSH+K1fsxNwXlu3u3buXzLMVzy3EztJnF19ror2WsqTnGydT/4v1YYnYmgwm0Qa5fSd3noh7m9CTv21iK4w7MUfEV/sqYlHuiAPyNsjM39D20Qjm22CuhFUbZOZuKuPvqz7bVRDNq9NkdYNsVo+sbpCtbpDJ0FFZRVbFdlVsV8V2kaWyKrarYitLSWUUWhXbVbH9woqtSExQDrZRVVnLRMA2ju1Yh/OsGFvRMYuJrV4zQW9zHVXPFKzdv4vNIb5zMpiWK84WvZbx7qdUVFTTPunC2q272Z8QhYv9y8i9xeJsjdk2DdVUNLaj84smcc9ONgZ5Muty+W4Eg4ahtkYq6jvxiN3B3rjwOYH1K+JGkAxM9rVSV93AWEAcO7fG4j+VIS3rZ60bQdJO0vushgdPR4lI2MPOdf6y6jMVsl5sJfTKUZ5WVdKmdCfu4C7C3ZxkQXdMddsy9EtSj/Kitoz6UU9ituxkY7DbnLm11GgE4Q9c8MBHrYLu5joe1DQy4RZO/K5dxEX44zZ7ck93wsqEfkloRrupf1BDn3sE2xI3EurmsmA89BfEjSChGuugNjeTrMIHjG//Mv/h/UPGFL3ZvwXFVjIw1HyfjIw73Guw4+h3vsbFLdFzFsDyiK0B9WgnlTk5POxS4enugEryJuHcZQ4EO2N6NyycQaZj8HEZ2UUVDDn44KQZw27tQd5N24m308tnleezNTDR9YzSzE/4rG6MTclv842VRiwioR/tpKowj5vZD3Dcc5b3L6ay3ls+8dMqsZU0DLbVc/f6NbJe6Nl57ut84+j6FRFbg2qCnoa7fHItjw67tVz43lc/P4hFaZLO+ocUf/IvlBLP8bc+4EyCHw6zxM52YmtgrLWGwoIy2u19cFX0MeifwPmUJDYFyeTZCsSiXo9Ob5geSzvsHRysRyyqFTwtv8WHV8tQRO/lva+csQ6xKJgRin7aehQ4+QcT4uv+uYLRWJzUoNdNMtreQm1JFuXO+yxALBrzUlGPDdDW/IiizMeEXj7Hqc1rl19sDTom2ir5LK8G97hjHI+coLColKfRF/mjAyG4TqvtQmJr0E7yuOAOpR0adp1Nw6WpgKJaHfu/eoEtHi6Y5Fae2EpolUqGWirJvfsIdciBFUcsihUhaSYZ6u7iYUEWz9w3kJp2wvZii96YxTVQV07Ggybct59bQcSiDuVoLw3lZTxqUZLw5YufI+qXjsmxEYYrMrn+XGLNvnROWyC2AkJjECAakX9mZ4+9gNFMy95iIBpjEUnJ0/JC7taNknDuFKE9pfwqv5ektDQOxofOzG3TG3E+y1bX95zCWx9x5W4Do2oDdm6+7Ex7n/dP7CbUx0UWG2H2G1fS61AMveBhTjH1Kh8OXTjOVit4tpJmiOrrn1CuCiXpVCrxga4zhpVFb3gbFbZYbI2s17E+avOukK3Zzh+dl8uznXoCSRKf1HVkflSGz9kzpNlCbPUaxprv8em9ZoJ3nSM9fIS8/CJK3I7xF6fW4+Y8JZfzi62EXjNCdWYm1UMuHH43DefaEvLv9xD95Xc55PdyAOWJ7dRzq/sayM4sYcB3N++dW1merWnuaMaHqcm+RqUhkuOpKyG2xhFH1fKAq7kV2K0wYlGSlLSWl3wuEYsiRVVbf4d/rhonKDHNArHVMjDSQOHzB9ROaNgQmczxNVsIcZSJWNRPUFeSS/lzO5IvHsdvqIpfX2kkITWV5O1rX4Orzye2kk6DYnSYYYUKI2XR3gF3Lz98vaZS0OWAaF7VM8kwSn2GQCw6WY5YFJa2RklndTE3yjqJPniU44nrjQgB+d9uNlLYWbe1Qmyt5NmaKjWKbT0ZH5XKF1tJh2K4n46OPiTvIEJDQvB1mxLMeRGLwl/75C5X7zYTsHNabAuKKPFI4S9SY2SI7ei02Dpz+J00nGqLKXjQR8yX3+GgtWLb30B2xpsVW+3ECDVZV3m4omL7Bnm2nyfql0FNf1c3fcOTuAeFExbghX1TBv9caanYLi4KZi3babG9/9yOQ0JsByv59dXHbEtNJWn72jnHNRmNBLXaGIs+O4PM+JXU30PvsAKdJGFn74R3YCihAT64ONrLElvd5Ag9XV2Map3xDw8n0EtLU4YViEX0/P/tnXlQXdl95z9i3/cdxC4hhPYNCYQktKJ9a3fbbseujp2ZVE27JhOPM5NMKnFPleOMM64aJ/PH/DGVOInHTrdbW7ckhFglFgFCQgixa0GIfV8fvPVOnQcXgQS8ex88ut3Nq1LpD849+/ne3/2d3/kcTU8zj2saqXnSjOP6fWSkriNo6jIC20uo8hJ+P8TWpKGt7iE5t8sxxm5jb8oe1gZO7u7MKbaSgdH2J2TdrsAUlcy+CA33iivp2fwNvrvZD+cpnN28bgTDOM+Kssh/OsymwwdxayqkpNmdw+8fJ9bNcXpDT5VluyK2yw8P/zKJraGPyoK7lNZ1Ebo9nbTNsXi+uL38YouWlxV3uVvZSfSx44S1FfG7ijH2Zxxj95qAtyzBucTWKNwzD0q4V/8KjcGEnaMHsVv2sndzHD5ujorEVtPeRGlhHk2jPiTu38+2aBeab1uBWDSM0XX/Yz76x3LcNx3jg28fZ03gbLiVcjm0bUp1YitI412NlGTf5NrtfBqNUWQcy+DIicMkTYmfqO78iEUdLY8KyPr8GjklLbjuSONoxjnOJMfhOfVpvzQbZBICsVd/N5ubpU/oNzkTHLedUxcyiPd0mN71nXeDTDIy9PIROVnZVL4cZpW7Hwn7TnEhZS1u9q9xVYrEViAWm6vJv3SF62W1jHoncPydi5xK2UrIciEWBfW/s4nC3EyuZN6lVQpk99GLnDu1m3UBnrbj2Ro0dNZXcOvzz7hZ3ojD6mTOXjjD/uQkQlyVYb+sjUbQj/Xz7H42V6/d4uELDZ6px/hmxmHSN0YqjkiwWTSCdoDnlfe4efUSeU/H8I5N5p33zrF3Y8z0paK22yCT0HY2UZSbxZ2mXoy4ELbzEGfStrDa640bTZcFRCOh1wxQmXeJa1fzqB20Iyb9LN85fZiNEb4KEIsS2qFWqmu7cAqLI2G1/7QxZVvpVJ+7OrEVlqSmn46WV7T2DmHACU+/IFbHRBLg+hqCOa/YSkZGelp51dJK/5gROzcv/EOjiA31wWnK2lwasRW+YSPaoV5aW9vp1zkQELaaaBFmNsOJM3/oF5j04wx0tdHaNYDJzZ+IyHAC3GeHoygSW4yMD/Xw6sUrukcmkBxc8A2JICY8eNYll3V1dXz44Yfk5+dbHEVxRDFdBTzc7J8eG6CttYXWnmGMOOLpH0JkdBh+CpGDVkUjmAxo+jtpftVO34iWVU7uBIavZnVogOJbfa0VW4ECHex8SUt7DyNaCdz9iYqMMPNOlfrxbCa2Ri2D3e00v+pgWGvE3smDsOhYwgK8cZ7afbWd2AprSMdQTyctbV3onbwJiVhNkLfYi3i7Z5Yj9MtkmKC75SmtnQNoDODkE0JMdASBnrPD4eSF8TUJ/bKoA+YEK4caVg41KJspllNZK7aWc7acwmZia7no6U/xt+8gW6TPVkHZM5Msh9iqrJLZh/yVQizOvAdMbWeIGDyBQRNvZ7WIRTWWrUgrrFPR+YL4pRa8sZBlq6TNZstWIBaz883UL7eEeHaZEYunWKUSsShbtmoQi0qvxVHSloXSyIhF8RIV47mc8I+ZYmsGdyzT1dSizX19fdOIRaUQHNFHMmIxKCjI6q6fadnKeEklmckbZAL+Ip5bbH9ZK7Zi/cvkPqUAGyXtE2lkBKton9JxUZq3LdPNHNPpCx8FYlGIrfhnDbVLTDgZ86b2eVEhMcBKCFMirUz9EmIrMHBqfkJsZcSi1dSvn/0tXYL6pdXjvjaGbf/tLwg/cYJVjsovnBPtEIjFH/3oR2akn6WfWEBpaWn83d/93bJTv8R4LnYBW2rfzL/LhCeZHrWcZQval6CwCdFVSq6SxXYpqF9i81f8U0P9kv2Cor5iTi+2v+T+V0v9kteweG6pBVGmoS33XFQzb+dKK8ZGjKf438fHx0xRW2Uymcw8W/EGUSuWshtBdLb4qX1eTFaZnWqpM2WxlXm2asV2KRCLVT/7Wzqn4OHua+MmxfbkCexUiK1os1qxFYjFn//856xfv36xc8Di8zNfgLZA5i1UgZmLfbktW2vEVvRVREQE27ZtIzAw0GLfzpdA5GMNYlG2nkS+ajm4c9XFmv6fOV9sKbbLPRetHsypB+UxFS/AFcSiyt5UtkFmOVMxCLbeILNci4VTWLVBtthCp9jG1txBtgRFm29qyMnJQUDElVpn4gUuxFbc1LBUbgQR46oUjG8xzlZlx1jrRhBjJr4chcG01G6Er6TPVkwca67FWdkgW9kgU7mm502+skG2Qv16c3KsiO2MHlkR2xWxXRHbFct2xbKdvQpUx9mKK7F1o320vGxD6xFBwuoAHKZiZOWsFxJbEVM33NVGS7cO/7howrxcZ8U9qolGEOXNeYLM7Dg2MjHYzcuXLfTpHAkIjyIm3H/WtekLRSOIs+vawW5a2nogMJqoQK/pGEi5nYrdCOJEW18HL9sHcA6KJCbEZxbwY1ncCMIHONJLW0s74x6hREcE4fY6NNqiNlrrRhDXdg/3tNLcrcEnLIaoAHeLZc1MYLVlK+apgB41t9A7YYd3WBRRIX64K71DHWzqRpAM4/S1Pqd93Jmg8EiCPZ2YGWhh0zhbJLQjvbxsaoOAUFZHBjPfVanL4kYwifj7VzS3dDCocyAwMobo0ACcHfg6X2UuoR3toK4gixs5peoRiyYTgy8eknPzBgU1Egc+/IBzG2xA/UIISyfVBTkU13ciOTrh4LWa3edOs9nX0TJiUTKh7XtJRW42mUW1eB//Ad9NTyLYdXbQtzKxNTHW1Uz57U+5WtnPmv3f4Ptnt8+a3MshtsaRDqoL8/j8VinS9lO8f34ZEIvoGWytp+TaZW4807HjzB/ywTIhFvUj3TSU5FBQ343BZDS/YNIOHWNvrPJLGG3ms5XG6Wp4xJ3f/T+KjWs5fPE7nFBB/VrobaXEZ2sc6uRJ2W1+/et7BBw5w3vvHyfSjjlPEtpebE3oR7oovHaFB51aHDR9jIdv4/jxo2wKdcd+jlC/Bd0I2kE6ezXYe/ri5+ky5/Oq3vZLmFilZSuhnxigvfYJj8qKqPE9wA/PqaB+SRKjnc958vgBpcXtxH3zPMdtQf0SiMXWKm7mPMAhbi/7I8YpLqygLfEiH2z3t4hYFChIsVif1dZRdq+M0Y0nuZiSRIibNWIrMT7Qy8snxRQ8eolTVBrfOrP81C+Tpp+WxibKioroDd5ExrIgFvWM9HXRXF5Efn0H/jvO8X5ajKrpa51lKzHUXkvB9WKM6/eQHK4jJ+sezusOcfFA4ixw+0KVsZnYMkF/exutxbfI6fFgbdppFdQvyXw6Um80YJDA3s4BR3uHaZf+RhoAAB7GSURBVKFUJLajA7S+rCHvciGmxJ0cvHCYKBViaxzspLr8LoU1L9HoTaxy9mDN9nQObF2Dr7syNsLrfpcwjA/xorEFKTCcoNZcfvVIy/q9xzmY4P/WV7N4bj6xNekGabqTzcMRbzbtTSUhwA2HOYDoqibgEiZWKbaiZIFY7OJx3hVyrEQsDrx8wi0bIxaHGov5tOQpwdtPcSpskNz8QopcD/DjjDjcFkQsTsdpMNHfyb3MKzSE7uPcHmvFdjK/LwtisTr76jJTvyTGn9/nWl7FMoJoJHpelJGZWU/Ynv0kxxi5/WkuYyFbOX1qFz6CA6tgEdlObCfdXNqaTH4jqF/b1CAWtbT33Ofyk2yKhrRsjT/Nt9amsNpJIWJxcglj1HVT/M9XeBUUT8qZQ6rEViAWNSNDDGm0GE2C+uWAi6c3Ph6uZnGTXSBqfLbiGQzDPLn8a/LHI0g9nsGWIGfe8FCaR21usTXQW1XAv2TVEJGSwak9a3G1X0EsqkcsYmRssJfO9l5MHv4EBwfiNXWIfG7Eoo6RphKuFDfhv+3UJM9WIBbdDvJnxywhFl+vwom+TkozL1O/FGK7Qv1aVrHtfVFOZmYtoUJso43cvpSLNmQ7p0/txFOB0IokSye2Epi09HV20Ts0jqt/CMG+HqyyCrEooTeMM6wdYdwo4ezkhY+z2/RehBLLVrTNqOuh+FeXrRNb3TiDfd10D2mmxdbDP5hgX0+cFCMWh+np6mBY74RPSDCejPC0rJCCplHWpe4nLSnazKOd6zdLbDEy0d9KXcNz6mufMR62hUOpG4n0dVP0QlU4FZYkmRWW7RfAszUO03DvNr/+1Q30m45y8cIZdkZMbrTMKbZmN8IjbuRU4RyfxoHVIxQW3qdl7QW+vyPQshthqmtXxPb1HLN2g8xsibwo52ru8lq2Q+015H9WAptSSA7TknPrHo4J6VxMT/oC3Agm0HWQ8/HHXC9pJvrYt3k3fQsBr3K+AMTi5JguRmz1vc3cu3WVa2X1DOtM2Ll4s+XgO1xI30qwl5Miy3b4aQVXP/ktD4cC2f3OaeJG6yitHmTtgQzSEsNwW2Ajc5bY6kZoK/oX/kIgFpMO80ffv0hSiCdOSj5dlkRClWeiUmwltP2vqC69y+3bOTw2xnI24zC7U3cQ4/P6qOz8iEUDXU8fUJyXRU7+U9z3HOBo+hFSk8Jxd5hE7s0XjSCiA4xGE9IqO3OAueyKmTsaYXKD7HF+DoUNnUhOjjh5rib17Bk2+inbIBvtfEZFUQFZOcW0+27i+NHDpKclEeRoP/3GVLRBJukY6nzOg5xb3Ch+zLBXIqcunmLvxjX4T4UDLMcGmbbvFVXlRdy6lctzKYSUI2c4um8Dkd5utkMsGifob2ngnmh7aS12UalcOH2Yreuj8XW2MWJRbJAV3SKvsc9sfWndwth35AgpX9gGmYTJaJy0BI3iEswas2DdahjFd00q588cZHNcKO5TESK2i0aQGO9vpfbBHa7/WzadXpEkHjvF2Z1JRPp7KOLZij0Nk1iP5msaJn+r7Oyxt5+8nkeRG2HqHjOToPMNNPG7//2PVGh8WL82Et+IeHZs30xskOecJLJZYrvKyHhvI3dKm3GN3czOhPAFhVq5NC59StViqxvq5GlDPU2tvWhxwT80knUb1hPu+ZoFMD9i0UB/SyP19Q10Dumx8wwgNC6JLXGBuExxYpcu9MuApq+N+vomuiacCI1fx4bowFmDNz/P1oSmt5XG+jqedQ1jtHMnNHoN6zfF4efw+r4nRWKLgdGeV9Q/rqdlYBSTkwchMQlsXBOF99RFmbYXWwn9UBdN9bU0tvahwwW/8FjWJ8UR6umi6HPLKsvWKF40L6ipe0b74Bh2Lj5ExCeyLjYcL4Wmh3UbZMInakA71El9XSMdGnsCYhJIWB04zU1WspSWzo3wRml6DT0tT6lueEGfxoCjqy+xSRtZszqQqQtIbEj9EvzXbl401ND0qhetnQuuwTFsS4ojxPvtT2/bRyMY0Wu6qSmrpnVQg0lcHOkbTtL6BCL83NRHIygZ2C8ojUqxVVbLlUMNK4calM0Uy6msFlvLWVtMYTOxtVjya+twBbH4dmd9JU+QCcvP2uO6MmLRw8NDwdSanUTQxoR7QMAaLP1EHUVZ1iIWRVniWbXAHFGv/qoqKqYQi5JWi+u6eJI/+gmrT59WRf0SedXW1vLDH/5QMTz8wIED/MM//MOygGhE/QSYyNrj25bGcKG/y5aVGszgYsqb+awQ29zcXKvYCLt27VoSNoJYB/L9X0rbNTIyYqaUiT5b7E/0v/gn1ocaPoPMRhB1V8qVUFpXkbd4CQltUUpjU5q3rdMJrRJ1n0YsCuqX+GwUnSw6S+1PRiyK59Q+LxODxMJWMllkTKI1iEWZuytAGWpZuKJtA9XVPPrp35ipX5JWh1tCLNv/8i+JOKkesVhfX8+f/umfmpF+ln6CGiSoX7/4xS+WDbEoJomMvVwsts9S+2b+XUxM8U+Mz1IDTSzVQ6AV79y5g6B/KV3UYv4Knu1SIBatoX7JL0ZRX9Fnix2rxSAWxfpSg4e0NB7y3+U6iReA0nFRmrct08naJsoQRuwsxKJ4Q1rDeRWLUryRxUCrxR6KCsnMRyVliwEV6UXF1S5GUU+ZZ6v0rT1zMAZraqj+Hz+nM+8OJq0Oj7VxbPmv/4Ww4xmsclB+Fla0ubGxkR//+McUFxdbHG/Rr3v37uVnP/vZsomt6GPRX2I8F7uALTZwRgJ5fEW5y72whMiK8VDDs5XFduvWrfj7Kz+t9mafyOtA7nM1bRdzWoyRmNOLHSthzIh/Ii+lFurMNSyeU1N3JXND1EfMi+Wei0rqtlAa0S+i7kKnBM/WjAwVlq34vLb2s3HFZ7vis13sxJSfX/HZrlC/3pxLX0mf7YrYLiwZyqIRLMuO7aMRLNfBUgqrohEsZarg7ytiuyK2K2K7wEJZsWxXLFsFOqooyYrYrojt11dsJRN6zSAdHd3o3IIncYFvwB4WEluB3Bvt66ajX4d3RBhBHrPjPJcszlYwHHSaySOSBhciwoPwFMy2Gb+FrzKfYLing7aeIUyuPoSGh+Hv7jQrJlWxZSsZGR/sob17BCf/EMICPL8QxKJ+bJDuzm60roGEhvhNx3QqUT3rLFsJ48QYvZ3tdA6O4+QdSFho8HR8sZJyFyO24jrz/o4OhgyOBESG4ulgr+gAh1wvW4Z+SYYJhrpb6Z5wwi8oDH8Ph7dQo/Kuu01uahCHCYZ6aO3oZnAcvEPCCQ/0xfWNk1s2j7MVjIihHtp6x3D2DyXYR8BjFp4ZXxs3gmG8l2el2Xx6JZv+jd/hJ3+wH8+p4Hy5i+YVW0H9aq/l7vWrfF6uYf+f/BHvbIxmpgQuldiaDOP0NJbz+aVrlGgT+Q9//A7bInxnTej5DzUYGXn1hPybNylq6MXkFcTWw+e4kDIJt5B/ysRWQjfYzsOcT/lNQTMxh97nj8/vWGbEooRpfICnpXlcupzD2OZzfPDuMeK8lJ9ptEpsjVo668q4dTOXmq4RHIISSTt6goObw3BRSGOyVmyFmA00V3H1N1eo0YZz7kcfsMvPA2clCj+VxmZiK+kYbKnl7m//L1kjsRx973uc2uA3y2ix3QmyycaZxjqpyLpKdnkD3eNGfOLTOHf+CBsjfGatR1uLrUCZVuZe52pxM6vP/ID39ybgY2GQFhRbvYahUS2rXN3xcHaaPmmqYthtllTloQYJnaaHFw8fUHm/nKchh/mP53erEFsTQ6/qePDgPvcr+ln//kXbIBbNZ7/H6W56TPn9e9zvCebdb2WwUaHYCqF+UZRFwdNhkg4dxO3ZXYqb3Tjy7RPEujlNW0fKxNbEWE8HTQ/vUFDTiVf8gS8AsShhGumm8Ukt94rKGI3azomMwzYXW1HmgztZPNCEczJ9DS8L8qgzBnPozFFi3Wx7XNek1dDf/IS7xRW8HHJj9wfvsM3nyyK243Q3P+fZnUzujviTdOCsCsTiwlqgFERjGmqjoroZp8AwVrt1cf1yNX4HjnBwYzTuM4ZmLrE1DndTX1lKeWMbGr2EnZMb0ZtS2LMhFh83B2XHdaeaMdHznIqHjVRVVeGRcp6zO9daL7bGMVrKCrjf60TCrj2sC3L//UcsGoe6qM63ErFo0tLfXEPWp6V4nzrJMVvwbKcGUtKN0PyogN/dGyfjonhrK7FsJYy6Yaqyb1HZ60jaO8dwrCmkoLyH+Pe/wR4fl2n4uDKxFaeBQNddS/btInp9dvDe6eXn2YpK6EYGeJxzjYemCA4dtb3Y6vpauZd7k2e+uzifkkhn4WXudjqw++QFNgfaK7IgrLVsBUZQMmnMLN2S6j7i3j3N1i+L2Ap+gMmA7sktfvNohMCtahCLBvqHmyhrqaJeoycmZCepYesImLrVQKnYgsnMNpAmRuh4ksuNKj0bDh5kV2zQLIjLXGJr0gzR9ryRxvY+dIL1YO9MUPQ6EqKCcXeyVyW2Yl6OD3STc/Uyw+sOcXK7NWIrmfuzv/E+17Ie4Lw+lYy0zfg528+6/ULRhLNhIpWW7dQnyEgX1bmXybaCZ4ukswKxOH8PzHstjnhEPym2n5SoFdsBKm/dpmrAhf3vHcOxuoj8snaivvkeaf7qxVZURfs1RCzqel9RnH2dl0GpnNuTSFfRZQpaV7HrxAW2hiiLQ7ZabM1TZoIXpYWUPO790oktkgldzU2rqF9G4wQa/QRakwlHB3fcHZ2nDQDlYju5pjof3uI3n5UTeuACx1IS8ZtiPcsrztZuBPPaGOjm9pVL1omtHRj1GgbaXlJWUMRLjw2cPLxtBbFoHkBrxNY0xotHRXx++Q6GdXs5cjidjSGTtyYtvdiCST9GfUEWxa+07DhxGJeGIopqTez5g9MkejhNb24ptWy/rmJrGurgfn4W1XYJnNm3lpb8TB6OerH/zEkSvG1s2X6pxNYE+h7uZd4iv7KViL0nydiViM/LbKvEdiHjayGx1Y50UJOfSXbtACEbktkdOExFTRd2Mds5sCOBYE/ntzYQ5xJbw0Abj4pyyXv8nFFxU4OTJ4m7j3EkORF/1Tc1LFJsDWN03b/Mz//tAasitvHOe2fYEumHy1zUcRtarUqyVmnZShg0A7Q3VFOUc4NSQyLfOrGPtWuj8ZdxRcL5bjIhDkWI3yw2gmRkuPsldQ+KuX2zGo/0QxzbvYv4EB+cpjpnaTbIJEwGDf0tTdy/m8v1ai37Thxhz7ZNRPg4TzvN590gMxnoqSvkRtFjjJ5hOI91MBa0m2+e2I6342uRUCa2RiaGenjxqJjM/AoGvTdx7nw6CWFBuDu9xkrW1dXx4YcfKmYjpKen8/d///ckJSUpGWcMYwO8aqrjblYm9VKoeaMqOTEMP9fZERbzZWbVBplumKcVd8h92ElItBc9LaO4rknmxMEkfBUuBmstWxGJMNT1jPLcPMrqhwg9cYKDiWuICfBUHJFgsw0yo4hEaONp4edcrRnFb/0BzuzfyOpAb2TD0tYbZPruJ3zyjx/zzCGSnXs2EeTlQ8jqSIK9xG0Lr2eBrS3b8f52mmpryMnKZiQqlZMH95AY6Y+7w/wv49mIRT1jrQ/43Y0a3Dcf5PiOWDym1pWihbGMiVSKrbgIsYVH98t52NiKBnfC49azIyWZeF8FPFtJT0fDAyrKK3jRrcXOP4L4zXvYv1EwKCc7d6nE1qDt58WjCsoe1NMxDr6Ra9iyK40tqz2mnebzh36Jl0o/zTWVPKxrxegXzdad21kb5Dlrd1OZ2OoYbGukovA+dZ0DGFx8idu4k5Qt6wiYgpfa/FCDJJnHraqilPsN7UzgStiazexK2USMj7si8bFKbMXFm4Md1FVWUPViAM/oDWzdvokob0dFWEezI2BiwvxPvLTVHMcW91q11JRTVllH16gJu8A4difvZPuakFlhdwutNZuJrW6E1oYqiu9X0zasw9kjmE2paWyJD8PTcTJCxNZiq+t5RknhXeq7xrGzd8ItIIKknckkhvvisoxiO/jiEcVllTwTa8MxgISdyezcFEugy/xz5K1oBDMbVwI7u7fCUJdRSy0WpVJsLeZnTrByqGHlUIOymWI5lbViazlnyylsJraWi7a52CqogjmJrS1bpfWYme4rF2e7GKSeTNN6y42goGfVWLYy2EF0vgBeCHCNGvCGbNmKZ9XSyURT+h494sFH/52u7HxMgpCWEM/Oj/6aKIFYdHpt6VtqtmiHjFgsKCiwlNzcRoFY/OUvf2l2I6hps8XM50gg6jdzPti6vDcXlmzZmsEdc1xtbU2bLD0j2izENi8vz0z9UgphEYZGREQEO3fuJDg42FIx8/5dhiQthme7FFSsmYhFM6VKQf/L1D+hA6IOar5IlHSYjCkUXztKx0VJvrZOI1u2Yp/pLcTi8PCwamqXbNlaS/0SAyVEUFTMEtVHpJHTC7KQ0skgd6pMlBIDZi31q+Z//oKOKeqX55oYNv3ZnxF67Ch2KsRWtEFQv/78z/9cMfUrNTWVn/70p6xbt07RAljMRHqT4iQWnJJFt5gy3xwjMbbLLbaDg4OUlJSYRVdNe4XYbt68edHUL7EOxNxQQ86Sx0r0n+izxRK3ZMKW6Hul/T9zvsjjthRzQc5DrpOaflnK8q3NSzYOha75+vrOpn4JwbQWHj7nBpmCWs5Uf1H2QpP8TctWLZNWDNqi4OGPH/PgJx/RmZ2PGR6eEE/yT/6a1WfUwcNln62Ah1tj2Sro1kUlkb82xMtJvJHVCM+iCp7xGSvYxkoX+2LLFM+/adkqtc6EOAqe7VLAw4VVKVu2SstXG/plqa+ssWzlNSz6whYcYvkYszwnLLXhy/J32Q//lmW7gli0PETKNsgs52PzDTLLVVgwxZfFjaBUcBbZ3OnHV3y21vtsxaf+ihth9kxc2SAbGzO7K6y5FufrIrZiylgXjbB42VvZIFuhfr05i75yG2TzW7biSmYD2gktJntn3JwFDX52dywYjSCZMOh0aPUmHFxccH4D8aNmg0yUutChBnH9uV58ikniihDnt85JL0T9QlDD9HomdHpWObrg7Pj6+nS5tcrFVsKo1zGhNWDn5IyL09uEJ1vH2Zp96QY9Oq0Wo70TriohHdaKrflYqrjHSmfEztEJZxdnHBVCaESdrRdbCcmgZ2JCi94EDs4uODs5zHlb63yvBJtatoKepx1HZ7LD0dllOs5croutQ7/M5Qjyl7jPS7LH1dkZhzlin20djTC5RifQ6o3g4DS9ThdCJH1txFbSa+htKOHjT67Tu+Yi//ndVDycZ0NF5hdbCd1wB1XZn3G5qJ9d/+67nE6MsAn1S5IMaDobyL58hbyRKP7we6fZHOqjjPolhGlihFcPC7h0vQS7fd/l/f3rCHSdPQWUiq2kG6KpJJPfZFYTlP4uf5ixGZcZK3w53AiSQUt3bQmfXcqkJz6D98+nE+VhY+oXRoZbnpB95RKZD9rw2XKQixdOsyvKC4VnGqwXW90YPbUlfPzpZ1T22hOXfo5vHE1mje/kyUMlP9uJrYR+8CWll/6Jm13B7D//LY4kzEaV2lxsJQO63iZufvIxt4bi+MH7Z9kR5fVWt9habMc6arnz6cdcr2rHIX437757gR1RPgueAFtQbM0xtyaws//SxdyqdCNIjA+/4kl+AaUPqulZe5Yfv7NHMfVLvMX6Gu+Te/culfUmdv/gm5xabxvEomFihJbKIvKKS6jTJfC9755UCKIxU0KY6HpK6d0SSh414XbgW3xzbxIhbtaIrYnh1mdU3LlO/tNxIrcc4ztnty87YtE4+IqHJaXkF1XhsHEfZ08etTn1S9L0U12cTXG7M3t2raa1opoe91iOndxL2Bsv6PnEz1rLdqznGfcyc+nwSyDRb4LyR88I23mcMztjFB3iEPWxmdhKo7TUVFF583PKiWX38Xc4keS7vIhFfT/1pfd5WFxImeN6vnP+JMmxb99mPSeIRjtGX2cbbf0jGIwCROOId3AEEYG+uDjaqQDRmHia8wlXX9iTsjWC/sZaut0TOXZwG+GeM82R2bNjXrE16RhurqGqXUfgmkTigzxxUBCqpuTFuxRpVIqt2KU1IVO/cvVb+PdnkhWL7eSn7IQZRHP7UplNqV+CtIVuhBePCvi0VA2IZrJbJXHkuK+D8qxrNITu49wea8V2kvql7aolJ/sLpH6ZTEyMDFCd+xmVy0T9EmfoS3IzafLczoW9CbTdvUpJtxO7T51nk78t2QgS/S0PuX39Eb7J+0mOMnD7agG6iF2cz9iG0gu+bSa2wkVlnKR+/fbRKIHb1FC/Fl72yqMRJPOpq/aSy/xrjcThY8fYFaPMsjX0t/Lw7m2yHz1jTC+BsyfrUzLI2L2BAA9HFWI7RvFvP6baI4HjBxIYKMqntMuZlNPpbPT3nPeU4dxiKwykRjI/vUln4GaOZ+wj0tPx95lnOznQpq809ev1ZJ7o66Q08zL1ixRbkeMK9Ws5qV8Svc9LuXGrgYiUAyTHGMn+XQ5jwVs4dToZYb8pcaDYTmwnv56so34ZGBh5zsO2Gpo0BiKDt5IcHIefwypzm5SL7eQ8byu5xD8/NqkSW0tWnuwCEXsi8x9qENbQAAX/eoWnAUlk7EtkuCifO20Su04dYmuQ17xfILPFdhVGg47xwT5qi/Io6fMk9dA+tkf7Kf6CsdSepfq7asv2CxFbk4aWJ2Vk3SjBGL+L/fvTSAya/MywBfVL7twVsX09zazZIDMMtFOem0m9+xbOCsv2zjXu9bmQevocG/xsbNm+qiT780q8dqaxO1JP1rU7mKL2cP7Y1lkunIUW0tKJrQT6Xu7n5lJc3UFY8hEObluDV7M11C8jYxPdNPe10qk3EeAVRZxPiBn4bUlsdaNdNBTnkt8wSNCGvWSkrGfs4TXVYmsY7OBJ2R0Ka1oYM5iwc/JgzfZ0Dmxbi69i6pcQWw33Pv6ESud4s2U7WHyHil53Uk/tI9HfQ5llaxinrzqbf8qsYsg+mNRTp0hNDMfzjet9lkowF5PP74fYIpl3bjWj40hOrri5uU7v3q6IrTLql/nFNDrI49tXeLBMbgQm+nh8N5vCVjeOHY6mIa+CV25rOXM+lbAp4IqlyWutz1bT00zZzc95GbSNbX5aistqCUk9x/ntEZaKnP770omtyNLIxJiGca0BRxc3XJ0dMNZlLiti0RwZMq5hXGfC3tkVdxdnOkrVW7aT+Yyj0enNLrJVq+zMbXJzEZ/tq1S4EeB53q/5VaMTp/fE0v2kkjb3TZw+tIVQz/nvxpll2TJBf30mP/8/Jfjuf4/vn9iBv5u9oi8XxRNhiRKqFFsT4x0NFOXeJru0ml4pgI07Ujh88igbpyxNs+U7D2JRMmlpriwg59ZtHjYN4hiTxM4DJzm7Jx6vKbbc0oR+Seg1ndQU5pF5+x51gxKRm3ZyMOMsafE+OE5thc8X+iU28oaaH5OXdZOCqheMOYezPe0QJ0+nEOn8OmxLUTSCpKXnRSV5V29R1NiGzj2c7QczOJ22nVAvx0n/sCRh09AvQcPvaKQo9xa3SmsYxJt1Ow9x4mQKiYHzf67NnGPWWLZIBkbaGigpyKf8WR9eMTtIS9/HpgixcaFsBlsrtpJ+jN6mB2Tll/F82J6wzakcTtlMtM/8Gy9v1mhpxXZG7hMDPKss4kZmPk+6JnALWsOhM2dJ2xyDj9PyUL+kkQ4qC/PIKiyntsdA9PpdHD51nF1xQbMuArV5NEJ3A6XZOVS8GMA+fD3ph9JJClcTjWCHSa9hcGgCe1cPPN1eI1SVzbDlS6VSbJVVbIX6tUL9UjZTLKeyVmwt52w5hc3E1nLRK9SvBfroaxNnq2CerCAWz6yIrZJ5oiTNitiunCB7c558JcVWfGZ/kSAab++34/7e7HhRR3EOWxCAlh1EU1U1DaKREYu7PvoJkVaCaMRNDWpANGpualAibAulkRGLyw2ikReWgI58EWyE3NxcM2JRadmCByCoX0sBohFtF3sSAv+ptHwxhoLWJ6A94rnFQoNmgmiUkvFmRiOIOiw1BlGeE2IuLpZqtth1ofZ5GQ85J2JRzSDLBb+JPVRTIZnkJZ6xNLgirShLTHAZAaemLPGcEGvxrDXtHKqro/5//ZKOu8Vmnq1HXDQb/tOfEHr4sCqerWjD06dP+au/+itKS0sVNWHPnj189NFHrF27VlH6xSQS/Sz6SvyvFmO5mHLFs6JceXzFwlqseCitj2irQCyWlZXR19enqlxB/dq4cSN+fn5Ki3srnbwO5D5XKioz189SjJU1/W9t3ZV2lqiTWDNi3SrtF6V52zKdvI4Ed9vHx2dyLUmSJMmdbO3kFhmLnzXPq3lWTmtNWYt5VpRnGB5mtPklxnGN+eSCnbCug4NxCQ1llb2y0CaRj7wp2NzczMjIiKLxFl8c0dHRVkHPFRXwRiI1Y2JN/gs980WULQuGGA9hXar5CSNBWOJiUS3mZ227rX1urrpau0asfU5Jfy1l+5SUt5RpRN3FC0LGhf5/iiTMWMpQd+sAAAAASUVORK5CYII=;" vertex="1" parent="1">
                    <mxGeometry x="445" y="150" width="347" height="520" as="geometry"/>
                </mxCell>
            </root>
        </mxGraphModel>
    </diagram>
</mxfile>